G04 EAGLE Gerber RS-274X export*
G75*
%MOMM*%
%FSLAX34Y34*%
%LPD*%
%INSolder Mask top*%
%IPPOS*%
%AMOC8*
5,1,8,0,0,1.08239X$1,22.5*%
G01*
%ADD10C,0.000000*%
%ADD11R,8.000000X1.500000*%
%ADD12R,1.676400X1.676400*%
%ADD13P,1.814519X8X292.500000*%
%ADD14C,1.800000*%


D10*
X0Y0D02*
X180000Y0D01*
X220000Y40000D02*
X760000Y40000D01*
X760967Y40012D01*
X761933Y40047D01*
X762897Y40105D01*
X763861Y40187D01*
X764821Y40292D01*
X765780Y40420D01*
X766734Y40571D01*
X767685Y40745D01*
X768631Y40942D01*
X769573Y41162D01*
X770508Y41405D01*
X771438Y41670D01*
X772361Y41958D01*
X773276Y42268D01*
X774184Y42599D01*
X775084Y42953D01*
X775975Y43328D01*
X776856Y43725D01*
X777728Y44143D01*
X778589Y44582D01*
X779439Y45041D01*
X780278Y45521D01*
X781106Y46021D01*
X781921Y46541D01*
X782723Y47081D01*
X783511Y47639D01*
X784287Y48217D01*
X785047Y48813D01*
X785794Y49427D01*
X786525Y50060D01*
X787241Y50709D01*
X787940Y51376D01*
X788624Y52060D01*
X789291Y52759D01*
X789940Y53475D01*
X790573Y54206D01*
X791187Y54953D01*
X791783Y55713D01*
X792361Y56489D01*
X792919Y57277D01*
X793459Y58079D01*
X793979Y58894D01*
X794479Y59722D01*
X794959Y60561D01*
X795418Y61411D01*
X795857Y62272D01*
X796275Y63144D01*
X796672Y64025D01*
X797047Y64916D01*
X797401Y65816D01*
X797732Y66724D01*
X798042Y67639D01*
X798330Y68562D01*
X798595Y69492D01*
X798838Y70427D01*
X799058Y71369D01*
X799255Y72315D01*
X799429Y73266D01*
X799580Y74220D01*
X799708Y75179D01*
X799813Y76139D01*
X799895Y77103D01*
X799953Y78067D01*
X799988Y79033D01*
X800000Y80000D01*
X800000Y100000D01*
X799988Y100967D01*
X799953Y101933D01*
X799895Y102897D01*
X799813Y103861D01*
X799708Y104821D01*
X799580Y105780D01*
X799429Y106734D01*
X799255Y107685D01*
X799058Y108631D01*
X798838Y109573D01*
X798595Y110508D01*
X798330Y111438D01*
X798042Y112361D01*
X797732Y113276D01*
X797401Y114184D01*
X797047Y115084D01*
X796672Y115975D01*
X796275Y116856D01*
X795857Y117728D01*
X795418Y118589D01*
X794959Y119439D01*
X794479Y120278D01*
X793979Y121106D01*
X793459Y121921D01*
X792919Y122723D01*
X792361Y123511D01*
X791783Y124287D01*
X791187Y125047D01*
X790573Y125794D01*
X789940Y126525D01*
X789291Y127241D01*
X788624Y127940D01*
X787940Y128624D01*
X787241Y129291D01*
X786525Y129940D01*
X785794Y130573D01*
X785047Y131187D01*
X784287Y131783D01*
X783511Y132361D01*
X782723Y132919D01*
X781921Y133459D01*
X781106Y133979D01*
X780278Y134479D01*
X779439Y134959D01*
X778589Y135418D01*
X777728Y135857D01*
X776856Y136275D01*
X775975Y136672D01*
X775084Y137047D01*
X774184Y137401D01*
X773276Y137732D01*
X772361Y138042D01*
X771438Y138330D01*
X770508Y138595D01*
X769573Y138838D01*
X768631Y139058D01*
X767685Y139255D01*
X766734Y139429D01*
X765780Y139580D01*
X764821Y139708D01*
X763861Y139813D01*
X762897Y139895D01*
X761933Y139953D01*
X760967Y139988D01*
X760000Y140000D01*
X220000Y140000D01*
X180000Y180000D02*
X0Y180000D01*
X0Y0D01*
X180000Y180000D02*
X220000Y140000D01*
X220000Y40000D02*
X180000Y0D01*
D11*
X617800Y51900D03*
X617800Y77300D03*
X617800Y102700D03*
X617800Y128100D03*
D10*
X154620Y69150D02*
X77620Y69150D01*
X154620Y69150D02*
X154620Y111150D01*
X77620Y111150D01*
X77620Y69150D01*
D12*
X166200Y166200D03*
D13*
X140800Y166200D03*
X115400Y166200D03*
X90000Y166200D03*
X64600Y166200D03*
X39200Y166200D03*
X13800Y166200D03*
D12*
X166200Y13800D03*
D13*
X140800Y13800D03*
X115400Y13800D03*
X90000Y13800D03*
X64600Y13800D03*
X39200Y13800D03*
X13800Y13800D03*
D14*
X676600Y128000D03*
X676600Y102600D03*
X676600Y51800D03*
X676600Y77200D03*
M02*
