M48
;GenerationSoftware,Autodesk,EAGLE,9.6.2*%
;CreationDate,2022-08-27T05:24:39Z*%
FMAT,2
ICI,OFF
METRIC,TZ,000.000
T3C0.350
T2C1.000
T1C1.016
%
G90
M71
T1
X16620Y16620
X14080Y16620
X11540Y16620
X9000Y16620
X6460Y16620
X3920Y16620
X1380Y16620
X16620Y1380
X14080Y1380
X11540Y1380
X9000Y1380
X6460Y1380
X3920Y1380
X1380Y1380
T2
X67660Y12800
X67660Y10260
X67660Y5180
X67660Y7720
T3
X14986Y12319
X25908Y5207
X20064Y13210
M30