G04 EAGLE Gerber RS-274X export*
G75*
%MOMM*%
%FSLAX34Y34*%
%LPD*%
%INTop Layer*%
%IPPOS*%
%AMOC8*
5,1,8,0,0,1.08239X$1,22.5*%
G01*
%ADD10C,0.000000*%
%ADD11R,8.000000X1.500000*%
%ADD12R,1.676400X1.676400*%
%ADD13P,1.814519X8X292.500000*%
%ADD14C,1.800000*%
%ADD15C,0.508000*%
%ADD16C,0.152400*%
%ADD17C,0.654800*%

G36*
X27908Y5092D02*
X27908Y5092D01*
X28038Y5094D01*
X28132Y5112D01*
X28227Y5121D01*
X28353Y5155D01*
X28480Y5180D01*
X28570Y5214D01*
X28662Y5239D01*
X28779Y5295D01*
X28900Y5342D01*
X28982Y5392D01*
X29068Y5433D01*
X29174Y5508D01*
X29285Y5576D01*
X29357Y5639D01*
X29434Y5695D01*
X29525Y5788D01*
X29622Y5874D01*
X29682Y5949D01*
X29748Y6017D01*
X29821Y6125D01*
X29902Y6227D01*
X29947Y6311D01*
X30000Y6390D01*
X30053Y6509D01*
X30115Y6624D01*
X30144Y6715D01*
X30183Y6802D01*
X30214Y6929D01*
X30254Y7052D01*
X30267Y7147D01*
X30289Y7240D01*
X30297Y7369D01*
X30315Y7498D01*
X30311Y7594D01*
X30317Y7689D01*
X30302Y7818D01*
X30297Y7948D01*
X30276Y8041D01*
X30265Y8136D01*
X30227Y8261D01*
X30199Y8388D01*
X30162Y8476D01*
X30135Y8567D01*
X30076Y8683D01*
X30026Y8803D01*
X29974Y8883D01*
X29930Y8969D01*
X29852Y9072D01*
X29781Y9181D01*
X29695Y9279D01*
X29658Y9327D01*
X29625Y9358D01*
X29574Y9416D01*
X29293Y9697D01*
X29293Y17903D01*
X35097Y23707D01*
X43303Y23707D01*
X49107Y17903D01*
X49107Y9697D01*
X48826Y9416D01*
X48742Y9316D01*
X48652Y9223D01*
X48598Y9143D01*
X48537Y9070D01*
X48472Y8957D01*
X48400Y8850D01*
X48361Y8762D01*
X48313Y8679D01*
X48270Y8557D01*
X48217Y8438D01*
X48195Y8345D01*
X48163Y8255D01*
X48141Y8127D01*
X48111Y8000D01*
X48105Y7905D01*
X48089Y7811D01*
X48091Y7681D01*
X48083Y7551D01*
X48094Y7456D01*
X48095Y7361D01*
X48120Y7233D01*
X48135Y7104D01*
X48163Y7012D01*
X48181Y6918D01*
X48228Y6797D01*
X48265Y6673D01*
X48309Y6587D01*
X48343Y6498D01*
X48411Y6387D01*
X48470Y6271D01*
X48527Y6195D01*
X48577Y6114D01*
X48663Y6016D01*
X48742Y5913D01*
X48812Y5848D01*
X48875Y5776D01*
X48977Y5696D01*
X49073Y5607D01*
X49153Y5556D01*
X49228Y5497D01*
X49343Y5435D01*
X49453Y5366D01*
X49541Y5329D01*
X49625Y5284D01*
X49749Y5244D01*
X49869Y5195D01*
X49963Y5175D01*
X50053Y5145D01*
X50182Y5127D01*
X50309Y5100D01*
X50439Y5092D01*
X50499Y5084D01*
X50544Y5085D01*
X50621Y5081D01*
X53179Y5081D01*
X53308Y5092D01*
X53438Y5094D01*
X53532Y5112D01*
X53627Y5121D01*
X53753Y5155D01*
X53880Y5180D01*
X53970Y5214D01*
X54062Y5239D01*
X54179Y5295D01*
X54300Y5342D01*
X54382Y5392D01*
X54468Y5433D01*
X54574Y5508D01*
X54685Y5576D01*
X54757Y5639D01*
X54834Y5695D01*
X54925Y5788D01*
X55022Y5874D01*
X55082Y5949D01*
X55148Y6017D01*
X55221Y6125D01*
X55302Y6227D01*
X55347Y6311D01*
X55400Y6390D01*
X55453Y6509D01*
X55515Y6624D01*
X55544Y6715D01*
X55583Y6802D01*
X55614Y6929D01*
X55654Y7052D01*
X55667Y7147D01*
X55689Y7240D01*
X55697Y7369D01*
X55715Y7498D01*
X55711Y7594D01*
X55717Y7689D01*
X55702Y7818D01*
X55697Y7948D01*
X55676Y8041D01*
X55665Y8136D01*
X55627Y8261D01*
X55599Y8388D01*
X55562Y8476D01*
X55535Y8567D01*
X55476Y8683D01*
X55426Y8803D01*
X55374Y8883D01*
X55330Y8969D01*
X55252Y9072D01*
X55181Y9181D01*
X55095Y9279D01*
X55058Y9327D01*
X55025Y9358D01*
X54974Y9416D01*
X54693Y9697D01*
X54693Y17903D01*
X60497Y23707D01*
X68703Y23707D01*
X74507Y17903D01*
X74507Y9697D01*
X74226Y9416D01*
X74142Y9316D01*
X74052Y9223D01*
X73998Y9143D01*
X73937Y9070D01*
X73872Y8957D01*
X73800Y8850D01*
X73761Y8762D01*
X73713Y8679D01*
X73670Y8557D01*
X73617Y8438D01*
X73595Y8345D01*
X73563Y8255D01*
X73541Y8127D01*
X73511Y8000D01*
X73505Y7905D01*
X73489Y7811D01*
X73491Y7681D01*
X73483Y7551D01*
X73494Y7456D01*
X73495Y7361D01*
X73520Y7233D01*
X73535Y7104D01*
X73563Y7012D01*
X73581Y6918D01*
X73628Y6797D01*
X73665Y6673D01*
X73709Y6587D01*
X73743Y6498D01*
X73811Y6387D01*
X73870Y6271D01*
X73927Y6195D01*
X73977Y6114D01*
X74063Y6016D01*
X74142Y5913D01*
X74212Y5848D01*
X74275Y5776D01*
X74377Y5696D01*
X74473Y5607D01*
X74553Y5556D01*
X74628Y5497D01*
X74743Y5435D01*
X74853Y5366D01*
X74941Y5329D01*
X75025Y5284D01*
X75149Y5244D01*
X75269Y5195D01*
X75363Y5175D01*
X75453Y5145D01*
X75582Y5127D01*
X75709Y5100D01*
X75839Y5092D01*
X75899Y5084D01*
X75944Y5085D01*
X76021Y5081D01*
X78579Y5081D01*
X78708Y5092D01*
X78838Y5094D01*
X78932Y5112D01*
X79027Y5121D01*
X79153Y5155D01*
X79280Y5180D01*
X79370Y5214D01*
X79462Y5239D01*
X79579Y5295D01*
X79700Y5342D01*
X79782Y5392D01*
X79868Y5433D01*
X79974Y5508D01*
X80085Y5576D01*
X80157Y5639D01*
X80234Y5695D01*
X80325Y5788D01*
X80422Y5874D01*
X80482Y5949D01*
X80548Y6017D01*
X80621Y6125D01*
X80702Y6227D01*
X80747Y6311D01*
X80800Y6390D01*
X80853Y6509D01*
X80915Y6624D01*
X80944Y6715D01*
X80983Y6802D01*
X81014Y6929D01*
X81054Y7052D01*
X81067Y7147D01*
X81089Y7240D01*
X81097Y7369D01*
X81115Y7498D01*
X81111Y7594D01*
X81117Y7689D01*
X81102Y7818D01*
X81097Y7948D01*
X81076Y8041D01*
X81065Y8136D01*
X81027Y8261D01*
X80999Y8388D01*
X80962Y8476D01*
X80935Y8567D01*
X80876Y8683D01*
X80826Y8803D01*
X80774Y8883D01*
X80730Y8969D01*
X80652Y9072D01*
X80581Y9181D01*
X80495Y9279D01*
X80458Y9327D01*
X80425Y9358D01*
X80374Y9416D01*
X80093Y9697D01*
X80093Y17903D01*
X85897Y23707D01*
X94103Y23707D01*
X99907Y17903D01*
X99907Y9697D01*
X99626Y9416D01*
X99542Y9316D01*
X99452Y9223D01*
X99398Y9143D01*
X99337Y9070D01*
X99272Y8957D01*
X99200Y8850D01*
X99161Y8762D01*
X99113Y8679D01*
X99070Y8557D01*
X99017Y8438D01*
X98995Y8345D01*
X98963Y8255D01*
X98941Y8127D01*
X98911Y8000D01*
X98905Y7905D01*
X98889Y7811D01*
X98891Y7681D01*
X98883Y7551D01*
X98894Y7456D01*
X98895Y7361D01*
X98920Y7233D01*
X98935Y7104D01*
X98963Y7012D01*
X98981Y6918D01*
X99028Y6797D01*
X99065Y6673D01*
X99109Y6587D01*
X99143Y6498D01*
X99211Y6387D01*
X99270Y6271D01*
X99327Y6195D01*
X99377Y6114D01*
X99463Y6016D01*
X99542Y5913D01*
X99612Y5848D01*
X99675Y5776D01*
X99777Y5696D01*
X99873Y5607D01*
X99953Y5556D01*
X100028Y5497D01*
X100143Y5435D01*
X100253Y5366D01*
X100341Y5329D01*
X100425Y5284D01*
X100549Y5244D01*
X100669Y5195D01*
X100763Y5175D01*
X100853Y5145D01*
X100982Y5127D01*
X101109Y5100D01*
X101239Y5092D01*
X101299Y5084D01*
X101344Y5085D01*
X101421Y5081D01*
X103979Y5081D01*
X104108Y5092D01*
X104238Y5094D01*
X104332Y5112D01*
X104427Y5121D01*
X104553Y5155D01*
X104680Y5180D01*
X104770Y5214D01*
X104862Y5239D01*
X104979Y5295D01*
X105100Y5342D01*
X105182Y5392D01*
X105268Y5433D01*
X105374Y5508D01*
X105485Y5576D01*
X105557Y5639D01*
X105634Y5695D01*
X105725Y5788D01*
X105822Y5874D01*
X105882Y5949D01*
X105948Y6017D01*
X106021Y6125D01*
X106102Y6227D01*
X106147Y6311D01*
X106200Y6390D01*
X106253Y6509D01*
X106315Y6624D01*
X106344Y6715D01*
X106383Y6802D01*
X106414Y6929D01*
X106454Y7052D01*
X106467Y7147D01*
X106489Y7240D01*
X106497Y7369D01*
X106515Y7498D01*
X106511Y7594D01*
X106517Y7689D01*
X106502Y7818D01*
X106497Y7948D01*
X106476Y8041D01*
X106465Y8136D01*
X106427Y8261D01*
X106399Y8388D01*
X106362Y8476D01*
X106335Y8567D01*
X106276Y8683D01*
X106226Y8803D01*
X106174Y8883D01*
X106130Y8969D01*
X106052Y9072D01*
X105981Y9181D01*
X105895Y9279D01*
X105858Y9327D01*
X105825Y9358D01*
X105774Y9416D01*
X105493Y9697D01*
X105493Y17903D01*
X111297Y23707D01*
X119503Y23707D01*
X125307Y17903D01*
X125307Y9697D01*
X125026Y9416D01*
X124942Y9316D01*
X124852Y9223D01*
X124798Y9143D01*
X124737Y9070D01*
X124672Y8957D01*
X124600Y8850D01*
X124561Y8762D01*
X124513Y8679D01*
X124470Y8557D01*
X124417Y8438D01*
X124395Y8345D01*
X124363Y8255D01*
X124341Y8127D01*
X124311Y8000D01*
X124305Y7905D01*
X124289Y7811D01*
X124291Y7681D01*
X124283Y7551D01*
X124294Y7456D01*
X124295Y7361D01*
X124320Y7233D01*
X124335Y7104D01*
X124363Y7012D01*
X124381Y6918D01*
X124428Y6797D01*
X124465Y6673D01*
X124509Y6587D01*
X124543Y6498D01*
X124611Y6387D01*
X124670Y6271D01*
X124727Y6195D01*
X124777Y6114D01*
X124863Y6016D01*
X124942Y5913D01*
X125012Y5848D01*
X125075Y5776D01*
X125177Y5696D01*
X125273Y5607D01*
X125353Y5556D01*
X125428Y5497D01*
X125543Y5435D01*
X125653Y5366D01*
X125741Y5329D01*
X125825Y5284D01*
X125949Y5244D01*
X126069Y5195D01*
X126163Y5175D01*
X126253Y5145D01*
X126382Y5127D01*
X126509Y5100D01*
X126639Y5092D01*
X126699Y5084D01*
X126744Y5085D01*
X126821Y5081D01*
X129379Y5081D01*
X129508Y5092D01*
X129638Y5094D01*
X129732Y5112D01*
X129827Y5121D01*
X129953Y5155D01*
X130080Y5180D01*
X130170Y5214D01*
X130262Y5239D01*
X130379Y5295D01*
X130500Y5342D01*
X130582Y5392D01*
X130668Y5433D01*
X130774Y5508D01*
X130885Y5576D01*
X130957Y5639D01*
X131034Y5695D01*
X131125Y5788D01*
X131222Y5874D01*
X131282Y5949D01*
X131348Y6017D01*
X131421Y6125D01*
X131502Y6227D01*
X131547Y6311D01*
X131600Y6390D01*
X131653Y6509D01*
X131715Y6624D01*
X131744Y6715D01*
X131783Y6802D01*
X131814Y6929D01*
X131854Y7052D01*
X131867Y7147D01*
X131889Y7240D01*
X131897Y7369D01*
X131915Y7498D01*
X131911Y7594D01*
X131917Y7689D01*
X131902Y7818D01*
X131897Y7948D01*
X131876Y8041D01*
X131865Y8136D01*
X131827Y8261D01*
X131799Y8388D01*
X131762Y8476D01*
X131735Y8567D01*
X131676Y8683D01*
X131626Y8803D01*
X131574Y8883D01*
X131530Y8969D01*
X131452Y9072D01*
X131381Y9181D01*
X131295Y9279D01*
X131258Y9327D01*
X131225Y9358D01*
X131174Y9416D01*
X130893Y9697D01*
X130893Y17903D01*
X136697Y23707D01*
X144903Y23707D01*
X150707Y17903D01*
X150707Y9697D01*
X150426Y9416D01*
X150342Y9316D01*
X150252Y9223D01*
X150198Y9143D01*
X150137Y9070D01*
X150072Y8957D01*
X150000Y8850D01*
X149961Y8762D01*
X149913Y8679D01*
X149870Y8557D01*
X149817Y8438D01*
X149795Y8345D01*
X149763Y8255D01*
X149741Y8127D01*
X149711Y8000D01*
X149705Y7905D01*
X149689Y7811D01*
X149691Y7681D01*
X149683Y7551D01*
X149694Y7456D01*
X149695Y7361D01*
X149720Y7233D01*
X149735Y7104D01*
X149763Y7012D01*
X149781Y6918D01*
X149828Y6797D01*
X149865Y6673D01*
X149909Y6587D01*
X149943Y6498D01*
X150011Y6387D01*
X150070Y6271D01*
X150127Y6195D01*
X150177Y6114D01*
X150263Y6016D01*
X150342Y5913D01*
X150412Y5848D01*
X150475Y5776D01*
X150577Y5696D01*
X150673Y5607D01*
X150753Y5556D01*
X150828Y5497D01*
X150943Y5435D01*
X151053Y5366D01*
X151141Y5329D01*
X151225Y5284D01*
X151349Y5244D01*
X151469Y5195D01*
X151563Y5175D01*
X151653Y5145D01*
X151782Y5127D01*
X151909Y5100D01*
X152039Y5092D01*
X152099Y5084D01*
X152144Y5085D01*
X152221Y5081D01*
X153754Y5081D01*
X153789Y5084D01*
X153823Y5082D01*
X154012Y5104D01*
X154203Y5121D01*
X154236Y5130D01*
X154270Y5134D01*
X154453Y5189D01*
X154637Y5239D01*
X154668Y5254D01*
X154701Y5264D01*
X154872Y5351D01*
X155044Y5433D01*
X155072Y5453D01*
X155103Y5468D01*
X155255Y5584D01*
X155410Y5695D01*
X155434Y5720D01*
X155461Y5740D01*
X155590Y5880D01*
X155724Y6017D01*
X155743Y6046D01*
X155767Y6072D01*
X155869Y6233D01*
X155976Y6390D01*
X155990Y6422D01*
X156008Y6451D01*
X156081Y6628D01*
X156158Y6802D01*
X156166Y6836D01*
X156179Y6868D01*
X156219Y7055D01*
X156265Y7240D01*
X156267Y7274D01*
X156274Y7308D01*
X156293Y7620D01*
X156293Y22814D01*
X157186Y23707D01*
X175214Y23707D01*
X176107Y22814D01*
X176107Y9422D01*
X176118Y9293D01*
X176120Y9163D01*
X176138Y9069D01*
X176147Y8974D01*
X176181Y8848D01*
X176206Y8721D01*
X176240Y8631D01*
X176265Y8539D01*
X176321Y8422D01*
X176368Y8301D01*
X176418Y8219D01*
X176459Y8133D01*
X176534Y8027D01*
X176602Y7916D01*
X176665Y7844D01*
X176721Y7767D01*
X176814Y7676D01*
X176900Y7579D01*
X176975Y7519D01*
X177043Y7453D01*
X177151Y7380D01*
X177253Y7299D01*
X177337Y7254D01*
X177416Y7201D01*
X177535Y7148D01*
X177650Y7087D01*
X177741Y7057D01*
X177828Y7018D01*
X177955Y6987D01*
X178078Y6947D01*
X178173Y6934D01*
X178266Y6912D01*
X178395Y6904D01*
X178524Y6886D01*
X178620Y6890D01*
X178715Y6884D01*
X178844Y6899D01*
X178974Y6904D01*
X179067Y6925D01*
X179162Y6936D01*
X179287Y6974D01*
X179414Y7002D01*
X179502Y7039D01*
X179593Y7066D01*
X179709Y7125D01*
X179829Y7175D01*
X179910Y7227D01*
X179995Y7271D01*
X180098Y7349D01*
X180207Y7420D01*
X180305Y7506D01*
X180353Y7543D01*
X180384Y7576D01*
X180442Y7627D01*
X217122Y44307D01*
X218989Y45081D01*
X250231Y45081D01*
X250314Y45088D01*
X250396Y45086D01*
X250537Y45108D01*
X250680Y45121D01*
X250760Y45142D01*
X250841Y45155D01*
X250976Y45201D01*
X251114Y45239D01*
X251189Y45275D01*
X251267Y45301D01*
X251392Y45371D01*
X251521Y45433D01*
X251588Y45480D01*
X251660Y45521D01*
X251771Y45611D01*
X251887Y45695D01*
X251945Y45754D01*
X252008Y45806D01*
X252101Y45915D01*
X252201Y46017D01*
X252247Y46086D01*
X252301Y46148D01*
X252373Y46272D01*
X252453Y46390D01*
X252486Y46466D01*
X252528Y46537D01*
X252577Y46671D01*
X252635Y46802D01*
X252655Y46882D01*
X252683Y46960D01*
X252708Y47101D01*
X252742Y47240D01*
X252747Y47322D01*
X252761Y47403D01*
X252761Y47546D01*
X252770Y47689D01*
X252760Y47771D01*
X252760Y47853D01*
X252734Y47994D01*
X252718Y48136D01*
X252694Y48215D01*
X252679Y48296D01*
X252599Y48529D01*
X252587Y48567D01*
X252582Y48577D01*
X252577Y48592D01*
X252188Y49531D01*
X259080Y49531D01*
X265972Y49531D01*
X265583Y48592D01*
X265558Y48513D01*
X265525Y48438D01*
X265491Y48299D01*
X265448Y48162D01*
X265437Y48080D01*
X265418Y48000D01*
X265409Y47858D01*
X265391Y47715D01*
X265395Y47633D01*
X265390Y47551D01*
X265407Y47409D01*
X265414Y47266D01*
X265433Y47186D01*
X265442Y47104D01*
X265484Y46967D01*
X265516Y46827D01*
X265549Y46752D01*
X265573Y46673D01*
X265638Y46545D01*
X265694Y46414D01*
X265740Y46345D01*
X265777Y46271D01*
X265863Y46157D01*
X265942Y46038D01*
X265999Y45978D01*
X266049Y45913D01*
X266154Y45816D01*
X266253Y45712D01*
X266319Y45663D01*
X266380Y45607D01*
X266501Y45530D01*
X266616Y45446D01*
X266690Y45410D01*
X266760Y45366D01*
X266893Y45311D01*
X267021Y45248D01*
X267100Y45226D01*
X267176Y45195D01*
X267316Y45165D01*
X267454Y45125D01*
X267536Y45117D01*
X267617Y45100D01*
X267863Y45085D01*
X267902Y45081D01*
X267913Y45082D01*
X267929Y45081D01*
X571196Y45081D01*
X571231Y45084D01*
X571265Y45082D01*
X571454Y45104D01*
X571645Y45121D01*
X571678Y45130D01*
X571712Y45134D01*
X571895Y45189D01*
X572079Y45239D01*
X572110Y45254D01*
X572143Y45264D01*
X572314Y45351D01*
X572486Y45433D01*
X572514Y45453D01*
X572545Y45468D01*
X572697Y45584D01*
X572852Y45695D01*
X572876Y45720D01*
X572903Y45740D01*
X573032Y45880D01*
X573166Y46017D01*
X573185Y46046D01*
X573209Y46072D01*
X573311Y46233D01*
X573418Y46390D01*
X573432Y46422D01*
X573450Y46451D01*
X573523Y46628D01*
X573600Y46802D01*
X573608Y46836D01*
X573621Y46868D01*
X573661Y47055D01*
X573707Y47240D01*
X573709Y47274D01*
X573716Y47308D01*
X573735Y47620D01*
X573735Y48151D01*
X616590Y48151D01*
X616624Y48154D01*
X616659Y48152D01*
X616848Y48174D01*
X617038Y48191D01*
X617072Y48200D01*
X617106Y48204D01*
X617289Y48259D01*
X617473Y48309D01*
X617504Y48324D01*
X617537Y48334D01*
X617708Y48421D01*
X617794Y48462D01*
X617812Y48454D01*
X617842Y48436D01*
X618018Y48363D01*
X618192Y48286D01*
X618226Y48278D01*
X618258Y48265D01*
X618445Y48224D01*
X618630Y48179D01*
X618664Y48177D01*
X618698Y48170D01*
X619010Y48151D01*
X660996Y48151D01*
X661031Y48154D01*
X661065Y48152D01*
X661254Y48174D01*
X661445Y48191D01*
X661478Y48200D01*
X661512Y48204D01*
X661695Y48259D01*
X661879Y48309D01*
X661910Y48324D01*
X661943Y48334D01*
X662114Y48421D01*
X662286Y48503D01*
X662314Y48523D01*
X662345Y48538D01*
X662496Y48654D01*
X662652Y48765D01*
X662676Y48790D01*
X662703Y48810D01*
X662832Y48950D01*
X662966Y49087D01*
X662985Y49116D01*
X663009Y49142D01*
X663084Y49261D01*
X676600Y49261D01*
X689425Y49261D01*
X689343Y48741D01*
X689234Y48405D01*
X689187Y48201D01*
X689138Y48000D01*
X689137Y47983D01*
X689133Y47966D01*
X689123Y47758D01*
X689111Y47551D01*
X689113Y47534D01*
X689112Y47516D01*
X689138Y47311D01*
X689163Y47104D01*
X689168Y47087D01*
X689170Y47070D01*
X689232Y46873D01*
X689293Y46673D01*
X689301Y46657D01*
X689306Y46640D01*
X689403Y46456D01*
X689497Y46271D01*
X689508Y46258D01*
X689516Y46242D01*
X689644Y46078D01*
X689769Y45913D01*
X689782Y45901D01*
X689793Y45887D01*
X689947Y45748D01*
X690100Y45607D01*
X690115Y45598D01*
X690128Y45586D01*
X690305Y45477D01*
X690480Y45366D01*
X690496Y45359D01*
X690511Y45350D01*
X690705Y45273D01*
X690897Y45195D01*
X690914Y45191D01*
X690930Y45185D01*
X691133Y45144D01*
X691337Y45100D01*
X691358Y45099D01*
X691372Y45096D01*
X691418Y45095D01*
X691649Y45081D01*
X760000Y45081D01*
X760056Y45086D01*
X760166Y45086D01*
X764393Y45363D01*
X764484Y45378D01*
X764577Y45382D01*
X764783Y45424D01*
X764837Y45432D01*
X764856Y45439D01*
X764884Y45444D01*
X773048Y47632D01*
X773214Y47692D01*
X773381Y47746D01*
X773436Y47774D01*
X773471Y47787D01*
X773526Y47818D01*
X773661Y47886D01*
X780981Y52112D01*
X781125Y52213D01*
X781273Y52309D01*
X781319Y52349D01*
X781350Y52371D01*
X781394Y52416D01*
X781507Y52516D01*
X787484Y58493D01*
X787597Y58628D01*
X787715Y58758D01*
X787749Y58809D01*
X787773Y58838D01*
X787805Y58893D01*
X787888Y59019D01*
X792114Y66339D01*
X792188Y66498D01*
X792269Y66655D01*
X792288Y66714D01*
X792304Y66747D01*
X792320Y66808D01*
X792368Y66951D01*
X794556Y75116D01*
X794572Y75208D01*
X794597Y75297D01*
X794624Y75507D01*
X794633Y75560D01*
X794633Y75579D01*
X794637Y75607D01*
X794914Y79834D01*
X794913Y79890D01*
X794919Y80000D01*
X794919Y100000D01*
X794914Y100056D01*
X794914Y100166D01*
X794637Y104393D01*
X794622Y104484D01*
X794618Y104577D01*
X794576Y104783D01*
X794568Y104837D01*
X794561Y104856D01*
X794556Y104884D01*
X792368Y113048D01*
X792308Y113214D01*
X792254Y113381D01*
X792226Y113436D01*
X792213Y113471D01*
X792182Y113526D01*
X792114Y113661D01*
X787888Y120981D01*
X787787Y121125D01*
X787691Y121273D01*
X787651Y121319D01*
X787629Y121350D01*
X787584Y121394D01*
X787484Y121507D01*
X781507Y127484D01*
X781372Y127597D01*
X781242Y127715D01*
X781191Y127749D01*
X781162Y127773D01*
X781107Y127805D01*
X780981Y127888D01*
X773661Y132114D01*
X773502Y132188D01*
X773345Y132269D01*
X773286Y132288D01*
X773253Y132304D01*
X773192Y132320D01*
X773048Y132368D01*
X764884Y134556D01*
X764792Y134572D01*
X764702Y134597D01*
X764493Y134624D01*
X764440Y134633D01*
X764421Y134633D01*
X764393Y134637D01*
X760166Y134914D01*
X760110Y134913D01*
X760000Y134919D01*
X688926Y134919D01*
X688844Y134912D01*
X688762Y134914D01*
X688621Y134892D01*
X688478Y134879D01*
X688398Y134858D01*
X688317Y134845D01*
X688181Y134799D01*
X688043Y134761D01*
X687969Y134726D01*
X687891Y134699D01*
X687766Y134629D01*
X687637Y134567D01*
X687570Y134520D01*
X687498Y134479D01*
X687387Y134389D01*
X687270Y134305D01*
X687213Y134246D01*
X687149Y134194D01*
X687056Y134085D01*
X686956Y133983D01*
X686910Y133914D01*
X686857Y133852D01*
X686785Y133728D01*
X686704Y133610D01*
X686671Y133534D01*
X686629Y133463D01*
X686580Y133329D01*
X686522Y133198D01*
X686503Y133118D01*
X686474Y133040D01*
X686449Y132899D01*
X686415Y132760D01*
X686410Y132678D01*
X686396Y132597D01*
X686397Y132454D01*
X686388Y132311D01*
X686397Y132229D01*
X686398Y132147D01*
X686423Y132006D01*
X686440Y131864D01*
X686464Y131785D01*
X686479Y131704D01*
X686559Y131471D01*
X686570Y131433D01*
X686575Y131423D01*
X686580Y131408D01*
X687125Y130094D01*
X687125Y125906D01*
X685522Y122038D01*
X682562Y119078D01*
X679106Y117646D01*
X678990Y117586D01*
X678871Y117534D01*
X678791Y117482D01*
X678707Y117437D01*
X678604Y117358D01*
X678495Y117286D01*
X678426Y117220D01*
X678351Y117162D01*
X678263Y117065D01*
X678169Y116976D01*
X678113Y116898D01*
X678049Y116827D01*
X677980Y116717D01*
X677903Y116612D01*
X677861Y116526D01*
X677811Y116445D01*
X677763Y116324D01*
X677706Y116208D01*
X677680Y116116D01*
X677644Y116027D01*
X677618Y115899D01*
X677583Y115774D01*
X677573Y115679D01*
X677554Y115586D01*
X677551Y115456D01*
X677538Y115326D01*
X677546Y115231D01*
X677543Y115136D01*
X677563Y115007D01*
X677573Y114877D01*
X677598Y114785D01*
X677612Y114691D01*
X677655Y114567D01*
X677687Y114442D01*
X677728Y114355D01*
X677759Y114265D01*
X677822Y114151D01*
X677877Y114033D01*
X677931Y113955D01*
X677978Y113872D01*
X678060Y113771D01*
X678135Y113664D01*
X678203Y113597D01*
X678263Y113523D01*
X678362Y113439D01*
X678454Y113347D01*
X678533Y113293D01*
X678606Y113231D01*
X678718Y113165D01*
X678825Y113091D01*
X678942Y113034D01*
X678994Y113003D01*
X679036Y112988D01*
X679106Y112954D01*
X682562Y111522D01*
X685522Y108562D01*
X687125Y104694D01*
X687125Y100506D01*
X685522Y96638D01*
X682562Y93678D01*
X679106Y92246D01*
X678990Y92186D01*
X678871Y92134D01*
X678791Y92082D01*
X678706Y92037D01*
X678604Y91958D01*
X678495Y91886D01*
X678426Y91820D01*
X678351Y91762D01*
X678263Y91665D01*
X678169Y91575D01*
X678113Y91498D01*
X678049Y91427D01*
X677980Y91317D01*
X677903Y91212D01*
X677861Y91126D01*
X677811Y91045D01*
X677763Y90924D01*
X677706Y90808D01*
X677680Y90716D01*
X677644Y90627D01*
X677618Y90499D01*
X677583Y90374D01*
X677573Y90279D01*
X677554Y90186D01*
X677551Y90056D01*
X677538Y89926D01*
X677546Y89831D01*
X677543Y89736D01*
X677563Y89607D01*
X677573Y89477D01*
X677598Y89385D01*
X677612Y89291D01*
X677655Y89168D01*
X677687Y89042D01*
X677728Y88955D01*
X677759Y88865D01*
X677822Y88751D01*
X677877Y88633D01*
X677931Y88555D01*
X677978Y88472D01*
X678060Y88371D01*
X678135Y88264D01*
X678203Y88197D01*
X678263Y88123D01*
X678362Y88039D01*
X678454Y87947D01*
X678533Y87893D01*
X678606Y87831D01*
X678718Y87765D01*
X678825Y87691D01*
X678942Y87634D01*
X678994Y87603D01*
X679036Y87588D01*
X679106Y87554D01*
X682562Y86122D01*
X685522Y83162D01*
X687125Y79294D01*
X687125Y75106D01*
X685522Y71238D01*
X682562Y68278D01*
X682398Y68210D01*
X682371Y68196D01*
X682342Y68186D01*
X682172Y68092D01*
X681999Y68001D01*
X681974Y67982D01*
X681948Y67968D01*
X681797Y67845D01*
X681643Y67725D01*
X681622Y67703D01*
X681599Y67684D01*
X681471Y67536D01*
X681341Y67391D01*
X681325Y67365D01*
X681305Y67342D01*
X681206Y67174D01*
X681103Y67009D01*
X681092Y66981D01*
X681076Y66954D01*
X681008Y66771D01*
X680936Y66591D01*
X680930Y66561D01*
X680920Y66532D01*
X680885Y66341D01*
X680846Y66149D01*
X680845Y66119D01*
X680840Y66089D01*
X680840Y65895D01*
X680835Y65699D01*
X680840Y65669D01*
X680840Y65639D01*
X680874Y65447D01*
X680904Y65254D01*
X680914Y65226D01*
X680920Y65196D01*
X680987Y65013D01*
X681051Y64828D01*
X681065Y64802D01*
X681076Y64773D01*
X681175Y64605D01*
X681270Y64435D01*
X681289Y64412D01*
X681305Y64386D01*
X681432Y64237D01*
X681555Y64087D01*
X681578Y64067D01*
X681598Y64044D01*
X681750Y63921D01*
X681898Y63794D01*
X681924Y63779D01*
X681947Y63760D01*
X682217Y63601D01*
X683448Y62974D01*
X685111Y61765D01*
X686565Y60311D01*
X687774Y58648D01*
X688708Y56815D01*
X689343Y54859D01*
X689425Y54339D01*
X676600Y54339D01*
X663222Y54339D01*
X663170Y54443D01*
X663165Y54451D01*
X663161Y54459D01*
X663030Y54631D01*
X662900Y54804D01*
X662894Y54810D01*
X662889Y54817D01*
X662728Y54966D01*
X662571Y55112D01*
X662564Y55116D01*
X662557Y55123D01*
X662373Y55240D01*
X662193Y55356D01*
X662185Y55360D01*
X662178Y55364D01*
X661978Y55446D01*
X661778Y55530D01*
X661769Y55532D01*
X661761Y55535D01*
X661550Y55581D01*
X661339Y55628D01*
X661330Y55628D01*
X661321Y55630D01*
X661009Y55649D01*
X619010Y55649D01*
X618976Y55646D01*
X618941Y55648D01*
X618752Y55626D01*
X618562Y55609D01*
X618528Y55600D01*
X618494Y55596D01*
X618311Y55541D01*
X618127Y55491D01*
X618096Y55476D01*
X618063Y55466D01*
X617892Y55379D01*
X617806Y55338D01*
X617788Y55346D01*
X617758Y55364D01*
X617582Y55437D01*
X617408Y55514D01*
X617374Y55522D01*
X617342Y55535D01*
X617155Y55575D01*
X616970Y55621D01*
X616936Y55623D01*
X616902Y55630D01*
X616590Y55649D01*
X573735Y55649D01*
X573735Y59800D01*
X573891Y60586D01*
X574198Y61325D01*
X574643Y61991D01*
X575209Y62557D01*
X575875Y63002D01*
X576657Y63326D01*
X576662Y63328D01*
X576766Y63348D01*
X576877Y63391D01*
X576992Y63424D01*
X577087Y63472D01*
X577186Y63510D01*
X577288Y63572D01*
X577395Y63625D01*
X577480Y63689D01*
X577571Y63744D01*
X577660Y63823D01*
X577756Y63894D01*
X577829Y63972D01*
X577908Y64042D01*
X577982Y64135D01*
X578064Y64223D01*
X578122Y64312D01*
X578188Y64395D01*
X578244Y64500D01*
X578309Y64600D01*
X578350Y64698D01*
X578400Y64792D01*
X578437Y64905D01*
X578483Y65015D01*
X578507Y65119D01*
X578539Y65220D01*
X578556Y65338D01*
X578582Y65455D01*
X578586Y65561D01*
X578601Y65666D01*
X578596Y65786D01*
X578601Y65905D01*
X578587Y66010D01*
X578582Y66116D01*
X578557Y66233D01*
X578541Y66351D01*
X578508Y66452D01*
X578485Y66556D01*
X578439Y66666D01*
X578402Y66779D01*
X578352Y66873D01*
X578311Y66971D01*
X578246Y67072D01*
X578191Y67177D01*
X578125Y67260D01*
X578067Y67350D01*
X577950Y67482D01*
X577912Y67530D01*
X577890Y67549D01*
X577860Y67584D01*
X576275Y69168D01*
X576275Y85432D01*
X577168Y86325D01*
X658432Y86325D01*
X659325Y85432D01*
X659325Y83829D01*
X659328Y83797D01*
X659326Y83764D01*
X659348Y83572D01*
X659365Y83381D01*
X659373Y83349D01*
X659377Y83317D01*
X659432Y83132D01*
X659483Y82946D01*
X659497Y82917D01*
X659506Y82886D01*
X659594Y82713D01*
X659677Y82540D01*
X659695Y82513D01*
X659710Y82484D01*
X659826Y82330D01*
X659939Y82173D01*
X659962Y82151D01*
X659982Y82125D01*
X660123Y81994D01*
X660261Y81859D01*
X660288Y81841D01*
X660312Y81819D01*
X660474Y81715D01*
X660634Y81607D01*
X660664Y81594D01*
X660692Y81577D01*
X660869Y81503D01*
X661046Y81425D01*
X661078Y81417D01*
X661108Y81405D01*
X661297Y81364D01*
X661484Y81318D01*
X661516Y81316D01*
X661548Y81310D01*
X661860Y81290D01*
X665199Y81284D01*
X665412Y81303D01*
X665626Y81320D01*
X665636Y81322D01*
X665647Y81323D01*
X665854Y81379D01*
X666061Y81434D01*
X666071Y81438D01*
X666082Y81441D01*
X666276Y81533D01*
X666470Y81623D01*
X666479Y81629D01*
X666489Y81634D01*
X666664Y81759D01*
X666839Y81881D01*
X666846Y81889D01*
X666855Y81895D01*
X667006Y82049D01*
X667156Y82200D01*
X667162Y82209D01*
X667170Y82217D01*
X667291Y82396D01*
X667412Y82571D01*
X667418Y82583D01*
X667423Y82590D01*
X667437Y82622D01*
X667549Y82852D01*
X667678Y83162D01*
X670638Y86122D01*
X674094Y87554D01*
X674210Y87614D01*
X674329Y87666D01*
X674409Y87718D01*
X674493Y87763D01*
X674596Y87842D01*
X674705Y87914D01*
X674774Y87980D01*
X674849Y88038D01*
X674937Y88135D01*
X675031Y88224D01*
X675087Y88302D01*
X675151Y88373D01*
X675220Y88483D01*
X675297Y88588D01*
X675339Y88674D01*
X675389Y88755D01*
X675437Y88876D01*
X675494Y88992D01*
X675520Y89084D01*
X675556Y89173D01*
X675582Y89301D01*
X675617Y89426D01*
X675627Y89521D01*
X675646Y89614D01*
X675649Y89744D01*
X675662Y89874D01*
X675654Y89969D01*
X675657Y90064D01*
X675637Y90193D01*
X675627Y90323D01*
X675602Y90415D01*
X675588Y90509D01*
X675545Y90633D01*
X675513Y90758D01*
X675472Y90845D01*
X675441Y90935D01*
X675378Y91049D01*
X675323Y91167D01*
X675269Y91245D01*
X675222Y91328D01*
X675140Y91429D01*
X675065Y91536D01*
X674997Y91603D01*
X674937Y91677D01*
X674838Y91761D01*
X674746Y91853D01*
X674667Y91907D01*
X674594Y91969D01*
X674482Y92035D01*
X674375Y92109D01*
X674258Y92166D01*
X674206Y92197D01*
X674164Y92212D01*
X674094Y92246D01*
X670638Y93678D01*
X667678Y96638D01*
X667533Y96987D01*
X667436Y97173D01*
X667341Y97360D01*
X667332Y97372D01*
X667325Y97386D01*
X667196Y97552D01*
X667070Y97720D01*
X667058Y97730D01*
X667049Y97742D01*
X666893Y97883D01*
X666739Y98025D01*
X666726Y98034D01*
X666715Y98044D01*
X666535Y98155D01*
X666360Y98268D01*
X666345Y98274D01*
X666332Y98282D01*
X666137Y98360D01*
X665943Y98439D01*
X665928Y98443D01*
X665914Y98448D01*
X665709Y98490D01*
X665503Y98535D01*
X665485Y98536D01*
X665473Y98539D01*
X665430Y98540D01*
X665191Y98555D01*
X661868Y98560D01*
X661832Y98557D01*
X661795Y98559D01*
X661608Y98538D01*
X661420Y98521D01*
X661384Y98512D01*
X661348Y98507D01*
X661167Y98453D01*
X660985Y98403D01*
X660952Y98388D01*
X660917Y98377D01*
X660749Y98291D01*
X660578Y98211D01*
X660548Y98189D01*
X660515Y98173D01*
X660365Y98059D01*
X660212Y97949D01*
X660186Y97923D01*
X660157Y97901D01*
X660029Y97762D01*
X659897Y97627D01*
X659876Y97597D01*
X659851Y97570D01*
X659750Y97410D01*
X659644Y97254D01*
X659629Y97221D01*
X659610Y97190D01*
X659538Y97015D01*
X659461Y96843D01*
X659453Y96807D01*
X659439Y96773D01*
X659399Y96588D01*
X659354Y96406D01*
X659352Y96369D01*
X659344Y96333D01*
X659325Y96021D01*
X659325Y94568D01*
X658432Y93675D01*
X577168Y93675D01*
X576275Y94568D01*
X576275Y96266D01*
X576272Y96301D01*
X576274Y96335D01*
X576252Y96524D01*
X576235Y96715D01*
X576226Y96748D01*
X576222Y96782D01*
X576167Y96965D01*
X576117Y97149D01*
X576102Y97180D01*
X576092Y97213D01*
X576005Y97384D01*
X575923Y97556D01*
X575903Y97584D01*
X575888Y97615D01*
X575772Y97767D01*
X575661Y97922D01*
X575636Y97946D01*
X575616Y97973D01*
X575476Y98102D01*
X575339Y98236D01*
X575310Y98255D01*
X575284Y98279D01*
X575123Y98381D01*
X574966Y98488D01*
X574934Y98502D01*
X574905Y98520D01*
X574728Y98593D01*
X574554Y98670D01*
X574520Y98678D01*
X574488Y98691D01*
X574301Y98731D01*
X574116Y98777D01*
X574082Y98779D01*
X574048Y98786D01*
X573736Y98805D01*
X245305Y98805D01*
X245142Y98791D01*
X244977Y98784D01*
X244918Y98771D01*
X244857Y98765D01*
X244698Y98722D01*
X244538Y98686D01*
X244481Y98663D01*
X244423Y98647D01*
X244274Y98576D01*
X244122Y98513D01*
X244071Y98480D01*
X244016Y98453D01*
X243882Y98358D01*
X243744Y98268D01*
X243686Y98217D01*
X243650Y98191D01*
X243607Y98148D01*
X243510Y98062D01*
X180102Y34654D01*
X178609Y34035D01*
X38295Y34035D01*
X38132Y34021D01*
X37967Y34014D01*
X37908Y34001D01*
X37847Y33995D01*
X37688Y33952D01*
X37528Y33916D01*
X37471Y33893D01*
X37413Y33877D01*
X37264Y33806D01*
X37112Y33743D01*
X37061Y33710D01*
X37006Y33683D01*
X36872Y33588D01*
X36734Y33498D01*
X36676Y33447D01*
X36640Y33421D01*
X36597Y33378D01*
X36500Y33292D01*
X24205Y20996D01*
X24183Y20970D01*
X24157Y20947D01*
X24038Y20798D01*
X23916Y20651D01*
X23899Y20621D01*
X23877Y20594D01*
X23787Y20426D01*
X23693Y20260D01*
X23681Y20227D01*
X23665Y20197D01*
X23606Y20015D01*
X23542Y19836D01*
X23536Y19802D01*
X23525Y19769D01*
X23499Y19580D01*
X23468Y19392D01*
X23469Y19357D01*
X23464Y19323D01*
X23472Y19132D01*
X23474Y18941D01*
X23481Y18907D01*
X23482Y18873D01*
X23524Y18687D01*
X23560Y18499D01*
X23572Y18467D01*
X23580Y18433D01*
X23653Y18257D01*
X23707Y18119D01*
X23707Y9697D01*
X23426Y9416D01*
X23342Y9316D01*
X23252Y9223D01*
X23198Y9143D01*
X23137Y9070D01*
X23072Y8957D01*
X23000Y8850D01*
X22961Y8762D01*
X22913Y8679D01*
X22870Y8557D01*
X22817Y8438D01*
X22795Y8345D01*
X22763Y8255D01*
X22741Y8127D01*
X22711Y8000D01*
X22705Y7905D01*
X22689Y7811D01*
X22691Y7681D01*
X22683Y7551D01*
X22694Y7456D01*
X22695Y7361D01*
X22720Y7233D01*
X22735Y7104D01*
X22763Y7012D01*
X22781Y6918D01*
X22828Y6797D01*
X22865Y6673D01*
X22909Y6587D01*
X22943Y6498D01*
X23011Y6387D01*
X23070Y6271D01*
X23127Y6195D01*
X23177Y6114D01*
X23263Y6016D01*
X23342Y5913D01*
X23412Y5848D01*
X23475Y5776D01*
X23577Y5696D01*
X23673Y5607D01*
X23753Y5556D01*
X23828Y5497D01*
X23943Y5435D01*
X24053Y5366D01*
X24141Y5329D01*
X24225Y5284D01*
X24349Y5244D01*
X24469Y5195D01*
X24563Y5175D01*
X24653Y5145D01*
X24782Y5127D01*
X24909Y5100D01*
X25039Y5092D01*
X25099Y5084D01*
X25144Y5085D01*
X25221Y5081D01*
X27779Y5081D01*
X27908Y5092D01*
G37*
G36*
X7818Y22698D02*
X7818Y22698D01*
X7948Y22703D01*
X8041Y22724D01*
X8136Y22735D01*
X8261Y22773D01*
X8388Y22801D01*
X8476Y22838D01*
X8567Y22865D01*
X8683Y22924D01*
X8803Y22974D01*
X8883Y23026D01*
X8969Y23070D01*
X9072Y23148D01*
X9181Y23219D01*
X9279Y23305D01*
X9327Y23342D01*
X9358Y23375D01*
X9416Y23426D01*
X9697Y23707D01*
X14367Y23707D01*
X14530Y23721D01*
X14695Y23728D01*
X14754Y23741D01*
X14815Y23747D01*
X14974Y23790D01*
X15134Y23826D01*
X15191Y23849D01*
X15249Y23865D01*
X15398Y23936D01*
X15550Y23999D01*
X15601Y24032D01*
X15656Y24059D01*
X15790Y24154D01*
X15928Y24244D01*
X15986Y24295D01*
X16022Y24321D01*
X16065Y24364D01*
X16162Y24450D01*
X33258Y41546D01*
X34751Y42165D01*
X175065Y42165D01*
X175228Y42179D01*
X175393Y42186D01*
X175452Y42199D01*
X175513Y42205D01*
X175672Y42248D01*
X175832Y42284D01*
X175889Y42307D01*
X175947Y42323D01*
X176096Y42394D01*
X176248Y42457D01*
X176299Y42490D01*
X176354Y42517D01*
X176488Y42612D01*
X176626Y42702D01*
X176684Y42753D01*
X176720Y42779D01*
X176763Y42822D01*
X176860Y42908D01*
X240268Y106316D01*
X241761Y106935D01*
X573736Y106935D01*
X573771Y106938D01*
X573805Y106936D01*
X573994Y106958D01*
X574185Y106975D01*
X574218Y106984D01*
X574252Y106988D01*
X574435Y107043D01*
X574619Y107093D01*
X574650Y107108D01*
X574683Y107118D01*
X574854Y107205D01*
X575026Y107287D01*
X575054Y107307D01*
X575085Y107322D01*
X575237Y107438D01*
X575392Y107549D01*
X575416Y107574D01*
X575443Y107594D01*
X575572Y107734D01*
X575706Y107871D01*
X575725Y107900D01*
X575749Y107926D01*
X575851Y108087D01*
X575958Y108244D01*
X575972Y108276D01*
X575990Y108305D01*
X576063Y108482D01*
X576140Y108656D01*
X576148Y108690D01*
X576161Y108722D01*
X576201Y108909D01*
X576247Y109094D01*
X576249Y109128D01*
X576256Y109162D01*
X576275Y109474D01*
X576275Y110832D01*
X577168Y111725D01*
X658432Y111725D01*
X659325Y110832D01*
X659325Y109229D01*
X659328Y109197D01*
X659326Y109164D01*
X659348Y108972D01*
X659365Y108781D01*
X659373Y108749D01*
X659377Y108717D01*
X659432Y108532D01*
X659483Y108346D01*
X659497Y108317D01*
X659506Y108286D01*
X659594Y108113D01*
X659677Y107940D01*
X659695Y107913D01*
X659710Y107884D01*
X659826Y107730D01*
X659939Y107573D01*
X659962Y107551D01*
X659982Y107525D01*
X660123Y107394D01*
X660261Y107259D01*
X660288Y107241D01*
X660312Y107219D01*
X660474Y107115D01*
X660634Y107007D01*
X660664Y106994D01*
X660692Y106977D01*
X660869Y106903D01*
X661046Y106825D01*
X661078Y106817D01*
X661108Y106805D01*
X661297Y106764D01*
X661484Y106718D01*
X661516Y106716D01*
X661548Y106710D01*
X661860Y106690D01*
X665199Y106684D01*
X665412Y106703D01*
X665626Y106720D01*
X665636Y106722D01*
X665647Y106723D01*
X665854Y106779D01*
X666061Y106834D01*
X666071Y106838D01*
X666082Y106841D01*
X666276Y106933D01*
X666470Y107023D01*
X666479Y107029D01*
X666489Y107034D01*
X666664Y107159D01*
X666839Y107281D01*
X666846Y107289D01*
X666855Y107295D01*
X667006Y107449D01*
X667156Y107600D01*
X667162Y107609D01*
X667170Y107617D01*
X667291Y107796D01*
X667412Y107971D01*
X667418Y107983D01*
X667423Y107990D01*
X667437Y108022D01*
X667549Y108252D01*
X667678Y108562D01*
X670638Y111522D01*
X674094Y112954D01*
X674210Y113014D01*
X674329Y113066D01*
X674409Y113118D01*
X674494Y113163D01*
X674596Y113242D01*
X674705Y113314D01*
X674774Y113380D01*
X674849Y113438D01*
X674937Y113535D01*
X675031Y113625D01*
X675087Y113702D01*
X675151Y113773D01*
X675220Y113883D01*
X675297Y113988D01*
X675339Y114074D01*
X675389Y114155D01*
X675437Y114276D01*
X675494Y114392D01*
X675520Y114484D01*
X675556Y114573D01*
X675582Y114701D01*
X675617Y114826D01*
X675627Y114921D01*
X675646Y115014D01*
X675649Y115144D01*
X675662Y115274D01*
X675654Y115369D01*
X675657Y115464D01*
X675637Y115593D01*
X675627Y115723D01*
X675602Y115815D01*
X675588Y115909D01*
X675545Y116032D01*
X675513Y116158D01*
X675472Y116245D01*
X675441Y116335D01*
X675378Y116449D01*
X675323Y116567D01*
X675269Y116645D01*
X675222Y116728D01*
X675140Y116829D01*
X675065Y116936D01*
X674997Y117003D01*
X674937Y117077D01*
X674838Y117161D01*
X674746Y117253D01*
X674667Y117307D01*
X674594Y117369D01*
X674482Y117435D01*
X674375Y117509D01*
X674258Y117566D01*
X674206Y117597D01*
X674164Y117612D01*
X674094Y117646D01*
X670638Y119078D01*
X667678Y122038D01*
X667541Y122368D01*
X667443Y122555D01*
X667347Y122745D01*
X667339Y122755D01*
X667333Y122767D01*
X667202Y122935D01*
X667075Y123103D01*
X667065Y123112D01*
X667057Y123123D01*
X666899Y123265D01*
X666744Y123409D01*
X666732Y123416D01*
X666723Y123424D01*
X666543Y123536D01*
X666364Y123650D01*
X666351Y123655D01*
X666340Y123662D01*
X666144Y123740D01*
X665947Y123821D01*
X665934Y123824D01*
X665922Y123829D01*
X665715Y123871D01*
X665507Y123916D01*
X665491Y123917D01*
X665481Y123919D01*
X665441Y123920D01*
X665195Y123935D01*
X661864Y123935D01*
X661829Y123932D01*
X661795Y123934D01*
X661606Y123912D01*
X661415Y123895D01*
X661382Y123886D01*
X661348Y123882D01*
X661165Y123827D01*
X660981Y123777D01*
X660950Y123762D01*
X660917Y123752D01*
X660746Y123665D01*
X660574Y123583D01*
X660546Y123563D01*
X660515Y123548D01*
X660363Y123432D01*
X660208Y123321D01*
X660184Y123296D01*
X660157Y123276D01*
X660028Y123136D01*
X659894Y122999D01*
X659875Y122970D01*
X659851Y122944D01*
X659749Y122783D01*
X659642Y122626D01*
X659628Y122594D01*
X659610Y122565D01*
X659537Y122388D01*
X659460Y122214D01*
X659452Y122180D01*
X659439Y122148D01*
X659398Y121961D01*
X659353Y121776D01*
X659351Y121742D01*
X659344Y121708D01*
X659325Y121396D01*
X659325Y119968D01*
X658432Y119075D01*
X577168Y119075D01*
X576011Y120233D01*
X576005Y120244D01*
X575923Y120416D01*
X575903Y120444D01*
X575888Y120475D01*
X575772Y120627D01*
X575661Y120782D01*
X575636Y120806D01*
X575616Y120833D01*
X575476Y120962D01*
X575339Y121096D01*
X575310Y121115D01*
X575284Y121139D01*
X575123Y121241D01*
X574966Y121348D01*
X574934Y121362D01*
X574905Y121380D01*
X574728Y121453D01*
X574554Y121530D01*
X574520Y121538D01*
X574488Y121551D01*
X574301Y121591D01*
X574116Y121637D01*
X574082Y121639D01*
X574048Y121646D01*
X573736Y121665D01*
X206201Y121665D01*
X204708Y122284D01*
X203207Y123785D01*
X200051Y126941D01*
X199961Y127016D01*
X199878Y127098D01*
X199789Y127160D01*
X199706Y127230D01*
X199604Y127288D01*
X199508Y127354D01*
X199370Y127422D01*
X199315Y127453D01*
X199280Y127465D01*
X199227Y127491D01*
X197922Y128032D01*
X196572Y129382D01*
X195841Y131145D01*
X195841Y133055D01*
X196572Y134818D01*
X197922Y136168D01*
X199685Y136899D01*
X201595Y136899D01*
X203358Y136168D01*
X204708Y134818D01*
X205249Y133513D01*
X205303Y133409D01*
X205348Y133301D01*
X205407Y133210D01*
X205457Y133114D01*
X205529Y133021D01*
X205592Y132923D01*
X205694Y132808D01*
X205733Y132758D01*
X205760Y132733D01*
X205799Y132689D01*
X207950Y130538D01*
X208076Y130433D01*
X208197Y130321D01*
X208248Y130289D01*
X208295Y130250D01*
X208438Y130168D01*
X208577Y130080D01*
X208633Y130056D01*
X208686Y130026D01*
X208841Y129971D01*
X208993Y129909D01*
X209053Y129896D01*
X209111Y129875D01*
X209273Y129849D01*
X209434Y129814D01*
X209511Y129809D01*
X209555Y129802D01*
X209616Y129803D01*
X209745Y129795D01*
X573736Y129795D01*
X573771Y129798D01*
X573805Y129796D01*
X573994Y129818D01*
X574185Y129835D01*
X574218Y129844D01*
X574252Y129848D01*
X574435Y129903D01*
X574619Y129953D01*
X574650Y129968D01*
X574683Y129978D01*
X574854Y130065D01*
X575026Y130147D01*
X575054Y130167D01*
X575085Y130182D01*
X575237Y130298D01*
X575392Y130409D01*
X575416Y130434D01*
X575443Y130454D01*
X575572Y130594D01*
X575706Y130731D01*
X575725Y130760D01*
X575749Y130786D01*
X575851Y130947D01*
X575958Y131104D01*
X575972Y131136D01*
X575990Y131165D01*
X576063Y131342D01*
X576140Y131516D01*
X576148Y131550D01*
X576161Y131582D01*
X576201Y131769D01*
X576247Y131954D01*
X576249Y131988D01*
X576256Y132022D01*
X576275Y132334D01*
X576275Y132380D01*
X576274Y132396D01*
X576274Y132403D01*
X576272Y132419D01*
X576274Y132449D01*
X576252Y132638D01*
X576235Y132829D01*
X576226Y132862D01*
X576222Y132896D01*
X576167Y133079D01*
X576117Y133263D01*
X576102Y133294D01*
X576092Y133327D01*
X576005Y133498D01*
X575923Y133670D01*
X575903Y133698D01*
X575888Y133729D01*
X575772Y133881D01*
X575661Y134036D01*
X575636Y134060D01*
X575616Y134087D01*
X575476Y134216D01*
X575339Y134350D01*
X575310Y134369D01*
X575284Y134393D01*
X575123Y134495D01*
X574966Y134602D01*
X574934Y134616D01*
X574905Y134634D01*
X574728Y134707D01*
X574554Y134784D01*
X574520Y134792D01*
X574488Y134805D01*
X574301Y134845D01*
X574116Y134891D01*
X574082Y134893D01*
X574048Y134900D01*
X573736Y134919D01*
X218989Y134919D01*
X217122Y135693D01*
X180442Y172373D01*
X180342Y172457D01*
X180249Y172547D01*
X180169Y172601D01*
X180096Y172662D01*
X179983Y172727D01*
X179876Y172799D01*
X179788Y172838D01*
X179705Y172886D01*
X179583Y172929D01*
X179464Y172982D01*
X179371Y173004D01*
X179281Y173036D01*
X179152Y173058D01*
X179026Y173088D01*
X178931Y173094D01*
X178837Y173110D01*
X178706Y173108D01*
X178577Y173116D01*
X178482Y173105D01*
X178386Y173104D01*
X178259Y173079D01*
X178130Y173064D01*
X178038Y173036D01*
X177944Y173018D01*
X177823Y172971D01*
X177699Y172934D01*
X177614Y172890D01*
X177524Y172856D01*
X177413Y172788D01*
X177297Y172729D01*
X177221Y172672D01*
X177140Y172622D01*
X177042Y172536D01*
X176939Y172457D01*
X176874Y172387D01*
X176802Y172324D01*
X176722Y172222D01*
X176633Y172126D01*
X176582Y172046D01*
X176523Y171971D01*
X176462Y171856D01*
X176392Y171746D01*
X176355Y171658D01*
X176310Y171574D01*
X176270Y171450D01*
X176221Y171330D01*
X176201Y171236D01*
X176171Y171146D01*
X176153Y171017D01*
X176126Y170890D01*
X176118Y170760D01*
X176110Y170699D01*
X176111Y170655D01*
X176107Y170578D01*
X176107Y157186D01*
X175214Y156293D01*
X157186Y156293D01*
X156293Y157186D01*
X156293Y172380D01*
X156290Y172415D01*
X156292Y172449D01*
X156270Y172638D01*
X156253Y172829D01*
X156244Y172862D01*
X156240Y172896D01*
X156185Y173079D01*
X156135Y173263D01*
X156120Y173294D01*
X156110Y173327D01*
X156023Y173498D01*
X155941Y173670D01*
X155921Y173698D01*
X155906Y173729D01*
X155790Y173881D01*
X155679Y174036D01*
X155654Y174060D01*
X155634Y174087D01*
X155494Y174216D01*
X155357Y174350D01*
X155328Y174369D01*
X155302Y174393D01*
X155141Y174495D01*
X154984Y174602D01*
X154952Y174616D01*
X154923Y174634D01*
X154746Y174707D01*
X154572Y174784D01*
X154538Y174792D01*
X154506Y174805D01*
X154319Y174845D01*
X154134Y174891D01*
X154100Y174893D01*
X154066Y174900D01*
X153754Y174919D01*
X152221Y174919D01*
X152092Y174908D01*
X151962Y174906D01*
X151868Y174888D01*
X151773Y174879D01*
X151647Y174845D01*
X151520Y174820D01*
X151430Y174786D01*
X151338Y174761D01*
X151221Y174705D01*
X151100Y174658D01*
X151018Y174608D01*
X150932Y174567D01*
X150826Y174492D01*
X150715Y174424D01*
X150643Y174361D01*
X150566Y174305D01*
X150475Y174212D01*
X150378Y174126D01*
X150318Y174051D01*
X150252Y173983D01*
X150179Y173875D01*
X150098Y173773D01*
X150053Y173689D01*
X150000Y173610D01*
X149947Y173491D01*
X149885Y173376D01*
X149856Y173285D01*
X149817Y173198D01*
X149786Y173071D01*
X149746Y172948D01*
X149733Y172853D01*
X149711Y172760D01*
X149703Y172631D01*
X149685Y172502D01*
X149689Y172406D01*
X149683Y172311D01*
X149698Y172182D01*
X149703Y172052D01*
X149724Y171959D01*
X149735Y171864D01*
X149773Y171739D01*
X149801Y171612D01*
X149838Y171524D01*
X149865Y171433D01*
X149924Y171317D01*
X149974Y171197D01*
X150026Y171117D01*
X150070Y171031D01*
X150148Y170928D01*
X150219Y170819D01*
X150305Y170721D01*
X150342Y170673D01*
X150375Y170642D01*
X150426Y170584D01*
X150707Y170303D01*
X150707Y162097D01*
X144903Y156293D01*
X136697Y156293D01*
X130893Y162097D01*
X130893Y170303D01*
X131174Y170584D01*
X131258Y170684D01*
X131348Y170777D01*
X131402Y170857D01*
X131463Y170930D01*
X131528Y171043D01*
X131600Y171150D01*
X131639Y171238D01*
X131687Y171321D01*
X131730Y171443D01*
X131783Y171562D01*
X131805Y171655D01*
X131837Y171745D01*
X131859Y171873D01*
X131889Y172000D01*
X131895Y172095D01*
X131911Y172189D01*
X131909Y172319D01*
X131917Y172449D01*
X131906Y172544D01*
X131905Y172639D01*
X131880Y172767D01*
X131865Y172896D01*
X131837Y172988D01*
X131819Y173082D01*
X131772Y173203D01*
X131735Y173327D01*
X131691Y173413D01*
X131657Y173502D01*
X131589Y173613D01*
X131530Y173729D01*
X131473Y173805D01*
X131423Y173886D01*
X131337Y173984D01*
X131258Y174087D01*
X131188Y174152D01*
X131125Y174224D01*
X131023Y174304D01*
X130927Y174393D01*
X130847Y174444D01*
X130772Y174503D01*
X130657Y174565D01*
X130547Y174634D01*
X130459Y174671D01*
X130375Y174716D01*
X130251Y174756D01*
X130131Y174805D01*
X130037Y174825D01*
X129947Y174855D01*
X129818Y174873D01*
X129691Y174900D01*
X129561Y174908D01*
X129501Y174916D01*
X129456Y174915D01*
X129379Y174919D01*
X126821Y174919D01*
X126692Y174908D01*
X126562Y174906D01*
X126468Y174888D01*
X126373Y174879D01*
X126247Y174845D01*
X126120Y174820D01*
X126030Y174786D01*
X125938Y174761D01*
X125821Y174705D01*
X125700Y174658D01*
X125618Y174608D01*
X125532Y174567D01*
X125426Y174492D01*
X125315Y174424D01*
X125243Y174361D01*
X125166Y174305D01*
X125075Y174212D01*
X124978Y174126D01*
X124918Y174051D01*
X124852Y173983D01*
X124779Y173875D01*
X124698Y173773D01*
X124653Y173689D01*
X124600Y173610D01*
X124547Y173491D01*
X124485Y173376D01*
X124456Y173285D01*
X124417Y173198D01*
X124386Y173071D01*
X124346Y172948D01*
X124333Y172853D01*
X124311Y172760D01*
X124303Y172631D01*
X124285Y172502D01*
X124289Y172406D01*
X124283Y172311D01*
X124298Y172182D01*
X124303Y172052D01*
X124324Y171959D01*
X124335Y171864D01*
X124373Y171739D01*
X124401Y171612D01*
X124438Y171524D01*
X124465Y171433D01*
X124524Y171317D01*
X124574Y171197D01*
X124626Y171117D01*
X124670Y171031D01*
X124748Y170928D01*
X124819Y170819D01*
X124905Y170721D01*
X124942Y170673D01*
X124975Y170642D01*
X125026Y170584D01*
X125307Y170303D01*
X125307Y162097D01*
X119503Y156293D01*
X111297Y156293D01*
X105493Y162097D01*
X105493Y170303D01*
X105774Y170584D01*
X105858Y170684D01*
X105948Y170777D01*
X106002Y170857D01*
X106063Y170930D01*
X106128Y171043D01*
X106200Y171150D01*
X106239Y171238D01*
X106287Y171321D01*
X106330Y171443D01*
X106383Y171562D01*
X106405Y171655D01*
X106437Y171745D01*
X106459Y171873D01*
X106489Y172000D01*
X106495Y172095D01*
X106511Y172189D01*
X106509Y172319D01*
X106517Y172449D01*
X106506Y172544D01*
X106505Y172639D01*
X106480Y172767D01*
X106465Y172896D01*
X106437Y172988D01*
X106419Y173082D01*
X106372Y173203D01*
X106335Y173327D01*
X106291Y173413D01*
X106257Y173502D01*
X106189Y173613D01*
X106130Y173729D01*
X106073Y173805D01*
X106023Y173886D01*
X105937Y173984D01*
X105858Y174087D01*
X105788Y174152D01*
X105725Y174224D01*
X105623Y174304D01*
X105527Y174393D01*
X105447Y174444D01*
X105372Y174503D01*
X105257Y174565D01*
X105147Y174634D01*
X105059Y174671D01*
X104975Y174716D01*
X104851Y174756D01*
X104731Y174805D01*
X104637Y174825D01*
X104547Y174855D01*
X104418Y174873D01*
X104291Y174900D01*
X104161Y174908D01*
X104101Y174916D01*
X104056Y174915D01*
X103979Y174919D01*
X101421Y174919D01*
X101292Y174908D01*
X101162Y174906D01*
X101068Y174888D01*
X100973Y174879D01*
X100847Y174845D01*
X100720Y174820D01*
X100630Y174786D01*
X100538Y174761D01*
X100421Y174705D01*
X100300Y174658D01*
X100218Y174608D01*
X100132Y174567D01*
X100026Y174492D01*
X99915Y174424D01*
X99843Y174361D01*
X99766Y174305D01*
X99675Y174212D01*
X99578Y174126D01*
X99518Y174051D01*
X99452Y173983D01*
X99379Y173875D01*
X99298Y173773D01*
X99253Y173689D01*
X99200Y173610D01*
X99147Y173491D01*
X99085Y173376D01*
X99056Y173285D01*
X99017Y173198D01*
X98986Y173071D01*
X98946Y172948D01*
X98933Y172853D01*
X98911Y172760D01*
X98903Y172631D01*
X98885Y172502D01*
X98889Y172406D01*
X98883Y172311D01*
X98898Y172182D01*
X98903Y172052D01*
X98924Y171959D01*
X98935Y171864D01*
X98973Y171739D01*
X99001Y171612D01*
X99038Y171524D01*
X99065Y171433D01*
X99124Y171317D01*
X99174Y171197D01*
X99226Y171117D01*
X99270Y171031D01*
X99348Y170928D01*
X99419Y170819D01*
X99505Y170721D01*
X99542Y170673D01*
X99575Y170642D01*
X99626Y170584D01*
X99907Y170303D01*
X99907Y162097D01*
X94103Y156293D01*
X85897Y156293D01*
X80093Y162097D01*
X80093Y170303D01*
X80374Y170584D01*
X80458Y170684D01*
X80548Y170777D01*
X80602Y170857D01*
X80663Y170930D01*
X80728Y171043D01*
X80800Y171150D01*
X80839Y171238D01*
X80887Y171321D01*
X80930Y171443D01*
X80983Y171562D01*
X81005Y171655D01*
X81037Y171745D01*
X81059Y171873D01*
X81089Y172000D01*
X81095Y172095D01*
X81111Y172189D01*
X81109Y172319D01*
X81117Y172449D01*
X81106Y172544D01*
X81105Y172639D01*
X81080Y172767D01*
X81065Y172896D01*
X81037Y172988D01*
X81019Y173082D01*
X80972Y173203D01*
X80935Y173327D01*
X80891Y173413D01*
X80857Y173502D01*
X80789Y173613D01*
X80730Y173729D01*
X80673Y173805D01*
X80623Y173886D01*
X80537Y173984D01*
X80458Y174087D01*
X80388Y174152D01*
X80325Y174224D01*
X80223Y174304D01*
X80127Y174393D01*
X80047Y174444D01*
X79972Y174503D01*
X79857Y174565D01*
X79747Y174634D01*
X79659Y174671D01*
X79575Y174716D01*
X79451Y174756D01*
X79331Y174805D01*
X79237Y174825D01*
X79147Y174855D01*
X79018Y174873D01*
X78891Y174900D01*
X78761Y174908D01*
X78701Y174916D01*
X78656Y174915D01*
X78579Y174919D01*
X76021Y174919D01*
X75892Y174908D01*
X75762Y174906D01*
X75668Y174888D01*
X75573Y174879D01*
X75447Y174845D01*
X75320Y174820D01*
X75230Y174786D01*
X75138Y174761D01*
X75021Y174705D01*
X74900Y174658D01*
X74818Y174608D01*
X74732Y174567D01*
X74626Y174492D01*
X74515Y174424D01*
X74443Y174361D01*
X74366Y174305D01*
X74275Y174212D01*
X74178Y174126D01*
X74118Y174051D01*
X74052Y173983D01*
X73979Y173875D01*
X73898Y173773D01*
X73853Y173689D01*
X73800Y173610D01*
X73747Y173491D01*
X73685Y173376D01*
X73656Y173285D01*
X73617Y173198D01*
X73586Y173071D01*
X73546Y172948D01*
X73533Y172853D01*
X73511Y172760D01*
X73503Y172631D01*
X73485Y172502D01*
X73489Y172406D01*
X73483Y172311D01*
X73498Y172182D01*
X73503Y172052D01*
X73524Y171959D01*
X73535Y171864D01*
X73573Y171739D01*
X73601Y171612D01*
X73638Y171524D01*
X73665Y171433D01*
X73724Y171317D01*
X73774Y171197D01*
X73826Y171117D01*
X73870Y171031D01*
X73948Y170928D01*
X74019Y170819D01*
X74105Y170721D01*
X74142Y170673D01*
X74175Y170642D01*
X74226Y170584D01*
X74507Y170303D01*
X74507Y162097D01*
X68703Y156293D01*
X60497Y156293D01*
X55492Y161298D01*
X55465Y161321D01*
X55442Y161346D01*
X55293Y161464D01*
X55146Y161587D01*
X55116Y161604D01*
X55089Y161626D01*
X54921Y161716D01*
X54755Y161810D01*
X54723Y161822D01*
X54692Y161838D01*
X54511Y161897D01*
X54331Y161961D01*
X54297Y161967D01*
X54264Y161978D01*
X54075Y162004D01*
X53887Y162035D01*
X53852Y162034D01*
X53818Y162039D01*
X53627Y162031D01*
X53437Y162029D01*
X53403Y162022D01*
X53368Y162021D01*
X53182Y161979D01*
X52994Y161943D01*
X52962Y161931D01*
X52928Y161923D01*
X52753Y161850D01*
X52574Y161781D01*
X52545Y161763D01*
X52513Y161749D01*
X52353Y161646D01*
X52190Y161547D01*
X52164Y161524D01*
X52135Y161505D01*
X51901Y161298D01*
X44356Y153753D01*
X41739Y153753D01*
X41739Y166200D01*
X41736Y166234D01*
X41738Y166269D01*
X41716Y166458D01*
X41699Y166648D01*
X41690Y166682D01*
X41686Y166716D01*
X41631Y166899D01*
X41581Y167083D01*
X41566Y167114D01*
X41556Y167147D01*
X41469Y167318D01*
X41388Y167489D01*
X41367Y167517D01*
X41352Y167548D01*
X41236Y167700D01*
X41125Y167855D01*
X41101Y167879D01*
X41080Y167907D01*
X40940Y168036D01*
X40803Y168169D01*
X40774Y168189D01*
X40749Y168212D01*
X40588Y168315D01*
X40430Y168421D01*
X40398Y168435D01*
X40369Y168454D01*
X40192Y168526D01*
X40018Y168604D01*
X39984Y168612D01*
X39952Y168625D01*
X39766Y168665D01*
X39580Y168710D01*
X39546Y168712D01*
X39512Y168720D01*
X39200Y168739D01*
X39165Y168736D01*
X39131Y168738D01*
X38941Y168716D01*
X38751Y168699D01*
X38718Y168690D01*
X38684Y168686D01*
X38501Y168631D01*
X38317Y168580D01*
X38286Y168566D01*
X38253Y168556D01*
X38082Y168469D01*
X37910Y168387D01*
X37882Y168367D01*
X37851Y168351D01*
X37699Y168236D01*
X37544Y168125D01*
X37520Y168100D01*
X37492Y168079D01*
X37363Y167939D01*
X37230Y167802D01*
X37211Y167774D01*
X37187Y167748D01*
X37085Y167587D01*
X36978Y167429D01*
X36964Y167398D01*
X36945Y167368D01*
X36873Y167192D01*
X36796Y167017D01*
X36788Y166984D01*
X36775Y166952D01*
X36734Y166765D01*
X36689Y166580D01*
X36687Y166546D01*
X36680Y166512D01*
X36661Y166200D01*
X36661Y153753D01*
X34044Y153753D01*
X26499Y161298D01*
X26473Y161321D01*
X26450Y161346D01*
X26301Y161464D01*
X26154Y161587D01*
X26124Y161604D01*
X26097Y161626D01*
X25929Y161716D01*
X25763Y161810D01*
X25731Y161822D01*
X25700Y161838D01*
X25519Y161897D01*
X25339Y161961D01*
X25305Y161967D01*
X25272Y161978D01*
X25083Y162004D01*
X24895Y162035D01*
X24860Y162034D01*
X24826Y162039D01*
X24635Y162031D01*
X24444Y162029D01*
X24410Y162022D01*
X24376Y162021D01*
X24190Y161979D01*
X24002Y161943D01*
X23970Y161931D01*
X23936Y161923D01*
X23761Y161850D01*
X23582Y161781D01*
X23553Y161763D01*
X23521Y161749D01*
X23361Y161646D01*
X23198Y161547D01*
X23172Y161524D01*
X23143Y161505D01*
X22908Y161298D01*
X17903Y156293D01*
X9697Y156293D01*
X9416Y156574D01*
X9316Y156658D01*
X9223Y156748D01*
X9143Y156802D01*
X9070Y156863D01*
X8957Y156928D01*
X8850Y157000D01*
X8762Y157039D01*
X8679Y157087D01*
X8557Y157130D01*
X8438Y157183D01*
X8345Y157205D01*
X8255Y157237D01*
X8127Y157259D01*
X8000Y157289D01*
X7905Y157295D01*
X7811Y157311D01*
X7681Y157309D01*
X7551Y157317D01*
X7456Y157306D01*
X7361Y157305D01*
X7233Y157280D01*
X7104Y157265D01*
X7012Y157237D01*
X6918Y157219D01*
X6797Y157172D01*
X6673Y157135D01*
X6587Y157091D01*
X6498Y157057D01*
X6387Y156989D01*
X6271Y156930D01*
X6195Y156873D01*
X6114Y156823D01*
X6016Y156737D01*
X5913Y156658D01*
X5848Y156588D01*
X5776Y156525D01*
X5696Y156423D01*
X5607Y156327D01*
X5556Y156247D01*
X5497Y156172D01*
X5435Y156057D01*
X5366Y155947D01*
X5329Y155859D01*
X5284Y155775D01*
X5244Y155651D01*
X5195Y155531D01*
X5175Y155437D01*
X5145Y155347D01*
X5127Y155218D01*
X5100Y155091D01*
X5092Y154961D01*
X5084Y154901D01*
X5085Y154856D01*
X5081Y154779D01*
X5081Y25221D01*
X5092Y25092D01*
X5094Y24962D01*
X5112Y24868D01*
X5121Y24773D01*
X5155Y24647D01*
X5180Y24520D01*
X5214Y24430D01*
X5239Y24338D01*
X5295Y24221D01*
X5342Y24100D01*
X5392Y24018D01*
X5433Y23932D01*
X5508Y23826D01*
X5576Y23715D01*
X5639Y23643D01*
X5695Y23566D01*
X5788Y23475D01*
X5874Y23378D01*
X5949Y23318D01*
X6017Y23252D01*
X6125Y23179D01*
X6227Y23098D01*
X6311Y23053D01*
X6390Y23000D01*
X6509Y22947D01*
X6624Y22885D01*
X6715Y22856D01*
X6802Y22817D01*
X6929Y22786D01*
X7052Y22746D01*
X7147Y22733D01*
X7240Y22711D01*
X7369Y22703D01*
X7498Y22685D01*
X7594Y22689D01*
X7689Y22683D01*
X7818Y22698D01*
G37*
%LPC*%
G36*
X76609Y64069D02*
X76609Y64069D01*
X74742Y64843D01*
X73313Y66272D01*
X72539Y68139D01*
X72539Y112161D01*
X73313Y114028D01*
X74742Y115457D01*
X76609Y116231D01*
X140999Y116231D01*
X141081Y116238D01*
X141163Y116236D01*
X141305Y116258D01*
X141447Y116271D01*
X141527Y116292D01*
X141608Y116305D01*
X141744Y116351D01*
X141882Y116389D01*
X141956Y116424D01*
X142034Y116451D01*
X142160Y116521D01*
X142288Y116583D01*
X142355Y116630D01*
X142427Y116671D01*
X142538Y116761D01*
X142655Y116845D01*
X142712Y116904D01*
X142776Y116956D01*
X142869Y117065D01*
X142969Y117167D01*
X143015Y117236D01*
X143068Y117298D01*
X143140Y117422D01*
X143221Y117540D01*
X143254Y117616D01*
X143296Y117687D01*
X143345Y117821D01*
X143403Y117952D01*
X143422Y118032D01*
X143451Y118110D01*
X143476Y118251D01*
X143510Y118390D01*
X143515Y118472D01*
X143529Y118553D01*
X143528Y118696D01*
X143537Y118839D01*
X143528Y118921D01*
X143527Y119003D01*
X143502Y119144D01*
X143485Y119286D01*
X143461Y119365D01*
X143447Y119446D01*
X143367Y119679D01*
X143355Y119717D01*
X143350Y119727D01*
X143345Y119742D01*
X142968Y120651D01*
X149860Y120651D01*
X156752Y120651D01*
X156363Y119714D01*
X156101Y119321D01*
X156073Y119269D01*
X156038Y119222D01*
X155965Y119072D01*
X155885Y118926D01*
X155866Y118870D01*
X155841Y118817D01*
X155795Y118657D01*
X155742Y118499D01*
X155734Y118441D01*
X155718Y118384D01*
X155701Y118218D01*
X155677Y118053D01*
X155679Y117995D01*
X155673Y117936D01*
X155686Y117770D01*
X155691Y117603D01*
X155704Y117546D01*
X155708Y117487D01*
X155750Y117326D01*
X155785Y117163D01*
X155807Y117108D01*
X155822Y117052D01*
X155892Y116900D01*
X155955Y116746D01*
X155987Y116696D01*
X156011Y116643D01*
X156107Y116506D01*
X156197Y116365D01*
X156236Y116322D01*
X156270Y116274D01*
X156388Y116157D01*
X156501Y116034D01*
X156548Y115998D01*
X156589Y115957D01*
X156727Y115862D01*
X156859Y115761D01*
X156911Y115734D01*
X156960Y115701D01*
X157240Y115564D01*
X157498Y115457D01*
X158927Y114028D01*
X159701Y112161D01*
X159701Y68139D01*
X158927Y66272D01*
X157498Y64843D01*
X155631Y64069D01*
X76609Y64069D01*
G37*
%LPD*%
%LPC*%
G36*
X152399Y125729D02*
X152399Y125729D01*
X152399Y130082D01*
X153336Y129693D01*
X154538Y128890D01*
X155560Y127868D01*
X156363Y126666D01*
X156752Y125729D01*
X152399Y125729D01*
G37*
%LPD*%
%LPC*%
G36*
X261619Y54609D02*
X261619Y54609D01*
X261619Y58962D01*
X262556Y58573D01*
X263758Y57770D01*
X264780Y56748D01*
X265583Y55546D01*
X265972Y54609D01*
X261619Y54609D01*
G37*
%LPD*%
%LPC*%
G36*
X142968Y125729D02*
X142968Y125729D01*
X143357Y126666D01*
X144160Y127868D01*
X145182Y128890D01*
X146384Y129693D01*
X147321Y130082D01*
X147321Y125729D01*
X142968Y125729D01*
G37*
%LPD*%
%LPC*%
G36*
X252188Y54609D02*
X252188Y54609D01*
X252577Y55546D01*
X253380Y56748D01*
X254402Y57770D01*
X255604Y58573D01*
X256541Y58962D01*
X256541Y54609D01*
X252188Y54609D01*
G37*
%LPD*%
D10*
X0Y0D02*
X180000Y0D01*
X220000Y40000D02*
X760000Y40000D01*
X760967Y40012D01*
X761933Y40047D01*
X762897Y40105D01*
X763861Y40187D01*
X764821Y40292D01*
X765780Y40420D01*
X766734Y40571D01*
X767685Y40745D01*
X768631Y40942D01*
X769573Y41162D01*
X770508Y41405D01*
X771438Y41670D01*
X772361Y41958D01*
X773276Y42268D01*
X774184Y42599D01*
X775084Y42953D01*
X775975Y43328D01*
X776856Y43725D01*
X777728Y44143D01*
X778589Y44582D01*
X779439Y45041D01*
X780278Y45521D01*
X781106Y46021D01*
X781921Y46541D01*
X782723Y47081D01*
X783511Y47639D01*
X784287Y48217D01*
X785047Y48813D01*
X785794Y49427D01*
X786525Y50060D01*
X787241Y50709D01*
X787940Y51376D01*
X788624Y52060D01*
X789291Y52759D01*
X789940Y53475D01*
X790573Y54206D01*
X791187Y54953D01*
X791783Y55713D01*
X792361Y56489D01*
X792919Y57277D01*
X793459Y58079D01*
X793979Y58894D01*
X794479Y59722D01*
X794959Y60561D01*
X795418Y61411D01*
X795857Y62272D01*
X796275Y63144D01*
X796672Y64025D01*
X797047Y64916D01*
X797401Y65816D01*
X797732Y66724D01*
X798042Y67639D01*
X798330Y68562D01*
X798595Y69492D01*
X798838Y70427D01*
X799058Y71369D01*
X799255Y72315D01*
X799429Y73266D01*
X799580Y74220D01*
X799708Y75179D01*
X799813Y76139D01*
X799895Y77103D01*
X799953Y78067D01*
X799988Y79033D01*
X800000Y80000D01*
X800000Y100000D01*
X799988Y100967D01*
X799953Y101933D01*
X799895Y102897D01*
X799813Y103861D01*
X799708Y104821D01*
X799580Y105780D01*
X799429Y106734D01*
X799255Y107685D01*
X799058Y108631D01*
X798838Y109573D01*
X798595Y110508D01*
X798330Y111438D01*
X798042Y112361D01*
X797732Y113276D01*
X797401Y114184D01*
X797047Y115084D01*
X796672Y115975D01*
X796275Y116856D01*
X795857Y117728D01*
X795418Y118589D01*
X794959Y119439D01*
X794479Y120278D01*
X793979Y121106D01*
X793459Y121921D01*
X792919Y122723D01*
X792361Y123511D01*
X791783Y124287D01*
X791187Y125047D01*
X790573Y125794D01*
X789940Y126525D01*
X789291Y127241D01*
X788624Y127940D01*
X787940Y128624D01*
X787241Y129291D01*
X786525Y129940D01*
X785794Y130573D01*
X785047Y131187D01*
X784287Y131783D01*
X783511Y132361D01*
X782723Y132919D01*
X781921Y133459D01*
X781106Y133979D01*
X780278Y134479D01*
X779439Y134959D01*
X778589Y135418D01*
X777728Y135857D01*
X776856Y136275D01*
X775975Y136672D01*
X775084Y137047D01*
X774184Y137401D01*
X773276Y137732D01*
X772361Y138042D01*
X771438Y138330D01*
X770508Y138595D01*
X769573Y138838D01*
X768631Y139058D01*
X767685Y139255D01*
X766734Y139429D01*
X765780Y139580D01*
X764821Y139708D01*
X763861Y139813D01*
X762897Y139895D01*
X761933Y139953D01*
X760967Y139988D01*
X760000Y140000D01*
X220000Y140000D01*
X180000Y180000D02*
X0Y180000D01*
X0Y0D01*
X180000Y180000D02*
X220000Y140000D01*
X220000Y40000D02*
X180000Y0D01*
D11*
X617800Y51900D03*
X617800Y77300D03*
X617800Y102700D03*
X617800Y128100D03*
D10*
X154620Y69150D02*
X77620Y69150D01*
X154620Y69150D02*
X154620Y111150D01*
X77620Y111150D01*
X77620Y69150D01*
D12*
X166200Y166200D03*
D13*
X140800Y166200D03*
X115400Y166200D03*
X90000Y166200D03*
X64600Y166200D03*
X39200Y166200D03*
X13800Y166200D03*
D12*
X166200Y13800D03*
D13*
X140800Y13800D03*
X115400Y13800D03*
X90000Y13800D03*
X64600Y13800D03*
X39200Y13800D03*
X13800Y13800D03*
D14*
X676600Y128000D03*
D15*
X633000Y128000D01*
D14*
X676600Y102600D03*
D15*
X674400Y102600D01*
D16*
X674000Y103000D01*
D15*
X13800Y16340D02*
X13800Y13800D01*
X177800Y38100D02*
X242570Y102870D01*
X617630Y102870D01*
X617800Y102700D01*
X35560Y38100D02*
X13800Y16340D01*
X35560Y38100D02*
X177800Y38100D01*
X617800Y102700D02*
X676600Y102600D01*
D14*
X676600Y51800D03*
D15*
X674200Y51800D01*
D16*
X673000Y53000D01*
D15*
X617800Y51900D02*
X228140Y51900D01*
X39370Y166030D02*
X39200Y166200D01*
X39370Y166030D02*
X39370Y148590D01*
X64770Y123190D01*
X149860Y123190D01*
D17*
X149860Y123190D03*
X259080Y52070D03*
D15*
X617800Y51900D02*
X676600Y51800D01*
X207010Y125730D02*
X200640Y132100D01*
X207010Y125730D02*
X622300Y125730D01*
X623570Y127000D01*
D17*
X200640Y132100D03*
D14*
X676600Y77200D03*
D15*
X617800Y77300D01*
M02*
