G04 EAGLE Gerber RS-274X export*
G75*
%MOMM*%
%FSLAX34Y34*%
%LPD*%
%INSilk top*%
%IPPOS*%
%AMOC8*
5,1,8,0,0,1.08239X$1,22.5*%
G01*
%ADD10C,0.000000*%
%ADD11C,0.152400*%
%ADD12C,0.076200*%
%ADD13C,0.050800*%
%ADD14C,0.127000*%
%ADD15C,0.101600*%


D10*
X0Y0D02*
X180000Y0D01*
X220000Y40000D02*
X760000Y40000D01*
X760967Y40012D01*
X761933Y40047D01*
X762897Y40105D01*
X763861Y40187D01*
X764821Y40292D01*
X765780Y40420D01*
X766734Y40571D01*
X767685Y40745D01*
X768631Y40942D01*
X769573Y41162D01*
X770508Y41405D01*
X771438Y41670D01*
X772361Y41958D01*
X773276Y42268D01*
X774184Y42599D01*
X775084Y42953D01*
X775975Y43328D01*
X776856Y43725D01*
X777728Y44143D01*
X778589Y44582D01*
X779439Y45041D01*
X780278Y45521D01*
X781106Y46021D01*
X781921Y46541D01*
X782723Y47081D01*
X783511Y47639D01*
X784287Y48217D01*
X785047Y48813D01*
X785794Y49427D01*
X786525Y50060D01*
X787241Y50709D01*
X787940Y51376D01*
X788624Y52060D01*
X789291Y52759D01*
X789940Y53475D01*
X790573Y54206D01*
X791187Y54953D01*
X791783Y55713D01*
X792361Y56489D01*
X792919Y57277D01*
X793459Y58079D01*
X793979Y58894D01*
X794479Y59722D01*
X794959Y60561D01*
X795418Y61411D01*
X795857Y62272D01*
X796275Y63144D01*
X796672Y64025D01*
X797047Y64916D01*
X797401Y65816D01*
X797732Y66724D01*
X798042Y67639D01*
X798330Y68562D01*
X798595Y69492D01*
X798838Y70427D01*
X799058Y71369D01*
X799255Y72315D01*
X799429Y73266D01*
X799580Y74220D01*
X799708Y75179D01*
X799813Y76139D01*
X799895Y77103D01*
X799953Y78067D01*
X799988Y79033D01*
X800000Y80000D01*
X800000Y100000D01*
X799988Y100967D01*
X799953Y101933D01*
X799895Y102897D01*
X799813Y103861D01*
X799708Y104821D01*
X799580Y105780D01*
X799429Y106734D01*
X799255Y107685D01*
X799058Y108631D01*
X798838Y109573D01*
X798595Y110508D01*
X798330Y111438D01*
X798042Y112361D01*
X797732Y113276D01*
X797401Y114184D01*
X797047Y115084D01*
X796672Y115975D01*
X796275Y116856D01*
X795857Y117728D01*
X795418Y118589D01*
X794959Y119439D01*
X794479Y120278D01*
X793979Y121106D01*
X793459Y121921D01*
X792919Y122723D01*
X792361Y123511D01*
X791783Y124287D01*
X791187Y125047D01*
X790573Y125794D01*
X789940Y126525D01*
X789291Y127241D01*
X788624Y127940D01*
X787940Y128624D01*
X787241Y129291D01*
X786525Y129940D01*
X785794Y130573D01*
X785047Y131187D01*
X784287Y131783D01*
X783511Y132361D01*
X782723Y132919D01*
X781921Y133459D01*
X781106Y133979D01*
X780278Y134479D01*
X779439Y134959D01*
X778589Y135418D01*
X777728Y135857D01*
X776856Y136275D01*
X775975Y136672D01*
X775084Y137047D01*
X774184Y137401D01*
X773276Y137732D01*
X772361Y138042D01*
X771438Y138330D01*
X770508Y138595D01*
X769573Y138838D01*
X768631Y139058D01*
X767685Y139255D01*
X766734Y139429D01*
X765780Y139580D01*
X764821Y139708D01*
X763861Y139813D01*
X762897Y139895D01*
X761933Y139953D01*
X760967Y139988D01*
X760000Y140000D01*
X220000Y140000D01*
X180000Y180000D02*
X0Y180000D01*
X0Y0D01*
X180000Y180000D02*
X220000Y140000D01*
X220000Y40000D02*
X180000Y0D01*
D11*
X196316Y81872D02*
X207153Y98128D01*
X196316Y98128D02*
X207153Y81872D01*
X214240Y81872D02*
X214240Y98128D01*
X212433Y81872D02*
X216046Y81872D01*
X216046Y98128D02*
X212433Y98128D01*
X226745Y98128D02*
X221326Y81872D01*
X232163Y81872D02*
X226745Y98128D01*
X230809Y85936D02*
X222681Y85936D01*
X237860Y86388D02*
X237860Y93612D01*
X237862Y93745D01*
X237868Y93877D01*
X237878Y94009D01*
X237891Y94141D01*
X237909Y94273D01*
X237930Y94403D01*
X237955Y94534D01*
X237984Y94663D01*
X238017Y94791D01*
X238053Y94919D01*
X238093Y95045D01*
X238137Y95170D01*
X238185Y95294D01*
X238236Y95416D01*
X238291Y95537D01*
X238349Y95656D01*
X238411Y95774D01*
X238476Y95889D01*
X238545Y96003D01*
X238616Y96114D01*
X238692Y96223D01*
X238770Y96330D01*
X238851Y96435D01*
X238936Y96537D01*
X239023Y96637D01*
X239113Y96734D01*
X239206Y96829D01*
X239302Y96920D01*
X239400Y97009D01*
X239501Y97095D01*
X239605Y97178D01*
X239711Y97258D01*
X239819Y97334D01*
X239929Y97408D01*
X240042Y97478D01*
X240156Y97545D01*
X240273Y97608D01*
X240391Y97668D01*
X240511Y97725D01*
X240633Y97778D01*
X240756Y97827D01*
X240880Y97873D01*
X241006Y97915D01*
X241133Y97953D01*
X241261Y97988D01*
X241390Y98019D01*
X241519Y98046D01*
X241650Y98069D01*
X241781Y98089D01*
X241913Y98104D01*
X242045Y98116D01*
X242177Y98124D01*
X242310Y98128D01*
X242442Y98128D01*
X242575Y98124D01*
X242707Y98116D01*
X242839Y98104D01*
X242971Y98089D01*
X243102Y98069D01*
X243233Y98046D01*
X243362Y98019D01*
X243491Y97988D01*
X243619Y97953D01*
X243746Y97915D01*
X243872Y97873D01*
X243996Y97827D01*
X244119Y97778D01*
X244241Y97725D01*
X244361Y97668D01*
X244479Y97608D01*
X244596Y97545D01*
X244710Y97478D01*
X244823Y97408D01*
X244933Y97334D01*
X245041Y97258D01*
X245147Y97178D01*
X245251Y97095D01*
X245352Y97009D01*
X245450Y96920D01*
X245546Y96829D01*
X245639Y96734D01*
X245729Y96637D01*
X245816Y96537D01*
X245901Y96435D01*
X245982Y96330D01*
X246060Y96223D01*
X246136Y96114D01*
X246207Y96003D01*
X246276Y95889D01*
X246341Y95774D01*
X246403Y95656D01*
X246461Y95537D01*
X246516Y95416D01*
X246567Y95294D01*
X246615Y95170D01*
X246659Y95045D01*
X246699Y94919D01*
X246735Y94791D01*
X246768Y94663D01*
X246797Y94534D01*
X246822Y94403D01*
X246843Y94273D01*
X246861Y94141D01*
X246874Y94009D01*
X246884Y93877D01*
X246890Y93745D01*
X246892Y93612D01*
X246891Y93612D02*
X246891Y86388D01*
X246892Y86388D02*
X246890Y86255D01*
X246884Y86123D01*
X246874Y85991D01*
X246861Y85859D01*
X246843Y85727D01*
X246822Y85597D01*
X246797Y85466D01*
X246768Y85337D01*
X246735Y85209D01*
X246699Y85081D01*
X246659Y84955D01*
X246615Y84830D01*
X246567Y84706D01*
X246516Y84584D01*
X246461Y84463D01*
X246403Y84344D01*
X246341Y84226D01*
X246276Y84111D01*
X246207Y83997D01*
X246136Y83886D01*
X246060Y83777D01*
X245982Y83670D01*
X245901Y83565D01*
X245816Y83463D01*
X245729Y83363D01*
X245639Y83266D01*
X245546Y83171D01*
X245450Y83080D01*
X245352Y82991D01*
X245251Y82905D01*
X245147Y82822D01*
X245041Y82742D01*
X244933Y82666D01*
X244823Y82592D01*
X244710Y82522D01*
X244596Y82455D01*
X244479Y82392D01*
X244361Y82332D01*
X244241Y82275D01*
X244119Y82222D01*
X243996Y82173D01*
X243872Y82127D01*
X243746Y82085D01*
X243619Y82047D01*
X243491Y82012D01*
X243362Y81981D01*
X243233Y81954D01*
X243102Y81931D01*
X242971Y81911D01*
X242839Y81896D01*
X242707Y81884D01*
X242575Y81876D01*
X242442Y81872D01*
X242310Y81872D01*
X242177Y81876D01*
X242045Y81884D01*
X241913Y81896D01*
X241781Y81911D01*
X241650Y81931D01*
X241519Y81954D01*
X241390Y81981D01*
X241261Y82012D01*
X241133Y82047D01*
X241006Y82085D01*
X240880Y82127D01*
X240756Y82173D01*
X240633Y82222D01*
X240511Y82275D01*
X240391Y82332D01*
X240273Y82392D01*
X240156Y82455D01*
X240042Y82522D01*
X239929Y82592D01*
X239819Y82666D01*
X239711Y82742D01*
X239605Y82822D01*
X239501Y82905D01*
X239400Y82991D01*
X239302Y83080D01*
X239206Y83171D01*
X239113Y83266D01*
X239023Y83363D01*
X238936Y83463D01*
X238851Y83565D01*
X238770Y83670D01*
X238692Y83777D01*
X238616Y83886D01*
X238545Y83997D01*
X238476Y84111D01*
X238411Y84226D01*
X238349Y84344D01*
X238291Y84463D01*
X238236Y84584D01*
X238185Y84706D01*
X238137Y84830D01*
X238093Y84955D01*
X238053Y85081D01*
X238017Y85209D01*
X237984Y85337D01*
X237955Y85466D01*
X237930Y85597D01*
X237909Y85727D01*
X237891Y85859D01*
X237878Y85991D01*
X237868Y86123D01*
X237862Y86255D01*
X237860Y86388D01*
X253630Y88194D02*
X264468Y88194D01*
X271819Y81872D02*
X271819Y98128D01*
X276335Y98128D01*
X276468Y98126D01*
X276600Y98120D01*
X276732Y98110D01*
X276864Y98097D01*
X276996Y98079D01*
X277126Y98058D01*
X277257Y98033D01*
X277386Y98004D01*
X277514Y97971D01*
X277642Y97935D01*
X277768Y97895D01*
X277893Y97851D01*
X278017Y97803D01*
X278139Y97752D01*
X278260Y97697D01*
X278379Y97639D01*
X278497Y97577D01*
X278612Y97512D01*
X278726Y97443D01*
X278837Y97372D01*
X278946Y97296D01*
X279053Y97218D01*
X279158Y97137D01*
X279260Y97052D01*
X279360Y96965D01*
X279457Y96875D01*
X279552Y96782D01*
X279643Y96686D01*
X279732Y96588D01*
X279818Y96487D01*
X279901Y96383D01*
X279981Y96277D01*
X280057Y96169D01*
X280131Y96059D01*
X280201Y95946D01*
X280268Y95832D01*
X280331Y95715D01*
X280391Y95597D01*
X280448Y95477D01*
X280501Y95355D01*
X280550Y95232D01*
X280596Y95108D01*
X280638Y94982D01*
X280676Y94855D01*
X280711Y94727D01*
X280742Y94598D01*
X280769Y94469D01*
X280792Y94338D01*
X280812Y94207D01*
X280827Y94075D01*
X280839Y93943D01*
X280847Y93811D01*
X280851Y93678D01*
X280851Y93546D01*
X280847Y93413D01*
X280839Y93281D01*
X280827Y93149D01*
X280812Y93017D01*
X280792Y92886D01*
X280769Y92755D01*
X280742Y92626D01*
X280711Y92497D01*
X280676Y92369D01*
X280638Y92242D01*
X280596Y92116D01*
X280550Y91992D01*
X280501Y91869D01*
X280448Y91747D01*
X280391Y91627D01*
X280331Y91509D01*
X280268Y91392D01*
X280201Y91278D01*
X280131Y91165D01*
X280057Y91055D01*
X279981Y90947D01*
X279901Y90841D01*
X279818Y90737D01*
X279732Y90636D01*
X279643Y90538D01*
X279552Y90442D01*
X279457Y90349D01*
X279360Y90259D01*
X279260Y90172D01*
X279158Y90087D01*
X279053Y90006D01*
X278946Y89928D01*
X278837Y89852D01*
X278726Y89781D01*
X278612Y89712D01*
X278497Y89647D01*
X278379Y89585D01*
X278260Y89527D01*
X278139Y89472D01*
X278017Y89421D01*
X277893Y89373D01*
X277768Y89329D01*
X277642Y89289D01*
X277514Y89253D01*
X277386Y89220D01*
X277257Y89191D01*
X277126Y89166D01*
X276996Y89145D01*
X276864Y89127D01*
X276732Y89114D01*
X276600Y89104D01*
X276468Y89098D01*
X276335Y89096D01*
X276335Y89097D02*
X271819Y89097D01*
X277238Y89097D02*
X280851Y81872D01*
X288091Y81872D02*
X288091Y98128D01*
X292607Y98128D01*
X292740Y98126D01*
X292872Y98120D01*
X293004Y98110D01*
X293136Y98097D01*
X293268Y98079D01*
X293398Y98058D01*
X293529Y98033D01*
X293658Y98004D01*
X293786Y97971D01*
X293914Y97935D01*
X294040Y97895D01*
X294165Y97851D01*
X294289Y97803D01*
X294411Y97752D01*
X294532Y97697D01*
X294651Y97639D01*
X294769Y97577D01*
X294884Y97512D01*
X294998Y97443D01*
X295109Y97372D01*
X295218Y97296D01*
X295325Y97218D01*
X295430Y97137D01*
X295532Y97052D01*
X295632Y96965D01*
X295729Y96875D01*
X295824Y96782D01*
X295915Y96686D01*
X296004Y96588D01*
X296090Y96487D01*
X296173Y96383D01*
X296253Y96277D01*
X296329Y96169D01*
X296403Y96059D01*
X296473Y95946D01*
X296540Y95832D01*
X296603Y95715D01*
X296663Y95597D01*
X296720Y95477D01*
X296773Y95355D01*
X296822Y95232D01*
X296868Y95108D01*
X296910Y94982D01*
X296948Y94855D01*
X296983Y94727D01*
X297014Y94598D01*
X297041Y94469D01*
X297064Y94338D01*
X297084Y94207D01*
X297099Y94075D01*
X297111Y93943D01*
X297119Y93811D01*
X297123Y93678D01*
X297123Y93546D01*
X297119Y93413D01*
X297111Y93281D01*
X297099Y93149D01*
X297084Y93017D01*
X297064Y92886D01*
X297041Y92755D01*
X297014Y92626D01*
X296983Y92497D01*
X296948Y92369D01*
X296910Y92242D01*
X296868Y92116D01*
X296822Y91992D01*
X296773Y91869D01*
X296720Y91747D01*
X296663Y91627D01*
X296603Y91509D01*
X296540Y91392D01*
X296473Y91278D01*
X296403Y91165D01*
X296329Y91055D01*
X296253Y90947D01*
X296173Y90841D01*
X296090Y90737D01*
X296004Y90636D01*
X295915Y90538D01*
X295824Y90442D01*
X295729Y90349D01*
X295632Y90259D01*
X295532Y90172D01*
X295430Y90087D01*
X295325Y90006D01*
X295218Y89928D01*
X295109Y89852D01*
X294998Y89781D01*
X294884Y89712D01*
X294769Y89647D01*
X294651Y89585D01*
X294532Y89527D01*
X294411Y89472D01*
X294289Y89421D01*
X294165Y89373D01*
X294040Y89329D01*
X293914Y89289D01*
X293786Y89253D01*
X293658Y89220D01*
X293529Y89191D01*
X293398Y89166D01*
X293268Y89145D01*
X293136Y89127D01*
X293004Y89114D01*
X292872Y89104D01*
X292740Y89098D01*
X292607Y89096D01*
X292607Y89097D02*
X288091Y89097D01*
X307957Y98128D02*
X308082Y98126D01*
X308207Y98120D01*
X308332Y98111D01*
X308456Y98097D01*
X308580Y98080D01*
X308704Y98059D01*
X308826Y98034D01*
X308948Y98005D01*
X309069Y97973D01*
X309189Y97937D01*
X309308Y97897D01*
X309425Y97854D01*
X309541Y97807D01*
X309656Y97756D01*
X309768Y97702D01*
X309880Y97644D01*
X309989Y97584D01*
X310096Y97519D01*
X310202Y97452D01*
X310305Y97381D01*
X310406Y97307D01*
X310505Y97230D01*
X310601Y97150D01*
X310695Y97067D01*
X310786Y96982D01*
X310875Y96893D01*
X310960Y96802D01*
X311043Y96708D01*
X311123Y96612D01*
X311200Y96513D01*
X311274Y96412D01*
X311345Y96309D01*
X311412Y96203D01*
X311477Y96096D01*
X311537Y95987D01*
X311595Y95875D01*
X311649Y95763D01*
X311700Y95648D01*
X311747Y95532D01*
X311790Y95415D01*
X311830Y95296D01*
X311866Y95176D01*
X311898Y95055D01*
X311927Y94933D01*
X311952Y94811D01*
X311973Y94687D01*
X311990Y94563D01*
X312004Y94439D01*
X312013Y94314D01*
X312019Y94189D01*
X312021Y94064D01*
X307957Y98128D02*
X307814Y98126D01*
X307672Y98120D01*
X307529Y98110D01*
X307387Y98097D01*
X307246Y98079D01*
X307104Y98058D01*
X306964Y98033D01*
X306824Y98004D01*
X306685Y97971D01*
X306547Y97934D01*
X306410Y97894D01*
X306275Y97850D01*
X306140Y97802D01*
X306007Y97750D01*
X305875Y97695D01*
X305745Y97636D01*
X305617Y97574D01*
X305490Y97508D01*
X305365Y97439D01*
X305242Y97367D01*
X305122Y97291D01*
X305003Y97212D01*
X304886Y97129D01*
X304772Y97044D01*
X304660Y96955D01*
X304551Y96864D01*
X304444Y96769D01*
X304339Y96672D01*
X304238Y96571D01*
X304139Y96468D01*
X304043Y96363D01*
X303950Y96254D01*
X303860Y96143D01*
X303773Y96030D01*
X303689Y95915D01*
X303609Y95797D01*
X303531Y95677D01*
X303457Y95555D01*
X303387Y95431D01*
X303319Y95305D01*
X303256Y95177D01*
X303195Y95048D01*
X303138Y94917D01*
X303085Y94785D01*
X303036Y94651D01*
X302990Y94516D01*
X310666Y90903D02*
X310760Y90995D01*
X310850Y91089D01*
X310938Y91186D01*
X311023Y91286D01*
X311105Y91388D01*
X311184Y91493D01*
X311259Y91600D01*
X311331Y91709D01*
X311400Y91820D01*
X311466Y91934D01*
X311528Y92049D01*
X311587Y92166D01*
X311642Y92285D01*
X311693Y92405D01*
X311741Y92527D01*
X311786Y92650D01*
X311826Y92774D01*
X311863Y92900D01*
X311896Y93027D01*
X311925Y93154D01*
X311951Y93283D01*
X311972Y93412D01*
X311990Y93542D01*
X312003Y93672D01*
X312013Y93802D01*
X312019Y93933D01*
X312021Y94064D01*
X310667Y90903D02*
X302990Y81872D01*
X312021Y81872D01*
X318622Y90000D02*
X318626Y90320D01*
X318637Y90639D01*
X318656Y90959D01*
X318683Y91277D01*
X318717Y91595D01*
X318759Y91912D01*
X318809Y92228D01*
X318866Y92543D01*
X318930Y92856D01*
X319002Y93168D01*
X319081Y93478D01*
X319168Y93785D01*
X319262Y94091D01*
X319363Y94394D01*
X319472Y94695D01*
X319587Y94993D01*
X319710Y95289D01*
X319840Y95581D01*
X319977Y95870D01*
X319976Y95871D02*
X320015Y95979D01*
X320058Y96086D01*
X320104Y96191D01*
X320155Y96295D01*
X320208Y96397D01*
X320265Y96497D01*
X320326Y96595D01*
X320390Y96690D01*
X320457Y96784D01*
X320528Y96875D01*
X320601Y96964D01*
X320678Y97050D01*
X320757Y97133D01*
X320839Y97214D01*
X320924Y97292D01*
X321012Y97366D01*
X321102Y97438D01*
X321194Y97506D01*
X321289Y97572D01*
X321386Y97634D01*
X321485Y97692D01*
X321587Y97748D01*
X321689Y97799D01*
X321794Y97847D01*
X321900Y97892D01*
X322008Y97933D01*
X322117Y97970D01*
X322227Y98003D01*
X322339Y98032D01*
X322451Y98058D01*
X322564Y98080D01*
X322678Y98097D01*
X322792Y98111D01*
X322907Y98121D01*
X323022Y98127D01*
X323137Y98129D01*
X323137Y98128D02*
X323252Y98126D01*
X323367Y98120D01*
X323482Y98110D01*
X323596Y98096D01*
X323710Y98079D01*
X323823Y98057D01*
X323935Y98031D01*
X324047Y98002D01*
X324157Y97969D01*
X324266Y97932D01*
X324374Y97891D01*
X324480Y97846D01*
X324585Y97798D01*
X324687Y97747D01*
X324788Y97691D01*
X324888Y97633D01*
X324985Y97571D01*
X325079Y97506D01*
X325172Y97437D01*
X325262Y97365D01*
X325350Y97291D01*
X325435Y97213D01*
X325517Y97132D01*
X325596Y97049D01*
X325673Y96963D01*
X325746Y96874D01*
X325817Y96783D01*
X325884Y96689D01*
X325948Y96594D01*
X326009Y96496D01*
X326066Y96396D01*
X326119Y96294D01*
X326170Y96190D01*
X326216Y96085D01*
X326259Y95978D01*
X326298Y95870D01*
X326435Y95581D01*
X326565Y95289D01*
X326688Y94993D01*
X326803Y94695D01*
X326912Y94394D01*
X327013Y94091D01*
X327107Y93785D01*
X327194Y93478D01*
X327273Y93168D01*
X327345Y92856D01*
X327409Y92543D01*
X327466Y92228D01*
X327516Y91912D01*
X327558Y91595D01*
X327592Y91277D01*
X327619Y90959D01*
X327638Y90639D01*
X327649Y90320D01*
X327653Y90000D01*
X318622Y90000D02*
X318626Y89680D01*
X318637Y89361D01*
X318656Y89041D01*
X318683Y88723D01*
X318717Y88405D01*
X318759Y88088D01*
X318809Y87772D01*
X318866Y87457D01*
X318930Y87144D01*
X319002Y86832D01*
X319081Y86522D01*
X319168Y86215D01*
X319262Y85909D01*
X319363Y85606D01*
X319472Y85305D01*
X319587Y85007D01*
X319710Y84711D01*
X319840Y84419D01*
X319977Y84130D01*
X319976Y84130D02*
X320015Y84022D01*
X320058Y83915D01*
X320104Y83810D01*
X320155Y83706D01*
X320208Y83604D01*
X320265Y83504D01*
X320326Y83406D01*
X320390Y83311D01*
X320457Y83217D01*
X320528Y83126D01*
X320601Y83037D01*
X320678Y82951D01*
X320757Y82868D01*
X320839Y82787D01*
X320924Y82709D01*
X321012Y82635D01*
X321102Y82563D01*
X321195Y82494D01*
X321289Y82429D01*
X321386Y82367D01*
X321486Y82309D01*
X321587Y82253D01*
X321689Y82202D01*
X321794Y82154D01*
X321900Y82109D01*
X322008Y82068D01*
X322117Y82031D01*
X322227Y81998D01*
X322339Y81969D01*
X322451Y81943D01*
X322564Y81921D01*
X322678Y81904D01*
X322792Y81890D01*
X322907Y81880D01*
X323022Y81874D01*
X323137Y81872D01*
X326297Y84130D02*
X326434Y84419D01*
X326564Y84711D01*
X326687Y85007D01*
X326802Y85305D01*
X326911Y85606D01*
X327012Y85909D01*
X327106Y86215D01*
X327193Y86522D01*
X327272Y86832D01*
X327344Y87144D01*
X327408Y87457D01*
X327465Y87772D01*
X327515Y88088D01*
X327557Y88405D01*
X327591Y88723D01*
X327618Y89041D01*
X327637Y89361D01*
X327648Y89680D01*
X327652Y90000D01*
X326298Y84130D02*
X326259Y84022D01*
X326216Y83915D01*
X326170Y83810D01*
X326119Y83706D01*
X326066Y83604D01*
X326009Y83504D01*
X325948Y83406D01*
X325884Y83311D01*
X325817Y83217D01*
X325746Y83126D01*
X325673Y83037D01*
X325596Y82951D01*
X325517Y82868D01*
X325435Y82787D01*
X325350Y82709D01*
X325262Y82635D01*
X325172Y82563D01*
X325079Y82494D01*
X324985Y82429D01*
X324888Y82367D01*
X324788Y82309D01*
X324687Y82253D01*
X324584Y82202D01*
X324480Y82154D01*
X324374Y82109D01*
X324266Y82068D01*
X324157Y82031D01*
X324047Y81998D01*
X323935Y81969D01*
X323823Y81943D01*
X323710Y81921D01*
X323596Y81904D01*
X323482Y81890D01*
X323367Y81880D01*
X323252Y81874D01*
X323137Y81872D01*
X319525Y85484D02*
X326750Y94516D01*
X337865Y98128D02*
X334253Y85484D01*
X343284Y85484D01*
X340575Y89097D02*
X340575Y81872D01*
X349884Y90000D02*
X349888Y90320D01*
X349899Y90639D01*
X349918Y90959D01*
X349945Y91277D01*
X349979Y91595D01*
X350021Y91912D01*
X350071Y92228D01*
X350128Y92543D01*
X350192Y92856D01*
X350264Y93168D01*
X350343Y93478D01*
X350430Y93785D01*
X350524Y94091D01*
X350625Y94394D01*
X350734Y94695D01*
X350849Y94993D01*
X350972Y95289D01*
X351102Y95581D01*
X351239Y95870D01*
X351239Y95871D02*
X351278Y95979D01*
X351321Y96086D01*
X351367Y96191D01*
X351418Y96295D01*
X351471Y96397D01*
X351528Y96497D01*
X351589Y96595D01*
X351653Y96690D01*
X351720Y96784D01*
X351791Y96875D01*
X351864Y96964D01*
X351941Y97050D01*
X352020Y97133D01*
X352102Y97214D01*
X352187Y97292D01*
X352275Y97366D01*
X352365Y97438D01*
X352457Y97506D01*
X352552Y97572D01*
X352649Y97634D01*
X352748Y97692D01*
X352850Y97748D01*
X352952Y97799D01*
X353057Y97847D01*
X353163Y97892D01*
X353271Y97933D01*
X353380Y97970D01*
X353490Y98003D01*
X353602Y98032D01*
X353714Y98058D01*
X353827Y98080D01*
X353941Y98097D01*
X354055Y98111D01*
X354170Y98121D01*
X354285Y98127D01*
X354400Y98129D01*
X354400Y98128D02*
X354515Y98126D01*
X354630Y98120D01*
X354745Y98110D01*
X354859Y98096D01*
X354973Y98079D01*
X355086Y98057D01*
X355198Y98031D01*
X355310Y98002D01*
X355420Y97969D01*
X355529Y97932D01*
X355637Y97891D01*
X355743Y97846D01*
X355848Y97798D01*
X355950Y97747D01*
X356051Y97691D01*
X356151Y97633D01*
X356248Y97571D01*
X356342Y97506D01*
X356435Y97437D01*
X356525Y97365D01*
X356613Y97291D01*
X356698Y97213D01*
X356780Y97132D01*
X356859Y97049D01*
X356936Y96963D01*
X357009Y96874D01*
X357080Y96783D01*
X357147Y96689D01*
X357211Y96594D01*
X357272Y96496D01*
X357329Y96396D01*
X357382Y96294D01*
X357433Y96190D01*
X357479Y96085D01*
X357522Y95978D01*
X357561Y95870D01*
X357560Y95870D02*
X357697Y95581D01*
X357827Y95289D01*
X357950Y94993D01*
X358065Y94695D01*
X358174Y94394D01*
X358275Y94091D01*
X358369Y93785D01*
X358456Y93478D01*
X358535Y93168D01*
X358607Y92856D01*
X358671Y92543D01*
X358728Y92228D01*
X358778Y91912D01*
X358820Y91595D01*
X358854Y91277D01*
X358881Y90959D01*
X358900Y90639D01*
X358911Y90320D01*
X358915Y90000D01*
X349884Y90000D02*
X349888Y89680D01*
X349899Y89361D01*
X349918Y89041D01*
X349945Y88723D01*
X349979Y88405D01*
X350021Y88088D01*
X350071Y87772D01*
X350128Y87457D01*
X350192Y87144D01*
X350264Y86832D01*
X350343Y86522D01*
X350430Y86215D01*
X350524Y85909D01*
X350625Y85606D01*
X350734Y85305D01*
X350849Y85007D01*
X350972Y84711D01*
X351102Y84419D01*
X351239Y84130D01*
X351278Y84022D01*
X351321Y83915D01*
X351367Y83810D01*
X351418Y83706D01*
X351471Y83604D01*
X351528Y83504D01*
X351589Y83406D01*
X351653Y83311D01*
X351720Y83217D01*
X351791Y83126D01*
X351864Y83037D01*
X351941Y82951D01*
X352020Y82868D01*
X352102Y82787D01*
X352187Y82709D01*
X352275Y82635D01*
X352365Y82563D01*
X352458Y82494D01*
X352552Y82429D01*
X352649Y82367D01*
X352749Y82309D01*
X352850Y82253D01*
X352952Y82202D01*
X353057Y82154D01*
X353163Y82109D01*
X353271Y82068D01*
X353380Y82031D01*
X353490Y81998D01*
X353602Y81969D01*
X353714Y81943D01*
X353827Y81921D01*
X353941Y81904D01*
X354055Y81890D01*
X354170Y81880D01*
X354285Y81874D01*
X354400Y81872D01*
X357560Y84130D02*
X357697Y84419D01*
X357827Y84711D01*
X357950Y85007D01*
X358065Y85305D01*
X358174Y85606D01*
X358275Y85909D01*
X358369Y86215D01*
X358456Y86522D01*
X358535Y86832D01*
X358607Y87144D01*
X358671Y87457D01*
X358728Y87772D01*
X358778Y88088D01*
X358820Y88405D01*
X358854Y88723D01*
X358881Y89041D01*
X358900Y89361D01*
X358911Y89680D01*
X358915Y90000D01*
X357561Y84130D02*
X357522Y84022D01*
X357479Y83915D01*
X357433Y83810D01*
X357382Y83706D01*
X357329Y83604D01*
X357272Y83504D01*
X357211Y83406D01*
X357147Y83311D01*
X357080Y83217D01*
X357009Y83126D01*
X356936Y83037D01*
X356859Y82951D01*
X356780Y82868D01*
X356698Y82787D01*
X356613Y82709D01*
X356525Y82635D01*
X356435Y82563D01*
X356342Y82494D01*
X356248Y82429D01*
X356151Y82367D01*
X356051Y82309D01*
X355950Y82253D01*
X355847Y82202D01*
X355743Y82154D01*
X355637Y82109D01*
X355529Y82068D01*
X355420Y82031D01*
X355310Y81998D01*
X355198Y81969D01*
X355086Y81943D01*
X354973Y81921D01*
X354859Y81904D01*
X354745Y81890D01*
X354630Y81880D01*
X354515Y81874D01*
X354400Y81872D01*
X350787Y85484D02*
X358012Y94516D01*
X365654Y88194D02*
X376492Y88194D01*
X386804Y81872D02*
X390416Y81872D01*
X386804Y81872D02*
X386686Y81874D01*
X386568Y81880D01*
X386450Y81889D01*
X386333Y81903D01*
X386216Y81920D01*
X386099Y81941D01*
X385984Y81966D01*
X385869Y81995D01*
X385755Y82028D01*
X385643Y82064D01*
X385532Y82104D01*
X385422Y82147D01*
X385313Y82194D01*
X385206Y82244D01*
X385101Y82299D01*
X384998Y82356D01*
X384897Y82417D01*
X384797Y82481D01*
X384700Y82548D01*
X384605Y82618D01*
X384513Y82692D01*
X384422Y82768D01*
X384335Y82848D01*
X384250Y82930D01*
X384168Y83015D01*
X384088Y83102D01*
X384012Y83193D01*
X383938Y83285D01*
X383868Y83380D01*
X383801Y83477D01*
X383737Y83577D01*
X383676Y83678D01*
X383619Y83781D01*
X383564Y83886D01*
X383514Y83993D01*
X383467Y84102D01*
X383424Y84212D01*
X383384Y84323D01*
X383348Y84435D01*
X383315Y84549D01*
X383286Y84664D01*
X383261Y84779D01*
X383240Y84896D01*
X383223Y85013D01*
X383209Y85130D01*
X383200Y85248D01*
X383194Y85366D01*
X383192Y85484D01*
X383191Y85484D02*
X383191Y94516D01*
X383192Y94516D02*
X383194Y94634D01*
X383200Y94752D01*
X383209Y94870D01*
X383223Y94987D01*
X383240Y95104D01*
X383261Y95221D01*
X383286Y95336D01*
X383315Y95451D01*
X383348Y95565D01*
X383384Y95677D01*
X383424Y95788D01*
X383467Y95898D01*
X383514Y96007D01*
X383564Y96114D01*
X383618Y96219D01*
X383676Y96322D01*
X383737Y96423D01*
X383801Y96523D01*
X383868Y96620D01*
X383938Y96715D01*
X384012Y96807D01*
X384088Y96898D01*
X384168Y96985D01*
X384250Y97070D01*
X384335Y97152D01*
X384422Y97232D01*
X384513Y97308D01*
X384605Y97382D01*
X384700Y97452D01*
X384797Y97519D01*
X384897Y97583D01*
X384998Y97644D01*
X385101Y97701D01*
X385206Y97755D01*
X385313Y97806D01*
X385422Y97853D01*
X385532Y97896D01*
X385643Y97936D01*
X385755Y97972D01*
X385869Y98005D01*
X385984Y98034D01*
X386099Y98059D01*
X386216Y98080D01*
X386333Y98097D01*
X386450Y98111D01*
X386568Y98120D01*
X386686Y98126D01*
X386804Y98128D01*
X390416Y98128D01*
X396778Y98128D02*
X396778Y81872D01*
X396778Y90903D02*
X405809Y90903D01*
X405809Y98128D02*
X405809Y81872D01*
X414319Y81872D02*
X414319Y98128D01*
X412513Y81872D02*
X416125Y81872D01*
X416125Y98128D02*
X412513Y98128D01*
X425882Y81872D02*
X429494Y81872D01*
X425882Y81872D02*
X425764Y81874D01*
X425646Y81880D01*
X425528Y81889D01*
X425411Y81903D01*
X425294Y81920D01*
X425177Y81941D01*
X425062Y81966D01*
X424947Y81995D01*
X424833Y82028D01*
X424721Y82064D01*
X424610Y82104D01*
X424500Y82147D01*
X424391Y82194D01*
X424284Y82244D01*
X424179Y82299D01*
X424076Y82356D01*
X423975Y82417D01*
X423875Y82481D01*
X423778Y82548D01*
X423683Y82618D01*
X423591Y82692D01*
X423500Y82768D01*
X423413Y82848D01*
X423328Y82930D01*
X423246Y83015D01*
X423166Y83102D01*
X423090Y83193D01*
X423016Y83285D01*
X422946Y83380D01*
X422879Y83477D01*
X422815Y83577D01*
X422754Y83678D01*
X422697Y83781D01*
X422642Y83886D01*
X422592Y83993D01*
X422545Y84102D01*
X422502Y84212D01*
X422462Y84323D01*
X422426Y84435D01*
X422393Y84549D01*
X422364Y84664D01*
X422339Y84779D01*
X422318Y84896D01*
X422301Y85013D01*
X422287Y85130D01*
X422278Y85248D01*
X422272Y85366D01*
X422270Y85484D01*
X422269Y85484D02*
X422269Y94516D01*
X422270Y94516D02*
X422272Y94634D01*
X422278Y94752D01*
X422287Y94870D01*
X422301Y94987D01*
X422318Y95104D01*
X422339Y95221D01*
X422364Y95336D01*
X422393Y95451D01*
X422426Y95565D01*
X422462Y95677D01*
X422502Y95788D01*
X422545Y95898D01*
X422592Y96007D01*
X422642Y96114D01*
X422696Y96219D01*
X422754Y96322D01*
X422815Y96423D01*
X422879Y96523D01*
X422946Y96620D01*
X423016Y96715D01*
X423090Y96807D01*
X423166Y96898D01*
X423246Y96985D01*
X423328Y97070D01*
X423413Y97152D01*
X423500Y97232D01*
X423591Y97308D01*
X423683Y97382D01*
X423778Y97452D01*
X423875Y97519D01*
X423975Y97583D01*
X424076Y97644D01*
X424179Y97701D01*
X424284Y97755D01*
X424391Y97806D01*
X424500Y97853D01*
X424610Y97896D01*
X424721Y97936D01*
X424833Y97972D01*
X424947Y98005D01*
X425062Y98034D01*
X425177Y98059D01*
X425294Y98080D01*
X425411Y98097D01*
X425528Y98111D01*
X425646Y98120D01*
X425764Y98126D01*
X425882Y98128D01*
X429494Y98128D01*
X436067Y98128D02*
X436067Y81872D01*
X436067Y88194D02*
X445098Y98128D01*
X439679Y91806D02*
X445098Y81872D01*
X451517Y81872D02*
X458742Y81872D01*
X451517Y81872D02*
X451517Y98128D01*
X458742Y98128D01*
X456935Y90903D02*
X451517Y90903D01*
X465034Y98128D02*
X465034Y81872D01*
X474065Y81872D02*
X465034Y98128D01*
X474065Y98128D02*
X474065Y81872D01*
X488863Y92709D02*
X492475Y81872D01*
X496088Y92709D01*
X504598Y81872D02*
X509114Y81872D01*
X504598Y81872D02*
X504497Y81874D01*
X504396Y81880D01*
X504295Y81889D01*
X504194Y81902D01*
X504094Y81919D01*
X503995Y81940D01*
X503897Y81964D01*
X503800Y81992D01*
X503703Y82024D01*
X503608Y82059D01*
X503515Y82098D01*
X503423Y82140D01*
X503332Y82186D01*
X503244Y82235D01*
X503157Y82287D01*
X503072Y82343D01*
X502989Y82401D01*
X502909Y82463D01*
X502831Y82528D01*
X502755Y82595D01*
X502682Y82665D01*
X502612Y82738D01*
X502545Y82814D01*
X502480Y82892D01*
X502418Y82972D01*
X502360Y83055D01*
X502304Y83140D01*
X502252Y83227D01*
X502203Y83315D01*
X502157Y83406D01*
X502115Y83498D01*
X502076Y83591D01*
X502041Y83686D01*
X502009Y83783D01*
X501981Y83880D01*
X501957Y83978D01*
X501936Y84077D01*
X501919Y84177D01*
X501906Y84278D01*
X501897Y84379D01*
X501891Y84480D01*
X501889Y84581D01*
X501889Y89097D01*
X501891Y89216D01*
X501897Y89336D01*
X501907Y89455D01*
X501921Y89573D01*
X501938Y89692D01*
X501960Y89809D01*
X501985Y89926D01*
X502015Y90041D01*
X502048Y90156D01*
X502085Y90270D01*
X502125Y90382D01*
X502170Y90493D01*
X502218Y90602D01*
X502269Y90710D01*
X502324Y90816D01*
X502383Y90920D01*
X502445Y91022D01*
X502510Y91122D01*
X502579Y91220D01*
X502651Y91316D01*
X502726Y91409D01*
X502803Y91499D01*
X502884Y91587D01*
X502968Y91672D01*
X503055Y91754D01*
X503144Y91834D01*
X503236Y91910D01*
X503330Y91984D01*
X503427Y92054D01*
X503525Y92121D01*
X503626Y92185D01*
X503730Y92245D01*
X503835Y92302D01*
X503942Y92355D01*
X504050Y92405D01*
X504160Y92451D01*
X504272Y92493D01*
X504385Y92532D01*
X504499Y92567D01*
X504614Y92598D01*
X504731Y92626D01*
X504848Y92649D01*
X504965Y92669D01*
X505084Y92685D01*
X505203Y92697D01*
X505322Y92705D01*
X505441Y92709D01*
X505561Y92709D01*
X505680Y92705D01*
X505799Y92697D01*
X505918Y92685D01*
X506037Y92669D01*
X506154Y92649D01*
X506271Y92626D01*
X506388Y92598D01*
X506503Y92567D01*
X506617Y92532D01*
X506730Y92493D01*
X506842Y92451D01*
X506952Y92405D01*
X507060Y92355D01*
X507167Y92302D01*
X507272Y92245D01*
X507376Y92185D01*
X507477Y92121D01*
X507575Y92054D01*
X507672Y91984D01*
X507766Y91910D01*
X507858Y91834D01*
X507947Y91754D01*
X508034Y91672D01*
X508118Y91587D01*
X508199Y91499D01*
X508276Y91409D01*
X508351Y91316D01*
X508423Y91220D01*
X508492Y91122D01*
X508557Y91022D01*
X508619Y90920D01*
X508678Y90816D01*
X508733Y90710D01*
X508784Y90602D01*
X508832Y90493D01*
X508877Y90382D01*
X508917Y90270D01*
X508954Y90156D01*
X508987Y90041D01*
X509017Y89926D01*
X509042Y89809D01*
X509064Y89692D01*
X509081Y89573D01*
X509095Y89455D01*
X509105Y89336D01*
X509111Y89216D01*
X509113Y89097D01*
X509114Y89097D02*
X509114Y87291D01*
X501889Y87291D01*
X516042Y81872D02*
X516042Y92709D01*
X521461Y92709D01*
X521461Y90903D01*
X525891Y82775D02*
X525891Y81872D01*
X525891Y82775D02*
X526795Y82775D01*
X526795Y81872D01*
X525891Y81872D01*
X532769Y90000D02*
X532773Y90320D01*
X532784Y90639D01*
X532803Y90959D01*
X532830Y91277D01*
X532864Y91595D01*
X532906Y91912D01*
X532956Y92228D01*
X533013Y92543D01*
X533077Y92856D01*
X533149Y93168D01*
X533228Y93478D01*
X533315Y93785D01*
X533409Y94091D01*
X533510Y94394D01*
X533619Y94695D01*
X533734Y94993D01*
X533857Y95289D01*
X533987Y95581D01*
X534124Y95870D01*
X534124Y95871D02*
X534163Y95979D01*
X534206Y96086D01*
X534252Y96191D01*
X534303Y96295D01*
X534356Y96397D01*
X534413Y96497D01*
X534474Y96595D01*
X534538Y96690D01*
X534605Y96784D01*
X534676Y96875D01*
X534749Y96964D01*
X534826Y97050D01*
X534905Y97133D01*
X534987Y97214D01*
X535072Y97292D01*
X535160Y97366D01*
X535250Y97438D01*
X535342Y97506D01*
X535437Y97572D01*
X535534Y97634D01*
X535633Y97692D01*
X535735Y97748D01*
X535837Y97799D01*
X535942Y97847D01*
X536048Y97892D01*
X536156Y97933D01*
X536265Y97970D01*
X536375Y98003D01*
X536487Y98032D01*
X536599Y98058D01*
X536712Y98080D01*
X536826Y98097D01*
X536940Y98111D01*
X537055Y98121D01*
X537170Y98127D01*
X537285Y98129D01*
X537285Y98128D02*
X537400Y98126D01*
X537515Y98120D01*
X537630Y98110D01*
X537744Y98096D01*
X537858Y98079D01*
X537971Y98057D01*
X538083Y98031D01*
X538195Y98002D01*
X538305Y97969D01*
X538414Y97932D01*
X538522Y97891D01*
X538628Y97846D01*
X538733Y97798D01*
X538835Y97747D01*
X538936Y97691D01*
X539036Y97633D01*
X539133Y97571D01*
X539227Y97506D01*
X539320Y97437D01*
X539410Y97365D01*
X539498Y97291D01*
X539583Y97213D01*
X539665Y97132D01*
X539744Y97049D01*
X539821Y96963D01*
X539894Y96874D01*
X539965Y96783D01*
X540032Y96689D01*
X540096Y96594D01*
X540157Y96496D01*
X540214Y96396D01*
X540267Y96294D01*
X540318Y96190D01*
X540364Y96085D01*
X540407Y95978D01*
X540446Y95870D01*
X540445Y95870D02*
X540582Y95581D01*
X540712Y95289D01*
X540835Y94993D01*
X540950Y94695D01*
X541059Y94394D01*
X541160Y94091D01*
X541254Y93785D01*
X541341Y93478D01*
X541420Y93168D01*
X541492Y92856D01*
X541556Y92543D01*
X541613Y92228D01*
X541663Y91912D01*
X541705Y91595D01*
X541739Y91277D01*
X541766Y90959D01*
X541785Y90639D01*
X541796Y90320D01*
X541800Y90000D01*
X532770Y90000D02*
X532774Y89680D01*
X532785Y89361D01*
X532804Y89041D01*
X532831Y88723D01*
X532865Y88405D01*
X532907Y88088D01*
X532957Y87772D01*
X533014Y87457D01*
X533078Y87144D01*
X533150Y86832D01*
X533229Y86522D01*
X533316Y86215D01*
X533410Y85909D01*
X533511Y85606D01*
X533620Y85305D01*
X533735Y85007D01*
X533858Y84711D01*
X533988Y84419D01*
X534125Y84130D01*
X534124Y84130D02*
X534163Y84022D01*
X534206Y83915D01*
X534252Y83810D01*
X534303Y83706D01*
X534356Y83604D01*
X534413Y83504D01*
X534474Y83406D01*
X534538Y83311D01*
X534605Y83217D01*
X534676Y83126D01*
X534749Y83037D01*
X534826Y82951D01*
X534905Y82868D01*
X534987Y82787D01*
X535072Y82709D01*
X535160Y82635D01*
X535250Y82563D01*
X535343Y82494D01*
X535437Y82429D01*
X535534Y82367D01*
X535634Y82309D01*
X535735Y82253D01*
X535837Y82202D01*
X535942Y82154D01*
X536048Y82109D01*
X536156Y82068D01*
X536265Y82031D01*
X536375Y81998D01*
X536487Y81969D01*
X536599Y81943D01*
X536712Y81921D01*
X536826Y81904D01*
X536940Y81890D01*
X537055Y81880D01*
X537170Y81874D01*
X537285Y81872D01*
X540445Y84130D02*
X540582Y84419D01*
X540712Y84711D01*
X540835Y85007D01*
X540950Y85305D01*
X541059Y85606D01*
X541160Y85909D01*
X541254Y86215D01*
X541341Y86522D01*
X541420Y86832D01*
X541492Y87144D01*
X541556Y87457D01*
X541613Y87772D01*
X541663Y88088D01*
X541705Y88405D01*
X541739Y88723D01*
X541766Y89041D01*
X541785Y89361D01*
X541796Y89680D01*
X541800Y90000D01*
X540446Y84130D02*
X540407Y84022D01*
X540364Y83915D01*
X540318Y83810D01*
X540267Y83706D01*
X540214Y83604D01*
X540157Y83504D01*
X540096Y83406D01*
X540032Y83311D01*
X539965Y83217D01*
X539894Y83126D01*
X539821Y83037D01*
X539744Y82951D01*
X539665Y82868D01*
X539583Y82787D01*
X539498Y82709D01*
X539410Y82635D01*
X539320Y82563D01*
X539227Y82494D01*
X539133Y82429D01*
X539036Y82367D01*
X538936Y82309D01*
X538835Y82253D01*
X538732Y82202D01*
X538628Y82154D01*
X538522Y82109D01*
X538414Y82068D01*
X538305Y82031D01*
X538195Y81998D01*
X538083Y81969D01*
X537971Y81943D01*
X537858Y81921D01*
X537744Y81904D01*
X537630Y81890D01*
X537515Y81880D01*
X537400Y81874D01*
X537285Y81872D01*
X533672Y85484D02*
X540897Y94516D01*
X547775Y82775D02*
X547775Y81872D01*
X547775Y82775D02*
X548678Y82775D01*
X548678Y81872D01*
X547775Y81872D01*
X563684Y94064D02*
X563682Y94189D01*
X563676Y94314D01*
X563667Y94439D01*
X563653Y94563D01*
X563636Y94687D01*
X563615Y94811D01*
X563590Y94933D01*
X563561Y95055D01*
X563529Y95176D01*
X563493Y95296D01*
X563453Y95415D01*
X563410Y95532D01*
X563363Y95648D01*
X563312Y95763D01*
X563258Y95875D01*
X563200Y95987D01*
X563140Y96096D01*
X563075Y96203D01*
X563008Y96309D01*
X562937Y96412D01*
X562863Y96513D01*
X562786Y96612D01*
X562706Y96708D01*
X562623Y96802D01*
X562538Y96893D01*
X562449Y96982D01*
X562358Y97067D01*
X562264Y97150D01*
X562168Y97230D01*
X562069Y97307D01*
X561968Y97381D01*
X561865Y97452D01*
X561759Y97519D01*
X561652Y97584D01*
X561543Y97644D01*
X561431Y97702D01*
X561319Y97756D01*
X561204Y97807D01*
X561088Y97854D01*
X560971Y97897D01*
X560852Y97937D01*
X560732Y97973D01*
X560611Y98005D01*
X560489Y98034D01*
X560367Y98059D01*
X560243Y98080D01*
X560119Y98097D01*
X559995Y98111D01*
X559870Y98120D01*
X559745Y98126D01*
X559620Y98128D01*
X559477Y98126D01*
X559335Y98120D01*
X559192Y98110D01*
X559050Y98097D01*
X558909Y98079D01*
X558767Y98058D01*
X558627Y98033D01*
X558487Y98004D01*
X558348Y97971D01*
X558210Y97934D01*
X558073Y97894D01*
X557938Y97850D01*
X557803Y97802D01*
X557670Y97750D01*
X557538Y97695D01*
X557408Y97636D01*
X557280Y97574D01*
X557153Y97508D01*
X557028Y97439D01*
X556905Y97367D01*
X556785Y97291D01*
X556666Y97212D01*
X556549Y97129D01*
X556435Y97044D01*
X556323Y96955D01*
X556214Y96864D01*
X556107Y96769D01*
X556002Y96672D01*
X555901Y96571D01*
X555802Y96468D01*
X555706Y96363D01*
X555613Y96254D01*
X555523Y96143D01*
X555436Y96030D01*
X555352Y95915D01*
X555272Y95797D01*
X555194Y95677D01*
X555120Y95555D01*
X555050Y95431D01*
X554982Y95305D01*
X554919Y95177D01*
X554858Y95048D01*
X554801Y94917D01*
X554748Y94785D01*
X554699Y94651D01*
X554653Y94516D01*
X562329Y90903D02*
X562423Y90995D01*
X562513Y91089D01*
X562601Y91186D01*
X562686Y91286D01*
X562768Y91388D01*
X562847Y91493D01*
X562922Y91600D01*
X562994Y91709D01*
X563063Y91820D01*
X563129Y91934D01*
X563191Y92049D01*
X563250Y92166D01*
X563305Y92285D01*
X563356Y92405D01*
X563404Y92527D01*
X563449Y92650D01*
X563489Y92774D01*
X563526Y92900D01*
X563559Y93027D01*
X563588Y93154D01*
X563614Y93283D01*
X563635Y93412D01*
X563653Y93542D01*
X563666Y93672D01*
X563676Y93802D01*
X563682Y93933D01*
X563684Y94064D01*
X562329Y90903D02*
X554653Y81872D01*
X563684Y81872D01*
D10*
X154620Y69150D02*
X77620Y69150D01*
X154620Y69150D02*
X154620Y111150D01*
X77620Y111150D01*
X77620Y69150D01*
D11*
X20150Y153500D02*
X7450Y153500D01*
X1100Y159850D01*
X1100Y172550D01*
X7450Y178900D01*
X45550Y153500D02*
X51900Y159850D01*
X45550Y153500D02*
X32850Y153500D01*
X26500Y159850D01*
X26500Y172550D01*
X32850Y178900D01*
X45550Y178900D01*
X51900Y172550D01*
X26500Y159850D02*
X20150Y153500D01*
X26500Y172550D02*
X20150Y178900D01*
X7450Y178900D01*
X83650Y153500D02*
X96350Y153500D01*
X83650Y153500D02*
X77300Y159850D01*
X77300Y172550D01*
X83650Y178900D01*
X77300Y159850D02*
X70950Y153500D01*
X58250Y153500D01*
X51900Y159850D01*
X51900Y172550D01*
X58250Y178900D01*
X70950Y178900D01*
X77300Y172550D01*
X121750Y153500D02*
X128100Y159850D01*
X121750Y153500D02*
X109050Y153500D01*
X102700Y159850D01*
X102700Y172550D01*
X109050Y178900D01*
X121750Y178900D01*
X128100Y172550D01*
X102700Y159850D02*
X96350Y153500D01*
X102700Y172550D02*
X96350Y178900D01*
X83650Y178900D01*
X159850Y153500D02*
X172550Y153500D01*
X159850Y153500D02*
X153500Y159850D01*
X153500Y172550D01*
X159850Y178900D01*
X153500Y159850D02*
X147150Y153500D01*
X134450Y153500D01*
X128100Y159850D01*
X128100Y172550D01*
X134450Y178900D01*
X147150Y178900D01*
X153500Y172550D01*
X178900Y172550D02*
X178900Y159850D01*
X172550Y153500D01*
X178900Y172550D02*
X172550Y178900D01*
X159850Y178900D01*
X20150Y1100D02*
X7450Y1100D01*
X1100Y7450D01*
X1100Y20150D01*
X7450Y26500D01*
X45550Y1100D02*
X51900Y7450D01*
X45550Y1100D02*
X32850Y1100D01*
X26500Y7450D01*
X26500Y20150D01*
X32850Y26500D01*
X45550Y26500D01*
X51900Y20150D01*
X26500Y7450D02*
X20150Y1100D01*
X26500Y20150D02*
X20150Y26500D01*
X7450Y26500D01*
X83650Y1100D02*
X96350Y1100D01*
X83650Y1100D02*
X77300Y7450D01*
X77300Y20150D01*
X83650Y26500D01*
X77300Y7450D02*
X70950Y1100D01*
X58250Y1100D01*
X51900Y7450D01*
X51900Y20150D01*
X58250Y26500D01*
X70950Y26500D01*
X77300Y20150D01*
X121750Y1100D02*
X128100Y7450D01*
X121750Y1100D02*
X109050Y1100D01*
X102700Y7450D01*
X102700Y20150D01*
X109050Y26500D01*
X121750Y26500D01*
X128100Y20150D01*
X102700Y7450D02*
X96350Y1100D01*
X102700Y20150D02*
X96350Y26500D01*
X83650Y26500D01*
X159850Y1100D02*
X172550Y1100D01*
X159850Y1100D02*
X153500Y7450D01*
X153500Y20150D01*
X159850Y26500D01*
X153500Y7450D02*
X147150Y1100D01*
X134450Y1100D01*
X128100Y7450D01*
X128100Y20150D01*
X134450Y26500D01*
X147150Y26500D01*
X153500Y20150D01*
X178900Y20150D02*
X178900Y7450D01*
X172550Y1100D01*
X178900Y20150D02*
X172550Y26500D01*
X159850Y26500D01*
D12*
X174281Y52086D02*
X183519Y45927D01*
X183519Y52086D02*
X174281Y45927D01*
X174281Y56207D02*
X183519Y56207D01*
X183519Y57233D02*
X183519Y55180D01*
X174281Y55180D02*
X174281Y57233D01*
X174281Y63407D02*
X183519Y60327D01*
X183519Y66486D02*
X174281Y63407D01*
X181210Y65716D02*
X181210Y61097D01*
X180953Y69841D02*
X176847Y69841D01*
X176748Y69843D01*
X176648Y69849D01*
X176549Y69858D01*
X176451Y69872D01*
X176353Y69889D01*
X176255Y69910D01*
X176159Y69935D01*
X176064Y69964D01*
X175969Y69996D01*
X175877Y70032D01*
X175785Y70071D01*
X175695Y70114D01*
X175607Y70160D01*
X175521Y70210D01*
X175437Y70263D01*
X175355Y70319D01*
X175275Y70379D01*
X175198Y70441D01*
X175123Y70507D01*
X175050Y70575D01*
X174981Y70646D01*
X174914Y70720D01*
X174850Y70796D01*
X174789Y70875D01*
X174731Y70956D01*
X174676Y71039D01*
X174625Y71124D01*
X174577Y71211D01*
X174532Y71300D01*
X174491Y71391D01*
X174453Y71483D01*
X174419Y71576D01*
X174389Y71671D01*
X174362Y71767D01*
X174339Y71864D01*
X174320Y71961D01*
X174305Y72060D01*
X174293Y72159D01*
X174285Y72258D01*
X174281Y72357D01*
X174281Y72457D01*
X174285Y72556D01*
X174293Y72655D01*
X174305Y72754D01*
X174320Y72853D01*
X174339Y72950D01*
X174362Y73047D01*
X174389Y73143D01*
X174419Y73238D01*
X174453Y73331D01*
X174491Y73423D01*
X174532Y73514D01*
X174577Y73603D01*
X174625Y73690D01*
X174676Y73775D01*
X174731Y73858D01*
X174789Y73939D01*
X174850Y74018D01*
X174914Y74094D01*
X174981Y74168D01*
X175050Y74239D01*
X175123Y74307D01*
X175198Y74373D01*
X175275Y74435D01*
X175355Y74495D01*
X175437Y74551D01*
X175521Y74604D01*
X175607Y74654D01*
X175695Y74700D01*
X175785Y74743D01*
X175877Y74782D01*
X175969Y74818D01*
X176064Y74850D01*
X176159Y74879D01*
X176255Y74904D01*
X176353Y74925D01*
X176451Y74942D01*
X176549Y74956D01*
X176648Y74965D01*
X176748Y74971D01*
X176847Y74973D01*
X180953Y74973D01*
X181052Y74971D01*
X181152Y74965D01*
X181251Y74956D01*
X181349Y74942D01*
X181447Y74925D01*
X181545Y74904D01*
X181641Y74879D01*
X181736Y74850D01*
X181831Y74818D01*
X181923Y74782D01*
X182015Y74743D01*
X182105Y74700D01*
X182193Y74654D01*
X182279Y74604D01*
X182363Y74551D01*
X182445Y74495D01*
X182525Y74435D01*
X182602Y74373D01*
X182677Y74307D01*
X182750Y74239D01*
X182819Y74168D01*
X182886Y74094D01*
X182950Y74018D01*
X183011Y73939D01*
X183069Y73858D01*
X183124Y73775D01*
X183175Y73690D01*
X183223Y73603D01*
X183268Y73514D01*
X183309Y73423D01*
X183347Y73331D01*
X183381Y73238D01*
X183411Y73143D01*
X183438Y73047D01*
X183461Y72950D01*
X183480Y72853D01*
X183495Y72754D01*
X183507Y72655D01*
X183515Y72556D01*
X183519Y72457D01*
X183519Y72357D01*
X183515Y72258D01*
X183507Y72159D01*
X183495Y72060D01*
X183480Y71961D01*
X183461Y71864D01*
X183438Y71767D01*
X183411Y71671D01*
X183381Y71576D01*
X183347Y71483D01*
X183309Y71391D01*
X183268Y71300D01*
X183223Y71211D01*
X183175Y71124D01*
X183124Y71039D01*
X183069Y70956D01*
X183011Y70875D01*
X182950Y70796D01*
X182886Y70720D01*
X182819Y70646D01*
X182750Y70575D01*
X182677Y70507D01*
X182602Y70441D01*
X182525Y70379D01*
X182445Y70319D01*
X182363Y70263D01*
X182279Y70210D01*
X182193Y70160D01*
X182105Y70114D01*
X182015Y70071D01*
X181923Y70032D01*
X181831Y69996D01*
X181736Y69964D01*
X181641Y69935D01*
X181545Y69910D01*
X181447Y69889D01*
X181349Y69872D01*
X181251Y69858D01*
X181152Y69849D01*
X181052Y69843D01*
X180953Y69841D01*
X183519Y83997D02*
X174281Y83997D01*
X174281Y86563D01*
X174283Y86662D01*
X174289Y86762D01*
X174298Y86861D01*
X174312Y86959D01*
X174329Y87057D01*
X174350Y87155D01*
X174375Y87251D01*
X174404Y87346D01*
X174436Y87441D01*
X174472Y87533D01*
X174511Y87625D01*
X174554Y87715D01*
X174600Y87803D01*
X174650Y87889D01*
X174703Y87973D01*
X174759Y88055D01*
X174819Y88135D01*
X174881Y88212D01*
X174947Y88287D01*
X175015Y88360D01*
X175086Y88429D01*
X175160Y88496D01*
X175236Y88560D01*
X175315Y88621D01*
X175396Y88679D01*
X175479Y88734D01*
X175564Y88785D01*
X175651Y88833D01*
X175740Y88878D01*
X175831Y88919D01*
X175923Y88957D01*
X176016Y88991D01*
X176111Y89021D01*
X176207Y89048D01*
X176304Y89071D01*
X176401Y89090D01*
X176500Y89105D01*
X176599Y89117D01*
X176698Y89125D01*
X176797Y89129D01*
X176897Y89129D01*
X176996Y89125D01*
X177095Y89117D01*
X177194Y89105D01*
X177293Y89090D01*
X177390Y89071D01*
X177487Y89048D01*
X177583Y89021D01*
X177678Y88991D01*
X177771Y88957D01*
X177863Y88919D01*
X177954Y88878D01*
X178043Y88833D01*
X178130Y88785D01*
X178215Y88734D01*
X178298Y88679D01*
X178379Y88621D01*
X178458Y88560D01*
X178534Y88496D01*
X178608Y88429D01*
X178679Y88360D01*
X178747Y88287D01*
X178813Y88212D01*
X178875Y88135D01*
X178935Y88055D01*
X178991Y87973D01*
X179044Y87889D01*
X179094Y87803D01*
X179140Y87715D01*
X179183Y87625D01*
X179222Y87533D01*
X179258Y87441D01*
X179290Y87346D01*
X179319Y87251D01*
X179344Y87155D01*
X179365Y87057D01*
X179382Y86959D01*
X179396Y86861D01*
X179405Y86762D01*
X179411Y86662D01*
X179413Y86563D01*
X179413Y83997D01*
X179413Y87076D02*
X183519Y89129D01*
X183519Y93371D02*
X174281Y93371D01*
X174281Y95937D01*
X174283Y96036D01*
X174289Y96136D01*
X174298Y96235D01*
X174312Y96333D01*
X174329Y96431D01*
X174350Y96529D01*
X174375Y96625D01*
X174404Y96720D01*
X174436Y96815D01*
X174472Y96907D01*
X174511Y96999D01*
X174554Y97089D01*
X174600Y97177D01*
X174650Y97263D01*
X174703Y97347D01*
X174759Y97429D01*
X174819Y97509D01*
X174881Y97586D01*
X174947Y97661D01*
X175015Y97734D01*
X175086Y97803D01*
X175160Y97870D01*
X175236Y97934D01*
X175315Y97995D01*
X175396Y98053D01*
X175479Y98108D01*
X175564Y98159D01*
X175651Y98207D01*
X175740Y98252D01*
X175831Y98293D01*
X175923Y98331D01*
X176016Y98365D01*
X176111Y98395D01*
X176207Y98422D01*
X176304Y98445D01*
X176401Y98464D01*
X176500Y98479D01*
X176599Y98491D01*
X176698Y98499D01*
X176797Y98503D01*
X176897Y98503D01*
X176996Y98499D01*
X177095Y98491D01*
X177194Y98479D01*
X177293Y98464D01*
X177390Y98445D01*
X177487Y98422D01*
X177583Y98395D01*
X177678Y98365D01*
X177771Y98331D01*
X177863Y98293D01*
X177954Y98252D01*
X178043Y98207D01*
X178130Y98159D01*
X178215Y98108D01*
X178298Y98053D01*
X178379Y97995D01*
X178458Y97934D01*
X178534Y97870D01*
X178608Y97803D01*
X178679Y97734D01*
X178747Y97661D01*
X178813Y97586D01*
X178875Y97509D01*
X178935Y97429D01*
X178991Y97347D01*
X179044Y97263D01*
X179094Y97177D01*
X179140Y97089D01*
X179183Y96999D01*
X179222Y96907D01*
X179258Y96815D01*
X179290Y96720D01*
X179319Y96625D01*
X179344Y96529D01*
X179365Y96431D01*
X179382Y96333D01*
X179396Y96235D01*
X179405Y96136D01*
X179411Y96036D01*
X179413Y95937D01*
X179413Y93371D01*
X174281Y104763D02*
X174283Y104859D01*
X174289Y104954D01*
X174299Y105049D01*
X174313Y105143D01*
X174330Y105237D01*
X174352Y105330D01*
X174377Y105422D01*
X174406Y105513D01*
X174439Y105603D01*
X174476Y105691D01*
X174516Y105778D01*
X174559Y105862D01*
X174607Y105945D01*
X174657Y106026D01*
X174711Y106105D01*
X174768Y106182D01*
X174828Y106256D01*
X174892Y106328D01*
X174958Y106396D01*
X175027Y106463D01*
X175098Y106526D01*
X175172Y106586D01*
X175249Y106643D01*
X175328Y106697D01*
X175409Y106747D01*
X175492Y106795D01*
X175576Y106838D01*
X175663Y106878D01*
X175751Y106915D01*
X175841Y106948D01*
X175932Y106977D01*
X176024Y107002D01*
X176117Y107024D01*
X176211Y107041D01*
X176305Y107055D01*
X176400Y107065D01*
X176496Y107071D01*
X176591Y107073D01*
X174281Y104763D02*
X174283Y104657D01*
X174289Y104550D01*
X174298Y104444D01*
X174312Y104338D01*
X174329Y104233D01*
X174350Y104128D01*
X174374Y104025D01*
X174403Y103922D01*
X174435Y103820D01*
X174470Y103720D01*
X174510Y103621D01*
X174553Y103523D01*
X174599Y103427D01*
X174649Y103333D01*
X174702Y103240D01*
X174758Y103150D01*
X174818Y103061D01*
X174880Y102975D01*
X174946Y102891D01*
X175015Y102810D01*
X175086Y102731D01*
X175161Y102654D01*
X175238Y102581D01*
X175318Y102510D01*
X175400Y102442D01*
X175484Y102377D01*
X175571Y102315D01*
X175660Y102257D01*
X175751Y102201D01*
X175844Y102149D01*
X175939Y102100D01*
X176036Y102055D01*
X176134Y102013D01*
X176233Y101975D01*
X176334Y101940D01*
X178388Y106303D02*
X178320Y106371D01*
X178250Y106436D01*
X178178Y106499D01*
X178103Y106559D01*
X178026Y106616D01*
X177947Y106669D01*
X177866Y106720D01*
X177783Y106768D01*
X177699Y106812D01*
X177612Y106853D01*
X177524Y106891D01*
X177435Y106925D01*
X177344Y106956D01*
X177253Y106983D01*
X177160Y107007D01*
X177066Y107027D01*
X176972Y107044D01*
X176877Y107056D01*
X176782Y107066D01*
X176687Y107071D01*
X176591Y107073D01*
X178387Y106303D02*
X183519Y101940D01*
X183519Y107073D01*
X178900Y110940D02*
X178718Y110942D01*
X178537Y110949D01*
X178355Y110960D01*
X178174Y110975D01*
X177993Y110994D01*
X177813Y111018D01*
X177634Y111046D01*
X177455Y111078D01*
X177277Y111115D01*
X177100Y111156D01*
X176924Y111201D01*
X176749Y111250D01*
X176575Y111304D01*
X176403Y111361D01*
X176232Y111423D01*
X176062Y111489D01*
X175894Y111558D01*
X175728Y111632D01*
X175564Y111710D01*
X175564Y111711D02*
X175485Y111740D01*
X175408Y111772D01*
X175331Y111808D01*
X175257Y111847D01*
X175184Y111890D01*
X175114Y111936D01*
X175045Y111984D01*
X174979Y112036D01*
X174915Y112091D01*
X174853Y112148D01*
X174795Y112208D01*
X174738Y112271D01*
X174685Y112336D01*
X174635Y112403D01*
X174587Y112473D01*
X174543Y112544D01*
X174502Y112618D01*
X174464Y112693D01*
X174430Y112770D01*
X174399Y112848D01*
X174372Y112927D01*
X174348Y113008D01*
X174327Y113090D01*
X174311Y113172D01*
X174298Y113255D01*
X174288Y113339D01*
X174283Y113423D01*
X174281Y113507D01*
X174283Y113591D01*
X174288Y113675D01*
X174298Y113759D01*
X174311Y113842D01*
X174327Y113924D01*
X174348Y114006D01*
X174372Y114087D01*
X174399Y114166D01*
X174430Y114244D01*
X174464Y114321D01*
X174502Y114396D01*
X174543Y114470D01*
X174587Y114541D01*
X174635Y114611D01*
X174685Y114678D01*
X174738Y114743D01*
X174795Y114806D01*
X174854Y114866D01*
X174915Y114923D01*
X174979Y114978D01*
X175045Y115030D01*
X175114Y115078D01*
X175184Y115124D01*
X175257Y115167D01*
X175332Y115206D01*
X175408Y115242D01*
X175485Y115274D01*
X175564Y115303D01*
X175728Y115381D01*
X175894Y115455D01*
X176062Y115524D01*
X176232Y115590D01*
X176403Y115652D01*
X176575Y115709D01*
X176749Y115763D01*
X176924Y115812D01*
X177100Y115857D01*
X177277Y115898D01*
X177455Y115935D01*
X177634Y115967D01*
X177813Y115995D01*
X177993Y116019D01*
X178174Y116038D01*
X178355Y116053D01*
X178537Y116064D01*
X178718Y116071D01*
X178900Y116073D01*
X178900Y110940D02*
X179082Y110942D01*
X179263Y110949D01*
X179445Y110960D01*
X179626Y110975D01*
X179807Y110994D01*
X179987Y111018D01*
X180166Y111046D01*
X180345Y111078D01*
X180523Y111115D01*
X180700Y111156D01*
X180876Y111201D01*
X181051Y111250D01*
X181225Y111304D01*
X181397Y111361D01*
X181568Y111423D01*
X181738Y111489D01*
X181906Y111558D01*
X182072Y111632D01*
X182236Y111710D01*
X182236Y111711D02*
X182315Y111740D01*
X182392Y111772D01*
X182469Y111808D01*
X182543Y111847D01*
X182616Y111890D01*
X182686Y111936D01*
X182755Y111984D01*
X182821Y112036D01*
X182885Y112091D01*
X182947Y112148D01*
X183005Y112208D01*
X183062Y112271D01*
X183115Y112336D01*
X183165Y112403D01*
X183213Y112473D01*
X183257Y112544D01*
X183298Y112618D01*
X183336Y112693D01*
X183370Y112770D01*
X183401Y112848D01*
X183428Y112927D01*
X183452Y113008D01*
X183473Y113090D01*
X183489Y113172D01*
X183502Y113255D01*
X183512Y113339D01*
X183517Y113423D01*
X183519Y113507D01*
X182236Y115303D02*
X182072Y115381D01*
X181906Y115455D01*
X181738Y115524D01*
X181568Y115590D01*
X181397Y115652D01*
X181225Y115709D01*
X181051Y115763D01*
X180876Y115812D01*
X180700Y115857D01*
X180523Y115898D01*
X180345Y115935D01*
X180166Y115967D01*
X179987Y115995D01*
X179807Y116019D01*
X179626Y116038D01*
X179445Y116053D01*
X179263Y116064D01*
X179082Y116071D01*
X178900Y116073D01*
X182236Y115303D02*
X182315Y115274D01*
X182392Y115242D01*
X182469Y115206D01*
X182543Y115167D01*
X182616Y115124D01*
X182686Y115078D01*
X182755Y115030D01*
X182821Y114978D01*
X182885Y114923D01*
X182947Y114866D01*
X183005Y114806D01*
X183062Y114743D01*
X183115Y114678D01*
X183165Y114611D01*
X183213Y114541D01*
X183257Y114470D01*
X183298Y114396D01*
X183336Y114321D01*
X183370Y114244D01*
X183401Y114166D01*
X183428Y114087D01*
X183452Y114006D01*
X183473Y113924D01*
X183489Y113842D01*
X183502Y113759D01*
X183512Y113675D01*
X183517Y113591D01*
X183519Y113507D01*
X181466Y111454D02*
X176334Y115559D01*
X181466Y119940D02*
X174281Y121993D01*
X181466Y119940D02*
X181466Y125073D01*
X179413Y123533D02*
X183519Y123533D01*
X178900Y128940D02*
X178718Y128942D01*
X178537Y128949D01*
X178355Y128960D01*
X178174Y128975D01*
X177993Y128994D01*
X177813Y129018D01*
X177634Y129046D01*
X177455Y129078D01*
X177277Y129115D01*
X177100Y129156D01*
X176924Y129201D01*
X176749Y129250D01*
X176575Y129304D01*
X176403Y129361D01*
X176232Y129423D01*
X176062Y129489D01*
X175894Y129558D01*
X175728Y129632D01*
X175564Y129710D01*
X175485Y129739D01*
X175408Y129771D01*
X175331Y129807D01*
X175257Y129846D01*
X175184Y129889D01*
X175114Y129935D01*
X175045Y129983D01*
X174979Y130035D01*
X174915Y130090D01*
X174853Y130147D01*
X174795Y130207D01*
X174738Y130270D01*
X174685Y130335D01*
X174635Y130402D01*
X174587Y130472D01*
X174543Y130543D01*
X174502Y130617D01*
X174464Y130692D01*
X174430Y130769D01*
X174399Y130847D01*
X174372Y130926D01*
X174348Y131007D01*
X174327Y131089D01*
X174311Y131171D01*
X174298Y131254D01*
X174288Y131338D01*
X174283Y131422D01*
X174281Y131506D01*
X174283Y131590D01*
X174288Y131674D01*
X174298Y131758D01*
X174311Y131841D01*
X174327Y131923D01*
X174348Y132005D01*
X174372Y132086D01*
X174399Y132165D01*
X174430Y132243D01*
X174464Y132320D01*
X174502Y132395D01*
X174543Y132469D01*
X174587Y132540D01*
X174635Y132610D01*
X174685Y132677D01*
X174738Y132742D01*
X174795Y132805D01*
X174854Y132865D01*
X174915Y132922D01*
X174979Y132977D01*
X175045Y133029D01*
X175114Y133077D01*
X175184Y133123D01*
X175257Y133166D01*
X175332Y133205D01*
X175408Y133241D01*
X175485Y133273D01*
X175564Y133302D01*
X175564Y133303D02*
X175728Y133381D01*
X175894Y133455D01*
X176062Y133524D01*
X176232Y133590D01*
X176403Y133652D01*
X176575Y133709D01*
X176749Y133763D01*
X176924Y133812D01*
X177100Y133857D01*
X177277Y133898D01*
X177455Y133935D01*
X177634Y133967D01*
X177813Y133995D01*
X177993Y134019D01*
X178174Y134038D01*
X178355Y134053D01*
X178537Y134064D01*
X178718Y134071D01*
X178900Y134073D01*
X178900Y128940D02*
X179082Y128942D01*
X179263Y128949D01*
X179445Y128960D01*
X179626Y128975D01*
X179807Y128994D01*
X179987Y129018D01*
X180166Y129046D01*
X180345Y129078D01*
X180523Y129115D01*
X180700Y129156D01*
X180876Y129201D01*
X181051Y129250D01*
X181225Y129304D01*
X181397Y129361D01*
X181568Y129423D01*
X181738Y129489D01*
X181906Y129558D01*
X182072Y129632D01*
X182236Y129710D01*
X182315Y129739D01*
X182392Y129771D01*
X182469Y129807D01*
X182543Y129846D01*
X182616Y129889D01*
X182686Y129935D01*
X182755Y129983D01*
X182821Y130035D01*
X182885Y130090D01*
X182947Y130147D01*
X183005Y130207D01*
X183062Y130270D01*
X183115Y130335D01*
X183165Y130402D01*
X183213Y130472D01*
X183257Y130543D01*
X183298Y130617D01*
X183336Y130692D01*
X183370Y130769D01*
X183401Y130847D01*
X183428Y130926D01*
X183452Y131007D01*
X183473Y131089D01*
X183489Y131171D01*
X183502Y131254D01*
X183512Y131338D01*
X183517Y131422D01*
X183519Y131506D01*
X182236Y133303D02*
X182072Y133381D01*
X181906Y133455D01*
X181738Y133524D01*
X181568Y133590D01*
X181397Y133652D01*
X181225Y133709D01*
X181051Y133763D01*
X180876Y133812D01*
X180700Y133857D01*
X180523Y133898D01*
X180345Y133935D01*
X180166Y133967D01*
X179987Y133995D01*
X179807Y134019D01*
X179626Y134038D01*
X179445Y134053D01*
X179263Y134064D01*
X179082Y134071D01*
X178900Y134073D01*
X182236Y133302D02*
X182315Y133273D01*
X182392Y133241D01*
X182469Y133205D01*
X182543Y133166D01*
X182616Y133123D01*
X182686Y133077D01*
X182755Y133029D01*
X182821Y132977D01*
X182885Y132922D01*
X182947Y132865D01*
X183005Y132805D01*
X183062Y132742D01*
X183115Y132677D01*
X183165Y132610D01*
X183213Y132540D01*
X183257Y132469D01*
X183298Y132395D01*
X183336Y132320D01*
X183370Y132243D01*
X183401Y132165D01*
X183428Y132086D01*
X183452Y132005D01*
X183473Y131923D01*
X183489Y131841D01*
X183502Y131758D01*
X183512Y131674D01*
X183517Y131590D01*
X183519Y131506D01*
X181466Y129454D02*
X176334Y133559D01*
D13*
X8281Y36406D02*
X8281Y29294D01*
X8281Y36406D02*
X10257Y36406D01*
X10343Y36404D01*
X10429Y36398D01*
X10515Y36389D01*
X10600Y36376D01*
X10685Y36359D01*
X10768Y36339D01*
X10851Y36315D01*
X10933Y36287D01*
X11013Y36256D01*
X11092Y36221D01*
X11169Y36183D01*
X11245Y36141D01*
X11319Y36097D01*
X11390Y36049D01*
X11460Y35998D01*
X11527Y35944D01*
X11592Y35887D01*
X11654Y35827D01*
X11714Y35765D01*
X11771Y35700D01*
X11825Y35633D01*
X11876Y35563D01*
X11924Y35492D01*
X11968Y35418D01*
X12010Y35342D01*
X12048Y35265D01*
X12083Y35186D01*
X12114Y35106D01*
X12142Y35024D01*
X12166Y34941D01*
X12186Y34858D01*
X12203Y34773D01*
X12216Y34688D01*
X12225Y34602D01*
X12231Y34516D01*
X12233Y34430D01*
X12232Y34430D02*
X12232Y31270D01*
X12233Y31270D02*
X12231Y31184D01*
X12225Y31098D01*
X12216Y31012D01*
X12203Y30927D01*
X12186Y30842D01*
X12166Y30759D01*
X12142Y30676D01*
X12114Y30594D01*
X12083Y30514D01*
X12048Y30435D01*
X12010Y30358D01*
X11968Y30282D01*
X11924Y30208D01*
X11876Y30137D01*
X11825Y30067D01*
X11771Y30000D01*
X11714Y29935D01*
X11654Y29873D01*
X11592Y29813D01*
X11527Y29756D01*
X11460Y29702D01*
X11390Y29651D01*
X11319Y29603D01*
X11245Y29559D01*
X11169Y29517D01*
X11092Y29479D01*
X11013Y29444D01*
X10933Y29413D01*
X10851Y29385D01*
X10768Y29361D01*
X10685Y29341D01*
X10600Y29324D01*
X10515Y29311D01*
X10429Y29302D01*
X10343Y29296D01*
X10257Y29294D01*
X8281Y29294D01*
X15368Y32850D02*
X15370Y32998D01*
X15375Y33145D01*
X15385Y33293D01*
X15398Y33440D01*
X15414Y33587D01*
X15435Y33733D01*
X15459Y33879D01*
X15487Y34024D01*
X15518Y34168D01*
X15553Y34311D01*
X15592Y34454D01*
X15634Y34595D01*
X15680Y34736D01*
X15729Y34875D01*
X15782Y35013D01*
X15838Y35150D01*
X15898Y35285D01*
X15961Y35418D01*
X15960Y35418D02*
X15986Y35489D01*
X16016Y35558D01*
X16050Y35626D01*
X16087Y35692D01*
X16127Y35756D01*
X16171Y35818D01*
X16217Y35877D01*
X16267Y35934D01*
X16320Y35988D01*
X16375Y36040D01*
X16433Y36088D01*
X16493Y36134D01*
X16556Y36176D01*
X16621Y36215D01*
X16687Y36251D01*
X16756Y36283D01*
X16825Y36311D01*
X16897Y36336D01*
X16969Y36357D01*
X17043Y36375D01*
X17117Y36388D01*
X17192Y36398D01*
X17267Y36404D01*
X17343Y36406D01*
X17419Y36404D01*
X17494Y36398D01*
X17569Y36388D01*
X17643Y36375D01*
X17717Y36357D01*
X17789Y36336D01*
X17860Y36311D01*
X17930Y36283D01*
X17999Y36251D01*
X18065Y36215D01*
X18130Y36176D01*
X18193Y36134D01*
X18253Y36088D01*
X18311Y36040D01*
X18366Y35988D01*
X18419Y35934D01*
X18469Y35877D01*
X18515Y35818D01*
X18559Y35756D01*
X18599Y35692D01*
X18636Y35626D01*
X18670Y35558D01*
X18700Y35489D01*
X18726Y35418D01*
X18789Y35285D01*
X18849Y35150D01*
X18905Y35013D01*
X18958Y34875D01*
X19007Y34736D01*
X19053Y34595D01*
X19095Y34454D01*
X19134Y34311D01*
X19169Y34168D01*
X19200Y34024D01*
X19228Y33879D01*
X19252Y33733D01*
X19273Y33587D01*
X19289Y33440D01*
X19302Y33293D01*
X19312Y33145D01*
X19317Y32998D01*
X19319Y32850D01*
X15368Y32850D02*
X15370Y32702D01*
X15375Y32555D01*
X15385Y32407D01*
X15398Y32260D01*
X15414Y32113D01*
X15435Y31967D01*
X15459Y31822D01*
X15487Y31676D01*
X15518Y31532D01*
X15553Y31389D01*
X15592Y31246D01*
X15634Y31105D01*
X15680Y30964D01*
X15729Y30825D01*
X15782Y30687D01*
X15838Y30550D01*
X15898Y30415D01*
X15961Y30282D01*
X15960Y30282D02*
X15986Y30211D01*
X16016Y30142D01*
X16050Y30074D01*
X16087Y30008D01*
X16127Y29944D01*
X16171Y29882D01*
X16217Y29823D01*
X16267Y29766D01*
X16320Y29712D01*
X16375Y29660D01*
X16433Y29612D01*
X16493Y29566D01*
X16556Y29524D01*
X16621Y29485D01*
X16687Y29449D01*
X16756Y29417D01*
X16826Y29389D01*
X16897Y29364D01*
X16969Y29343D01*
X17043Y29325D01*
X17117Y29312D01*
X17192Y29302D01*
X17267Y29296D01*
X17343Y29294D01*
X18726Y30282D02*
X18789Y30415D01*
X18849Y30550D01*
X18905Y30687D01*
X18958Y30825D01*
X19007Y30964D01*
X19053Y31105D01*
X19095Y31246D01*
X19134Y31389D01*
X19169Y31532D01*
X19200Y31676D01*
X19228Y31822D01*
X19252Y31967D01*
X19273Y32113D01*
X19289Y32260D01*
X19302Y32407D01*
X19312Y32555D01*
X19317Y32702D01*
X19319Y32850D01*
X18726Y30282D02*
X18700Y30211D01*
X18670Y30142D01*
X18636Y30074D01*
X18599Y30008D01*
X18559Y29944D01*
X18515Y29882D01*
X18469Y29823D01*
X18419Y29766D01*
X18366Y29712D01*
X18311Y29660D01*
X18253Y29612D01*
X18193Y29566D01*
X18130Y29524D01*
X18065Y29485D01*
X17999Y29449D01*
X17930Y29417D01*
X17860Y29389D01*
X17789Y29364D01*
X17717Y29343D01*
X17643Y29325D01*
X17569Y29312D01*
X17494Y29302D01*
X17419Y29296D01*
X17343Y29294D01*
X15763Y30874D02*
X18924Y34826D01*
X33681Y36406D02*
X33681Y29294D01*
X33681Y36406D02*
X35657Y36406D01*
X35743Y36404D01*
X35829Y36398D01*
X35915Y36389D01*
X36000Y36376D01*
X36085Y36359D01*
X36168Y36339D01*
X36251Y36315D01*
X36333Y36287D01*
X36413Y36256D01*
X36492Y36221D01*
X36569Y36183D01*
X36645Y36141D01*
X36719Y36097D01*
X36790Y36049D01*
X36860Y35998D01*
X36927Y35944D01*
X36992Y35887D01*
X37054Y35827D01*
X37114Y35765D01*
X37171Y35700D01*
X37225Y35633D01*
X37276Y35563D01*
X37324Y35492D01*
X37368Y35418D01*
X37410Y35342D01*
X37448Y35265D01*
X37483Y35186D01*
X37514Y35106D01*
X37542Y35024D01*
X37566Y34941D01*
X37586Y34858D01*
X37603Y34773D01*
X37616Y34688D01*
X37625Y34602D01*
X37631Y34516D01*
X37633Y34430D01*
X37632Y34430D02*
X37632Y31270D01*
X37633Y31270D02*
X37631Y31184D01*
X37625Y31098D01*
X37616Y31012D01*
X37603Y30927D01*
X37586Y30842D01*
X37566Y30759D01*
X37542Y30676D01*
X37514Y30594D01*
X37483Y30514D01*
X37448Y30435D01*
X37410Y30358D01*
X37368Y30282D01*
X37324Y30208D01*
X37276Y30137D01*
X37225Y30067D01*
X37171Y30000D01*
X37114Y29935D01*
X37054Y29873D01*
X36992Y29813D01*
X36927Y29756D01*
X36860Y29702D01*
X36790Y29651D01*
X36719Y29603D01*
X36645Y29559D01*
X36569Y29517D01*
X36492Y29479D01*
X36413Y29444D01*
X36333Y29413D01*
X36251Y29385D01*
X36168Y29361D01*
X36085Y29341D01*
X36000Y29324D01*
X35915Y29311D01*
X35829Y29302D01*
X35743Y29296D01*
X35657Y29294D01*
X33681Y29294D01*
X40768Y34826D02*
X42743Y36406D01*
X42743Y29294D01*
X40768Y29294D02*
X44719Y29294D01*
X59081Y29294D02*
X59081Y36406D01*
X61057Y36406D01*
X61143Y36404D01*
X61229Y36398D01*
X61315Y36389D01*
X61400Y36376D01*
X61485Y36359D01*
X61568Y36339D01*
X61651Y36315D01*
X61733Y36287D01*
X61813Y36256D01*
X61892Y36221D01*
X61969Y36183D01*
X62045Y36141D01*
X62119Y36097D01*
X62190Y36049D01*
X62260Y35998D01*
X62327Y35944D01*
X62392Y35887D01*
X62454Y35827D01*
X62514Y35765D01*
X62571Y35700D01*
X62625Y35633D01*
X62676Y35563D01*
X62724Y35492D01*
X62768Y35418D01*
X62810Y35342D01*
X62848Y35265D01*
X62883Y35186D01*
X62914Y35106D01*
X62942Y35024D01*
X62966Y34941D01*
X62986Y34858D01*
X63003Y34773D01*
X63016Y34688D01*
X63025Y34602D01*
X63031Y34516D01*
X63033Y34430D01*
X63032Y34430D02*
X63032Y31270D01*
X63033Y31270D02*
X63031Y31184D01*
X63025Y31098D01*
X63016Y31012D01*
X63003Y30927D01*
X62986Y30842D01*
X62966Y30759D01*
X62942Y30676D01*
X62914Y30594D01*
X62883Y30514D01*
X62848Y30435D01*
X62810Y30358D01*
X62768Y30282D01*
X62724Y30208D01*
X62676Y30137D01*
X62625Y30067D01*
X62571Y30000D01*
X62514Y29935D01*
X62454Y29873D01*
X62392Y29813D01*
X62327Y29756D01*
X62260Y29702D01*
X62190Y29651D01*
X62119Y29603D01*
X62045Y29559D01*
X61969Y29517D01*
X61892Y29479D01*
X61813Y29444D01*
X61733Y29413D01*
X61651Y29385D01*
X61568Y29361D01*
X61485Y29341D01*
X61400Y29324D01*
X61315Y29311D01*
X61229Y29302D01*
X61143Y29296D01*
X61057Y29294D01*
X59081Y29294D01*
X68341Y36406D02*
X68423Y36404D01*
X68505Y36398D01*
X68587Y36389D01*
X68668Y36376D01*
X68748Y36359D01*
X68828Y36338D01*
X68906Y36314D01*
X68983Y36286D01*
X69059Y36255D01*
X69134Y36220D01*
X69206Y36181D01*
X69277Y36140D01*
X69346Y36095D01*
X69412Y36047D01*
X69477Y35996D01*
X69539Y35942D01*
X69598Y35885D01*
X69655Y35826D01*
X69709Y35764D01*
X69760Y35699D01*
X69808Y35633D01*
X69853Y35564D01*
X69894Y35493D01*
X69933Y35421D01*
X69968Y35346D01*
X69999Y35270D01*
X70027Y35193D01*
X70051Y35115D01*
X70072Y35035D01*
X70089Y34955D01*
X70102Y34874D01*
X70111Y34792D01*
X70117Y34710D01*
X70119Y34628D01*
X68341Y36406D02*
X68248Y36404D01*
X68156Y36398D01*
X68064Y36389D01*
X67972Y36376D01*
X67881Y36359D01*
X67791Y36339D01*
X67701Y36315D01*
X67613Y36287D01*
X67525Y36255D01*
X67440Y36221D01*
X67355Y36182D01*
X67273Y36141D01*
X67192Y36096D01*
X67112Y36047D01*
X67035Y35996D01*
X66960Y35942D01*
X66888Y35884D01*
X66818Y35824D01*
X66750Y35760D01*
X66685Y35695D01*
X66622Y35626D01*
X66563Y35555D01*
X66506Y35482D01*
X66452Y35406D01*
X66402Y35329D01*
X66354Y35249D01*
X66310Y35168D01*
X66270Y35084D01*
X66232Y35000D01*
X66198Y34913D01*
X66168Y34826D01*
X69526Y33245D02*
X69587Y33306D01*
X69645Y33369D01*
X69700Y33435D01*
X69753Y33503D01*
X69802Y33574D01*
X69847Y33646D01*
X69890Y33721D01*
X69929Y33797D01*
X69965Y33876D01*
X69997Y33955D01*
X70025Y34036D01*
X70050Y34119D01*
X70071Y34202D01*
X70088Y34286D01*
X70102Y34371D01*
X70111Y34456D01*
X70117Y34542D01*
X70119Y34628D01*
X69526Y33245D02*
X66168Y29294D01*
X70119Y29294D01*
X84481Y29294D02*
X84481Y36406D01*
X86457Y36406D01*
X86543Y36404D01*
X86629Y36398D01*
X86715Y36389D01*
X86800Y36376D01*
X86885Y36359D01*
X86968Y36339D01*
X87051Y36315D01*
X87133Y36287D01*
X87213Y36256D01*
X87292Y36221D01*
X87369Y36183D01*
X87445Y36141D01*
X87519Y36097D01*
X87590Y36049D01*
X87660Y35998D01*
X87727Y35944D01*
X87792Y35887D01*
X87854Y35827D01*
X87914Y35765D01*
X87971Y35700D01*
X88025Y35633D01*
X88076Y35563D01*
X88124Y35492D01*
X88168Y35418D01*
X88210Y35342D01*
X88248Y35265D01*
X88283Y35186D01*
X88314Y35106D01*
X88342Y35024D01*
X88366Y34941D01*
X88386Y34858D01*
X88403Y34773D01*
X88416Y34688D01*
X88425Y34602D01*
X88431Y34516D01*
X88433Y34430D01*
X88432Y34430D02*
X88432Y31270D01*
X88433Y31270D02*
X88431Y31184D01*
X88425Y31098D01*
X88416Y31012D01*
X88403Y30927D01*
X88386Y30842D01*
X88366Y30759D01*
X88342Y30676D01*
X88314Y30594D01*
X88283Y30514D01*
X88248Y30435D01*
X88210Y30358D01*
X88168Y30282D01*
X88124Y30208D01*
X88076Y30137D01*
X88025Y30067D01*
X87971Y30000D01*
X87914Y29935D01*
X87854Y29873D01*
X87792Y29813D01*
X87727Y29756D01*
X87660Y29702D01*
X87590Y29651D01*
X87519Y29603D01*
X87445Y29559D01*
X87369Y29517D01*
X87292Y29479D01*
X87213Y29444D01*
X87133Y29413D01*
X87051Y29385D01*
X86968Y29361D01*
X86885Y29341D01*
X86800Y29324D01*
X86715Y29311D01*
X86629Y29302D01*
X86543Y29296D01*
X86457Y29294D01*
X84481Y29294D01*
X91568Y29294D02*
X93543Y29294D01*
X93630Y29296D01*
X93718Y29302D01*
X93805Y29311D01*
X93891Y29325D01*
X93977Y29342D01*
X94061Y29363D01*
X94145Y29388D01*
X94228Y29417D01*
X94309Y29449D01*
X94389Y29484D01*
X94467Y29523D01*
X94544Y29566D01*
X94618Y29612D01*
X94690Y29661D01*
X94760Y29713D01*
X94828Y29769D01*
X94893Y29827D01*
X94956Y29888D01*
X95015Y29952D01*
X95072Y30019D01*
X95126Y30087D01*
X95177Y30159D01*
X95224Y30232D01*
X95269Y30307D01*
X95310Y30385D01*
X95347Y30464D01*
X95381Y30544D01*
X95411Y30626D01*
X95438Y30709D01*
X95461Y30794D01*
X95480Y30879D01*
X95495Y30965D01*
X95507Y31052D01*
X95515Y31139D01*
X95519Y31226D01*
X95519Y31314D01*
X95515Y31401D01*
X95507Y31488D01*
X95495Y31575D01*
X95480Y31661D01*
X95461Y31746D01*
X95438Y31831D01*
X95411Y31914D01*
X95381Y31996D01*
X95347Y32076D01*
X95310Y32155D01*
X95269Y32233D01*
X95224Y32308D01*
X95177Y32381D01*
X95126Y32453D01*
X95072Y32521D01*
X95015Y32588D01*
X94956Y32652D01*
X94893Y32713D01*
X94828Y32771D01*
X94760Y32827D01*
X94690Y32879D01*
X94618Y32928D01*
X94544Y32974D01*
X94467Y33017D01*
X94389Y33056D01*
X94309Y33091D01*
X94228Y33123D01*
X94145Y33152D01*
X94061Y33177D01*
X93977Y33198D01*
X93891Y33215D01*
X93805Y33229D01*
X93718Y33238D01*
X93630Y33244D01*
X93543Y33246D01*
X93938Y36406D02*
X91568Y36406D01*
X93938Y36406D02*
X94017Y36404D01*
X94095Y36398D01*
X94173Y36388D01*
X94251Y36375D01*
X94328Y36357D01*
X94404Y36336D01*
X94478Y36311D01*
X94552Y36282D01*
X94624Y36250D01*
X94694Y36214D01*
X94762Y36174D01*
X94828Y36131D01*
X94892Y36085D01*
X94954Y36036D01*
X95013Y35984D01*
X95069Y35929D01*
X95123Y35871D01*
X95173Y35811D01*
X95221Y35748D01*
X95265Y35683D01*
X95306Y35616D01*
X95344Y35547D01*
X95378Y35476D01*
X95409Y35403D01*
X95436Y35329D01*
X95459Y35254D01*
X95478Y35178D01*
X95494Y35100D01*
X95506Y35022D01*
X95514Y34944D01*
X95518Y34865D01*
X95518Y34787D01*
X95514Y34708D01*
X95506Y34630D01*
X95494Y34552D01*
X95478Y34474D01*
X95459Y34398D01*
X95436Y34323D01*
X95409Y34249D01*
X95378Y34176D01*
X95344Y34105D01*
X95306Y34036D01*
X95265Y33969D01*
X95221Y33904D01*
X95173Y33841D01*
X95123Y33781D01*
X95069Y33723D01*
X95013Y33668D01*
X94954Y33616D01*
X94892Y33567D01*
X94828Y33521D01*
X94762Y33478D01*
X94694Y33438D01*
X94624Y33402D01*
X94552Y33370D01*
X94478Y33341D01*
X94404Y33316D01*
X94328Y33295D01*
X94251Y33277D01*
X94173Y33264D01*
X94095Y33254D01*
X94017Y33248D01*
X93938Y33246D01*
X93938Y33245D02*
X92358Y33245D01*
X109881Y36406D02*
X109881Y29294D01*
X109881Y36406D02*
X111857Y36406D01*
X111943Y36404D01*
X112029Y36398D01*
X112115Y36389D01*
X112200Y36376D01*
X112285Y36359D01*
X112368Y36339D01*
X112451Y36315D01*
X112533Y36287D01*
X112613Y36256D01*
X112692Y36221D01*
X112769Y36183D01*
X112845Y36141D01*
X112919Y36097D01*
X112990Y36049D01*
X113060Y35998D01*
X113127Y35944D01*
X113192Y35887D01*
X113254Y35827D01*
X113314Y35765D01*
X113371Y35700D01*
X113425Y35633D01*
X113476Y35563D01*
X113524Y35492D01*
X113568Y35418D01*
X113610Y35342D01*
X113648Y35265D01*
X113683Y35186D01*
X113714Y35106D01*
X113742Y35024D01*
X113766Y34941D01*
X113786Y34858D01*
X113803Y34773D01*
X113816Y34688D01*
X113825Y34602D01*
X113831Y34516D01*
X113833Y34430D01*
X113832Y34430D02*
X113832Y31270D01*
X113833Y31270D02*
X113831Y31184D01*
X113825Y31098D01*
X113816Y31012D01*
X113803Y30927D01*
X113786Y30842D01*
X113766Y30759D01*
X113742Y30676D01*
X113714Y30594D01*
X113683Y30514D01*
X113648Y30435D01*
X113610Y30358D01*
X113568Y30282D01*
X113524Y30208D01*
X113476Y30137D01*
X113425Y30067D01*
X113371Y30000D01*
X113314Y29935D01*
X113254Y29873D01*
X113192Y29813D01*
X113127Y29756D01*
X113060Y29702D01*
X112990Y29651D01*
X112919Y29603D01*
X112845Y29559D01*
X112769Y29517D01*
X112692Y29479D01*
X112613Y29444D01*
X112533Y29413D01*
X112451Y29385D01*
X112368Y29361D01*
X112285Y29341D01*
X112200Y29324D01*
X112115Y29311D01*
X112029Y29302D01*
X111943Y29296D01*
X111857Y29294D01*
X109881Y29294D01*
X116968Y30874D02*
X118548Y36406D01*
X116968Y30874D02*
X120919Y30874D01*
X119733Y29294D02*
X119733Y32455D01*
X135281Y29294D02*
X135281Y36406D01*
X137257Y36406D01*
X137343Y36404D01*
X137429Y36398D01*
X137515Y36389D01*
X137600Y36376D01*
X137685Y36359D01*
X137768Y36339D01*
X137851Y36315D01*
X137933Y36287D01*
X138013Y36256D01*
X138092Y36221D01*
X138169Y36183D01*
X138245Y36141D01*
X138319Y36097D01*
X138390Y36049D01*
X138460Y35998D01*
X138527Y35944D01*
X138592Y35887D01*
X138654Y35827D01*
X138714Y35765D01*
X138771Y35700D01*
X138825Y35633D01*
X138876Y35563D01*
X138924Y35492D01*
X138968Y35418D01*
X139010Y35342D01*
X139048Y35265D01*
X139083Y35186D01*
X139114Y35106D01*
X139142Y35024D01*
X139166Y34941D01*
X139186Y34858D01*
X139203Y34773D01*
X139216Y34688D01*
X139225Y34602D01*
X139231Y34516D01*
X139233Y34430D01*
X139232Y34430D02*
X139232Y31270D01*
X139233Y31270D02*
X139231Y31184D01*
X139225Y31098D01*
X139216Y31012D01*
X139203Y30927D01*
X139186Y30842D01*
X139166Y30759D01*
X139142Y30676D01*
X139114Y30594D01*
X139083Y30514D01*
X139048Y30435D01*
X139010Y30358D01*
X138968Y30282D01*
X138924Y30208D01*
X138876Y30137D01*
X138825Y30067D01*
X138771Y30000D01*
X138714Y29935D01*
X138654Y29873D01*
X138592Y29813D01*
X138527Y29756D01*
X138460Y29702D01*
X138390Y29651D01*
X138319Y29603D01*
X138245Y29559D01*
X138169Y29517D01*
X138092Y29479D01*
X138013Y29444D01*
X137933Y29413D01*
X137851Y29385D01*
X137768Y29361D01*
X137685Y29341D01*
X137600Y29324D01*
X137515Y29311D01*
X137429Y29302D01*
X137343Y29296D01*
X137257Y29294D01*
X135281Y29294D01*
X142368Y29294D02*
X144738Y29294D01*
X144816Y29296D01*
X144893Y29302D01*
X144970Y29311D01*
X145046Y29324D01*
X145122Y29341D01*
X145197Y29362D01*
X145270Y29386D01*
X145343Y29414D01*
X145414Y29446D01*
X145483Y29481D01*
X145550Y29519D01*
X145616Y29560D01*
X145679Y29605D01*
X145740Y29653D01*
X145799Y29703D01*
X145855Y29757D01*
X145909Y29813D01*
X145959Y29872D01*
X146007Y29933D01*
X146052Y29996D01*
X146093Y30062D01*
X146131Y30129D01*
X146166Y30198D01*
X146198Y30269D01*
X146226Y30342D01*
X146250Y30415D01*
X146271Y30490D01*
X146288Y30566D01*
X146301Y30642D01*
X146310Y30719D01*
X146316Y30796D01*
X146318Y30874D01*
X146319Y30874D02*
X146319Y31665D01*
X146318Y31665D02*
X146316Y31743D01*
X146310Y31820D01*
X146301Y31897D01*
X146288Y31973D01*
X146271Y32049D01*
X146250Y32124D01*
X146226Y32197D01*
X146198Y32270D01*
X146166Y32341D01*
X146131Y32410D01*
X146093Y32477D01*
X146052Y32543D01*
X146007Y32606D01*
X145959Y32667D01*
X145909Y32726D01*
X145855Y32782D01*
X145799Y32836D01*
X145740Y32886D01*
X145679Y32934D01*
X145616Y32979D01*
X145550Y33020D01*
X145483Y33058D01*
X145414Y33093D01*
X145343Y33125D01*
X145270Y33153D01*
X145197Y33177D01*
X145122Y33198D01*
X145046Y33215D01*
X144970Y33228D01*
X144893Y33237D01*
X144816Y33243D01*
X144738Y33245D01*
X142368Y33245D01*
X142368Y36406D01*
X146319Y36406D01*
X160681Y36406D02*
X160681Y29294D01*
X160681Y36406D02*
X162657Y36406D01*
X162743Y36404D01*
X162829Y36398D01*
X162915Y36389D01*
X163000Y36376D01*
X163085Y36359D01*
X163168Y36339D01*
X163251Y36315D01*
X163333Y36287D01*
X163413Y36256D01*
X163492Y36221D01*
X163569Y36183D01*
X163645Y36141D01*
X163719Y36097D01*
X163790Y36049D01*
X163860Y35998D01*
X163927Y35944D01*
X163992Y35887D01*
X164054Y35827D01*
X164114Y35765D01*
X164171Y35700D01*
X164225Y35633D01*
X164276Y35563D01*
X164324Y35492D01*
X164368Y35418D01*
X164410Y35342D01*
X164448Y35265D01*
X164483Y35186D01*
X164514Y35106D01*
X164542Y35024D01*
X164566Y34941D01*
X164586Y34858D01*
X164603Y34773D01*
X164616Y34688D01*
X164625Y34602D01*
X164631Y34516D01*
X164633Y34430D01*
X164632Y34430D02*
X164632Y31270D01*
X164633Y31270D02*
X164631Y31184D01*
X164625Y31098D01*
X164616Y31012D01*
X164603Y30927D01*
X164586Y30842D01*
X164566Y30759D01*
X164542Y30676D01*
X164514Y30594D01*
X164483Y30514D01*
X164448Y30435D01*
X164410Y30358D01*
X164368Y30282D01*
X164324Y30208D01*
X164276Y30137D01*
X164225Y30067D01*
X164171Y30000D01*
X164114Y29935D01*
X164054Y29873D01*
X163992Y29813D01*
X163927Y29756D01*
X163860Y29702D01*
X163790Y29651D01*
X163719Y29603D01*
X163645Y29559D01*
X163569Y29517D01*
X163492Y29479D01*
X163413Y29444D01*
X163333Y29413D01*
X163251Y29385D01*
X163168Y29361D01*
X163085Y29341D01*
X163000Y29324D01*
X162915Y29311D01*
X162829Y29302D01*
X162743Y29296D01*
X162657Y29294D01*
X160681Y29294D01*
X167768Y33245D02*
X170138Y33245D01*
X170216Y33243D01*
X170293Y33237D01*
X170370Y33228D01*
X170446Y33215D01*
X170522Y33198D01*
X170597Y33177D01*
X170670Y33153D01*
X170743Y33125D01*
X170814Y33093D01*
X170883Y33058D01*
X170950Y33020D01*
X171016Y32979D01*
X171079Y32934D01*
X171140Y32886D01*
X171199Y32836D01*
X171255Y32782D01*
X171309Y32726D01*
X171359Y32667D01*
X171407Y32606D01*
X171452Y32543D01*
X171493Y32477D01*
X171531Y32410D01*
X171566Y32341D01*
X171598Y32270D01*
X171626Y32197D01*
X171650Y32124D01*
X171671Y32049D01*
X171688Y31973D01*
X171701Y31897D01*
X171710Y31820D01*
X171716Y31743D01*
X171718Y31665D01*
X171719Y31665D02*
X171719Y31270D01*
X171717Y31183D01*
X171711Y31095D01*
X171702Y31008D01*
X171688Y30922D01*
X171671Y30836D01*
X171650Y30752D01*
X171625Y30668D01*
X171596Y30585D01*
X171564Y30504D01*
X171529Y30424D01*
X171490Y30346D01*
X171447Y30269D01*
X171401Y30195D01*
X171352Y30123D01*
X171300Y30053D01*
X171244Y29985D01*
X171186Y29920D01*
X171125Y29857D01*
X171061Y29798D01*
X170994Y29741D01*
X170926Y29687D01*
X170854Y29636D01*
X170781Y29589D01*
X170706Y29544D01*
X170628Y29503D01*
X170549Y29466D01*
X170469Y29432D01*
X170387Y29402D01*
X170304Y29375D01*
X170219Y29352D01*
X170134Y29333D01*
X170048Y29318D01*
X169961Y29306D01*
X169874Y29298D01*
X169787Y29294D01*
X169699Y29294D01*
X169612Y29298D01*
X169525Y29306D01*
X169438Y29318D01*
X169352Y29333D01*
X169267Y29352D01*
X169182Y29375D01*
X169099Y29402D01*
X169017Y29432D01*
X168937Y29466D01*
X168858Y29503D01*
X168780Y29544D01*
X168705Y29589D01*
X168632Y29636D01*
X168560Y29687D01*
X168492Y29741D01*
X168425Y29798D01*
X168361Y29857D01*
X168300Y29920D01*
X168242Y29985D01*
X168186Y30053D01*
X168134Y30123D01*
X168085Y30195D01*
X168039Y30269D01*
X167996Y30346D01*
X167957Y30424D01*
X167922Y30504D01*
X167890Y30585D01*
X167861Y30668D01*
X167836Y30752D01*
X167815Y30836D01*
X167798Y30922D01*
X167784Y31008D01*
X167775Y31095D01*
X167769Y31183D01*
X167767Y31270D01*
X167768Y31270D02*
X167768Y33245D01*
X167770Y33355D01*
X167776Y33465D01*
X167785Y33575D01*
X167799Y33685D01*
X167816Y33794D01*
X167837Y33902D01*
X167862Y34010D01*
X167890Y34116D01*
X167923Y34222D01*
X167959Y34326D01*
X167998Y34429D01*
X168041Y34531D01*
X168088Y34631D01*
X168138Y34729D01*
X168191Y34825D01*
X168248Y34920D01*
X168308Y35013D01*
X168372Y35103D01*
X168438Y35191D01*
X168508Y35277D01*
X168580Y35360D01*
X168655Y35441D01*
X168733Y35519D01*
X168814Y35594D01*
X168897Y35666D01*
X168983Y35736D01*
X169071Y35802D01*
X169161Y35866D01*
X169254Y35926D01*
X169348Y35982D01*
X169445Y36036D01*
X169543Y36086D01*
X169643Y36133D01*
X169745Y36176D01*
X169848Y36215D01*
X169952Y36251D01*
X170058Y36284D01*
X170164Y36312D01*
X170272Y36337D01*
X170380Y36358D01*
X170489Y36375D01*
X170599Y36389D01*
X170708Y36398D01*
X170819Y36404D01*
X170929Y36406D01*
X160681Y143594D02*
X160681Y150706D01*
X162657Y150706D01*
X162743Y150704D01*
X162829Y150698D01*
X162915Y150689D01*
X163000Y150676D01*
X163085Y150659D01*
X163168Y150639D01*
X163251Y150615D01*
X163333Y150587D01*
X163413Y150556D01*
X163492Y150521D01*
X163569Y150483D01*
X163645Y150441D01*
X163719Y150397D01*
X163790Y150349D01*
X163860Y150298D01*
X163927Y150244D01*
X163992Y150187D01*
X164054Y150127D01*
X164114Y150065D01*
X164171Y150000D01*
X164225Y149933D01*
X164276Y149863D01*
X164324Y149792D01*
X164368Y149718D01*
X164410Y149642D01*
X164448Y149565D01*
X164483Y149486D01*
X164514Y149406D01*
X164542Y149324D01*
X164566Y149241D01*
X164586Y149158D01*
X164603Y149073D01*
X164616Y148988D01*
X164625Y148902D01*
X164631Y148816D01*
X164633Y148730D01*
X164632Y148730D02*
X164632Y145570D01*
X164633Y145570D02*
X164631Y145484D01*
X164625Y145398D01*
X164616Y145312D01*
X164603Y145227D01*
X164586Y145142D01*
X164566Y145059D01*
X164542Y144976D01*
X164514Y144894D01*
X164483Y144814D01*
X164448Y144735D01*
X164410Y144658D01*
X164368Y144582D01*
X164324Y144508D01*
X164276Y144437D01*
X164225Y144367D01*
X164171Y144300D01*
X164114Y144235D01*
X164054Y144173D01*
X163992Y144113D01*
X163927Y144056D01*
X163860Y144002D01*
X163790Y143951D01*
X163719Y143903D01*
X163645Y143859D01*
X163569Y143817D01*
X163492Y143779D01*
X163413Y143744D01*
X163333Y143713D01*
X163251Y143685D01*
X163168Y143661D01*
X163085Y143641D01*
X163000Y143624D01*
X162915Y143611D01*
X162829Y143602D01*
X162743Y143596D01*
X162657Y143594D01*
X160681Y143594D01*
X167768Y149916D02*
X167768Y150706D01*
X171719Y150706D01*
X169743Y143594D01*
X135281Y143594D02*
X135281Y150706D01*
X137257Y150706D01*
X137343Y150704D01*
X137429Y150698D01*
X137515Y150689D01*
X137600Y150676D01*
X137685Y150659D01*
X137768Y150639D01*
X137851Y150615D01*
X137933Y150587D01*
X138013Y150556D01*
X138092Y150521D01*
X138169Y150483D01*
X138245Y150441D01*
X138319Y150397D01*
X138390Y150349D01*
X138460Y150298D01*
X138527Y150244D01*
X138592Y150187D01*
X138654Y150127D01*
X138714Y150065D01*
X138771Y150000D01*
X138825Y149933D01*
X138876Y149863D01*
X138924Y149792D01*
X138968Y149718D01*
X139010Y149642D01*
X139048Y149565D01*
X139083Y149486D01*
X139114Y149406D01*
X139142Y149324D01*
X139166Y149241D01*
X139186Y149158D01*
X139203Y149073D01*
X139216Y148988D01*
X139225Y148902D01*
X139231Y148816D01*
X139233Y148730D01*
X139232Y148730D02*
X139232Y145570D01*
X139233Y145570D02*
X139231Y145484D01*
X139225Y145398D01*
X139216Y145312D01*
X139203Y145227D01*
X139186Y145142D01*
X139166Y145059D01*
X139142Y144976D01*
X139114Y144894D01*
X139083Y144814D01*
X139048Y144735D01*
X139010Y144658D01*
X138968Y144582D01*
X138924Y144508D01*
X138876Y144437D01*
X138825Y144367D01*
X138771Y144300D01*
X138714Y144235D01*
X138654Y144173D01*
X138592Y144113D01*
X138527Y144056D01*
X138460Y144002D01*
X138390Y143951D01*
X138319Y143903D01*
X138245Y143859D01*
X138169Y143817D01*
X138092Y143779D01*
X138013Y143744D01*
X137933Y143713D01*
X137851Y143685D01*
X137768Y143661D01*
X137685Y143641D01*
X137600Y143624D01*
X137515Y143611D01*
X137429Y143602D01*
X137343Y143596D01*
X137257Y143594D01*
X135281Y143594D01*
X142367Y145570D02*
X142369Y145657D01*
X142375Y145745D01*
X142384Y145832D01*
X142398Y145918D01*
X142415Y146004D01*
X142436Y146088D01*
X142461Y146172D01*
X142490Y146255D01*
X142522Y146336D01*
X142557Y146416D01*
X142596Y146494D01*
X142639Y146571D01*
X142685Y146645D01*
X142734Y146717D01*
X142786Y146787D01*
X142842Y146855D01*
X142900Y146920D01*
X142961Y146983D01*
X143025Y147042D01*
X143092Y147099D01*
X143160Y147153D01*
X143232Y147204D01*
X143305Y147251D01*
X143380Y147296D01*
X143458Y147337D01*
X143537Y147374D01*
X143617Y147408D01*
X143699Y147438D01*
X143782Y147465D01*
X143867Y147488D01*
X143952Y147507D01*
X144038Y147522D01*
X144125Y147534D01*
X144212Y147542D01*
X144299Y147546D01*
X144387Y147546D01*
X144474Y147542D01*
X144561Y147534D01*
X144648Y147522D01*
X144734Y147507D01*
X144819Y147488D01*
X144904Y147465D01*
X144987Y147438D01*
X145069Y147408D01*
X145149Y147374D01*
X145228Y147337D01*
X145306Y147296D01*
X145381Y147251D01*
X145454Y147204D01*
X145526Y147153D01*
X145594Y147099D01*
X145661Y147042D01*
X145725Y146983D01*
X145786Y146920D01*
X145844Y146855D01*
X145900Y146787D01*
X145952Y146717D01*
X146001Y146645D01*
X146047Y146571D01*
X146090Y146494D01*
X146129Y146416D01*
X146164Y146336D01*
X146196Y146255D01*
X146225Y146172D01*
X146250Y146088D01*
X146271Y146004D01*
X146288Y145918D01*
X146302Y145832D01*
X146311Y145745D01*
X146317Y145657D01*
X146319Y145570D01*
X146317Y145483D01*
X146311Y145395D01*
X146302Y145308D01*
X146288Y145222D01*
X146271Y145136D01*
X146250Y145052D01*
X146225Y144968D01*
X146196Y144885D01*
X146164Y144804D01*
X146129Y144724D01*
X146090Y144646D01*
X146047Y144569D01*
X146001Y144495D01*
X145952Y144423D01*
X145900Y144353D01*
X145844Y144285D01*
X145786Y144220D01*
X145725Y144157D01*
X145661Y144098D01*
X145594Y144041D01*
X145526Y143987D01*
X145454Y143936D01*
X145381Y143889D01*
X145306Y143844D01*
X145228Y143803D01*
X145149Y143766D01*
X145069Y143732D01*
X144987Y143702D01*
X144904Y143675D01*
X144819Y143652D01*
X144734Y143633D01*
X144648Y143618D01*
X144561Y143606D01*
X144474Y143598D01*
X144387Y143594D01*
X144299Y143594D01*
X144212Y143598D01*
X144125Y143606D01*
X144038Y143618D01*
X143952Y143633D01*
X143867Y143652D01*
X143782Y143675D01*
X143699Y143702D01*
X143617Y143732D01*
X143537Y143766D01*
X143458Y143803D01*
X143380Y143844D01*
X143305Y143889D01*
X143232Y143936D01*
X143160Y143987D01*
X143092Y144041D01*
X143025Y144098D01*
X142961Y144157D01*
X142900Y144220D01*
X142842Y144285D01*
X142786Y144353D01*
X142734Y144423D01*
X142685Y144495D01*
X142639Y144569D01*
X142596Y144646D01*
X142557Y144724D01*
X142522Y144804D01*
X142490Y144885D01*
X142461Y144968D01*
X142436Y145052D01*
X142415Y145136D01*
X142398Y145222D01*
X142384Y145308D01*
X142375Y145395D01*
X142369Y145483D01*
X142367Y145570D01*
X142763Y149126D02*
X142765Y149205D01*
X142771Y149283D01*
X142781Y149361D01*
X142794Y149439D01*
X142812Y149516D01*
X142833Y149592D01*
X142858Y149666D01*
X142887Y149740D01*
X142919Y149812D01*
X142955Y149882D01*
X142995Y149950D01*
X143038Y150016D01*
X143084Y150080D01*
X143133Y150142D01*
X143185Y150201D01*
X143240Y150257D01*
X143298Y150311D01*
X143358Y150361D01*
X143421Y150409D01*
X143486Y150453D01*
X143553Y150494D01*
X143622Y150532D01*
X143693Y150566D01*
X143766Y150597D01*
X143840Y150624D01*
X143915Y150647D01*
X143991Y150666D01*
X144069Y150682D01*
X144147Y150694D01*
X144225Y150702D01*
X144304Y150706D01*
X144382Y150706D01*
X144461Y150702D01*
X144539Y150694D01*
X144617Y150682D01*
X144695Y150666D01*
X144771Y150647D01*
X144846Y150624D01*
X144920Y150597D01*
X144993Y150566D01*
X145064Y150532D01*
X145133Y150494D01*
X145200Y150453D01*
X145265Y150409D01*
X145328Y150361D01*
X145388Y150311D01*
X145446Y150257D01*
X145501Y150201D01*
X145553Y150142D01*
X145602Y150080D01*
X145648Y150016D01*
X145691Y149950D01*
X145731Y149882D01*
X145767Y149812D01*
X145799Y149740D01*
X145828Y149666D01*
X145853Y149592D01*
X145874Y149516D01*
X145892Y149439D01*
X145905Y149361D01*
X145915Y149283D01*
X145921Y149205D01*
X145923Y149126D01*
X145921Y149047D01*
X145915Y148969D01*
X145905Y148891D01*
X145892Y148813D01*
X145874Y148736D01*
X145853Y148660D01*
X145828Y148586D01*
X145799Y148512D01*
X145767Y148440D01*
X145731Y148370D01*
X145691Y148302D01*
X145648Y148236D01*
X145602Y148172D01*
X145553Y148110D01*
X145501Y148051D01*
X145446Y147995D01*
X145388Y147941D01*
X145328Y147891D01*
X145265Y147843D01*
X145200Y147799D01*
X145133Y147758D01*
X145064Y147720D01*
X144993Y147686D01*
X144920Y147655D01*
X144846Y147628D01*
X144771Y147605D01*
X144695Y147586D01*
X144617Y147570D01*
X144539Y147558D01*
X144461Y147550D01*
X144382Y147546D01*
X144304Y147546D01*
X144225Y147550D01*
X144147Y147558D01*
X144069Y147570D01*
X143991Y147586D01*
X143915Y147605D01*
X143840Y147628D01*
X143766Y147655D01*
X143693Y147686D01*
X143622Y147720D01*
X143553Y147758D01*
X143486Y147799D01*
X143421Y147843D01*
X143358Y147891D01*
X143298Y147941D01*
X143240Y147995D01*
X143185Y148051D01*
X143133Y148110D01*
X143084Y148172D01*
X143038Y148236D01*
X142995Y148302D01*
X142955Y148370D01*
X142919Y148440D01*
X142887Y148512D01*
X142858Y148586D01*
X142833Y148660D01*
X142812Y148736D01*
X142794Y148813D01*
X142781Y148891D01*
X142771Y148969D01*
X142765Y149047D01*
X142763Y149126D01*
X109881Y150706D02*
X109881Y143594D01*
X109881Y150706D02*
X111857Y150706D01*
X111943Y150704D01*
X112029Y150698D01*
X112115Y150689D01*
X112200Y150676D01*
X112285Y150659D01*
X112368Y150639D01*
X112451Y150615D01*
X112533Y150587D01*
X112613Y150556D01*
X112692Y150521D01*
X112769Y150483D01*
X112845Y150441D01*
X112919Y150397D01*
X112990Y150349D01*
X113060Y150298D01*
X113127Y150244D01*
X113192Y150187D01*
X113254Y150127D01*
X113314Y150065D01*
X113371Y150000D01*
X113425Y149933D01*
X113476Y149863D01*
X113524Y149792D01*
X113568Y149718D01*
X113610Y149642D01*
X113648Y149565D01*
X113683Y149486D01*
X113714Y149406D01*
X113742Y149324D01*
X113766Y149241D01*
X113786Y149158D01*
X113803Y149073D01*
X113816Y148988D01*
X113825Y148902D01*
X113831Y148816D01*
X113833Y148730D01*
X113832Y148730D02*
X113832Y145570D01*
X113833Y145570D02*
X113831Y145484D01*
X113825Y145398D01*
X113816Y145312D01*
X113803Y145227D01*
X113786Y145142D01*
X113766Y145059D01*
X113742Y144976D01*
X113714Y144894D01*
X113683Y144814D01*
X113648Y144735D01*
X113610Y144658D01*
X113568Y144582D01*
X113524Y144508D01*
X113476Y144437D01*
X113425Y144367D01*
X113371Y144300D01*
X113314Y144235D01*
X113254Y144173D01*
X113192Y144113D01*
X113127Y144056D01*
X113060Y144002D01*
X112990Y143951D01*
X112919Y143903D01*
X112845Y143859D01*
X112769Y143817D01*
X112692Y143779D01*
X112613Y143744D01*
X112533Y143713D01*
X112451Y143685D01*
X112368Y143661D01*
X112285Y143641D01*
X112200Y143624D01*
X112115Y143611D01*
X112029Y143602D01*
X111943Y143596D01*
X111857Y143594D01*
X109881Y143594D01*
X118548Y146755D02*
X120919Y146755D01*
X118548Y146755D02*
X118470Y146757D01*
X118393Y146763D01*
X118316Y146772D01*
X118240Y146785D01*
X118164Y146802D01*
X118089Y146823D01*
X118016Y146847D01*
X117943Y146875D01*
X117872Y146907D01*
X117803Y146942D01*
X117736Y146980D01*
X117670Y147021D01*
X117607Y147066D01*
X117546Y147114D01*
X117487Y147164D01*
X117431Y147218D01*
X117377Y147274D01*
X117327Y147333D01*
X117279Y147394D01*
X117234Y147457D01*
X117193Y147523D01*
X117155Y147590D01*
X117120Y147659D01*
X117088Y147730D01*
X117060Y147803D01*
X117036Y147876D01*
X117015Y147951D01*
X116998Y148027D01*
X116985Y148103D01*
X116976Y148180D01*
X116970Y148257D01*
X116968Y148335D01*
X116968Y148730D01*
X116967Y148730D02*
X116969Y148817D01*
X116975Y148905D01*
X116984Y148992D01*
X116998Y149078D01*
X117015Y149164D01*
X117036Y149248D01*
X117061Y149332D01*
X117090Y149415D01*
X117122Y149496D01*
X117157Y149576D01*
X117196Y149654D01*
X117239Y149731D01*
X117285Y149805D01*
X117334Y149877D01*
X117386Y149947D01*
X117442Y150015D01*
X117500Y150080D01*
X117561Y150143D01*
X117625Y150202D01*
X117692Y150259D01*
X117760Y150313D01*
X117832Y150364D01*
X117905Y150411D01*
X117980Y150456D01*
X118058Y150497D01*
X118137Y150534D01*
X118217Y150568D01*
X118299Y150598D01*
X118382Y150625D01*
X118467Y150648D01*
X118552Y150667D01*
X118638Y150682D01*
X118725Y150694D01*
X118812Y150702D01*
X118899Y150706D01*
X118987Y150706D01*
X119074Y150702D01*
X119161Y150694D01*
X119248Y150682D01*
X119334Y150667D01*
X119419Y150648D01*
X119504Y150625D01*
X119587Y150598D01*
X119669Y150568D01*
X119749Y150534D01*
X119828Y150497D01*
X119906Y150456D01*
X119981Y150411D01*
X120054Y150364D01*
X120126Y150313D01*
X120194Y150259D01*
X120261Y150202D01*
X120325Y150143D01*
X120386Y150080D01*
X120444Y150015D01*
X120500Y149947D01*
X120552Y149877D01*
X120601Y149805D01*
X120647Y149731D01*
X120690Y149654D01*
X120729Y149576D01*
X120764Y149496D01*
X120796Y149415D01*
X120825Y149332D01*
X120850Y149248D01*
X120871Y149164D01*
X120888Y149078D01*
X120902Y148992D01*
X120911Y148905D01*
X120917Y148817D01*
X120919Y148730D01*
X120919Y146755D01*
X120917Y146645D01*
X120911Y146534D01*
X120902Y146425D01*
X120888Y146315D01*
X120871Y146206D01*
X120850Y146098D01*
X120825Y145990D01*
X120797Y145884D01*
X120764Y145778D01*
X120728Y145674D01*
X120689Y145571D01*
X120646Y145469D01*
X120599Y145369D01*
X120549Y145271D01*
X120496Y145174D01*
X120439Y145080D01*
X120379Y144987D01*
X120315Y144897D01*
X120249Y144809D01*
X120179Y144723D01*
X120107Y144640D01*
X120032Y144559D01*
X119954Y144481D01*
X119873Y144406D01*
X119790Y144334D01*
X119704Y144264D01*
X119616Y144198D01*
X119526Y144134D01*
X119433Y144074D01*
X119338Y144017D01*
X119242Y143964D01*
X119144Y143914D01*
X119044Y143867D01*
X118942Y143824D01*
X118839Y143785D01*
X118735Y143749D01*
X118629Y143716D01*
X118523Y143688D01*
X118415Y143663D01*
X118307Y143642D01*
X118198Y143625D01*
X118088Y143611D01*
X117979Y143602D01*
X117868Y143596D01*
X117758Y143594D01*
X81052Y143594D02*
X81052Y150706D01*
X83028Y150706D01*
X83114Y150704D01*
X83200Y150698D01*
X83286Y150689D01*
X83371Y150676D01*
X83456Y150659D01*
X83539Y150639D01*
X83622Y150615D01*
X83704Y150587D01*
X83784Y150556D01*
X83863Y150521D01*
X83940Y150483D01*
X84016Y150441D01*
X84090Y150397D01*
X84161Y150349D01*
X84231Y150298D01*
X84298Y150244D01*
X84363Y150187D01*
X84425Y150127D01*
X84485Y150065D01*
X84542Y150000D01*
X84596Y149933D01*
X84647Y149863D01*
X84695Y149792D01*
X84739Y149718D01*
X84781Y149642D01*
X84819Y149565D01*
X84854Y149486D01*
X84885Y149406D01*
X84913Y149324D01*
X84937Y149241D01*
X84957Y149158D01*
X84974Y149073D01*
X84987Y148988D01*
X84996Y148902D01*
X85002Y148816D01*
X85004Y148730D01*
X85003Y148730D02*
X85003Y145570D01*
X85004Y145570D02*
X85002Y145484D01*
X84996Y145398D01*
X84987Y145312D01*
X84974Y145227D01*
X84957Y145142D01*
X84937Y145059D01*
X84913Y144976D01*
X84885Y144894D01*
X84854Y144814D01*
X84819Y144735D01*
X84781Y144658D01*
X84739Y144582D01*
X84695Y144508D01*
X84647Y144437D01*
X84596Y144367D01*
X84542Y144300D01*
X84485Y144235D01*
X84425Y144173D01*
X84363Y144113D01*
X84298Y144056D01*
X84231Y144002D01*
X84161Y143951D01*
X84090Y143903D01*
X84016Y143859D01*
X83940Y143817D01*
X83863Y143779D01*
X83784Y143744D01*
X83704Y143713D01*
X83622Y143685D01*
X83539Y143661D01*
X83456Y143641D01*
X83371Y143624D01*
X83286Y143611D01*
X83200Y143602D01*
X83114Y143596D01*
X83028Y143594D01*
X81052Y143594D01*
X88139Y149126D02*
X90114Y150706D01*
X90114Y143594D01*
X88139Y143594D02*
X92090Y143594D01*
X94997Y147150D02*
X94999Y147298D01*
X95004Y147445D01*
X95014Y147593D01*
X95027Y147740D01*
X95043Y147887D01*
X95064Y148033D01*
X95088Y148179D01*
X95116Y148324D01*
X95147Y148468D01*
X95182Y148611D01*
X95221Y148754D01*
X95263Y148895D01*
X95309Y149036D01*
X95358Y149175D01*
X95411Y149313D01*
X95467Y149450D01*
X95527Y149585D01*
X95590Y149718D01*
X95589Y149718D02*
X95615Y149789D01*
X95645Y149858D01*
X95679Y149926D01*
X95716Y149992D01*
X95756Y150056D01*
X95800Y150118D01*
X95846Y150177D01*
X95896Y150234D01*
X95949Y150288D01*
X96004Y150340D01*
X96062Y150388D01*
X96122Y150434D01*
X96185Y150476D01*
X96250Y150515D01*
X96316Y150551D01*
X96385Y150583D01*
X96454Y150611D01*
X96526Y150636D01*
X96598Y150657D01*
X96672Y150675D01*
X96746Y150688D01*
X96821Y150698D01*
X96896Y150704D01*
X96972Y150706D01*
X97048Y150704D01*
X97123Y150698D01*
X97198Y150688D01*
X97272Y150675D01*
X97346Y150657D01*
X97418Y150636D01*
X97489Y150611D01*
X97559Y150583D01*
X97628Y150551D01*
X97694Y150515D01*
X97759Y150476D01*
X97822Y150434D01*
X97882Y150388D01*
X97940Y150340D01*
X97995Y150288D01*
X98048Y150234D01*
X98098Y150177D01*
X98144Y150118D01*
X98188Y150056D01*
X98228Y149992D01*
X98265Y149926D01*
X98299Y149858D01*
X98329Y149789D01*
X98355Y149718D01*
X98418Y149585D01*
X98478Y149450D01*
X98534Y149313D01*
X98587Y149175D01*
X98636Y149036D01*
X98682Y148895D01*
X98724Y148754D01*
X98763Y148611D01*
X98798Y148468D01*
X98829Y148324D01*
X98857Y148179D01*
X98881Y148033D01*
X98902Y147887D01*
X98918Y147740D01*
X98931Y147593D01*
X98941Y147445D01*
X98946Y147298D01*
X98948Y147150D01*
X94997Y147150D02*
X94999Y147002D01*
X95004Y146855D01*
X95014Y146707D01*
X95027Y146560D01*
X95043Y146413D01*
X95064Y146267D01*
X95088Y146122D01*
X95116Y145976D01*
X95147Y145832D01*
X95182Y145689D01*
X95221Y145546D01*
X95263Y145405D01*
X95309Y145264D01*
X95358Y145125D01*
X95411Y144987D01*
X95467Y144850D01*
X95527Y144715D01*
X95590Y144582D01*
X95589Y144582D02*
X95615Y144511D01*
X95645Y144442D01*
X95679Y144374D01*
X95716Y144308D01*
X95756Y144244D01*
X95800Y144182D01*
X95846Y144123D01*
X95896Y144066D01*
X95949Y144012D01*
X96004Y143960D01*
X96062Y143912D01*
X96122Y143866D01*
X96185Y143824D01*
X96250Y143785D01*
X96316Y143749D01*
X96385Y143717D01*
X96455Y143689D01*
X96526Y143664D01*
X96598Y143643D01*
X96672Y143625D01*
X96746Y143612D01*
X96821Y143602D01*
X96896Y143596D01*
X96972Y143594D01*
X98355Y144582D02*
X98418Y144715D01*
X98478Y144850D01*
X98534Y144987D01*
X98587Y145125D01*
X98636Y145264D01*
X98682Y145405D01*
X98724Y145546D01*
X98763Y145689D01*
X98798Y145832D01*
X98829Y145976D01*
X98857Y146122D01*
X98881Y146267D01*
X98902Y146413D01*
X98918Y146560D01*
X98931Y146707D01*
X98941Y146855D01*
X98946Y147002D01*
X98948Y147150D01*
X98355Y144582D02*
X98329Y144511D01*
X98299Y144442D01*
X98265Y144374D01*
X98228Y144308D01*
X98188Y144244D01*
X98144Y144182D01*
X98098Y144123D01*
X98048Y144066D01*
X97995Y144012D01*
X97940Y143960D01*
X97882Y143912D01*
X97822Y143866D01*
X97759Y143824D01*
X97694Y143785D01*
X97628Y143749D01*
X97559Y143717D01*
X97489Y143689D01*
X97418Y143664D01*
X97346Y143643D01*
X97272Y143625D01*
X97198Y143612D01*
X97123Y143602D01*
X97048Y143596D01*
X96972Y143594D01*
X95392Y145174D02*
X98553Y149126D01*
X57742Y143594D02*
X55767Y143594D01*
X57742Y143594D02*
X57829Y143596D01*
X57917Y143602D01*
X58004Y143611D01*
X58090Y143625D01*
X58176Y143642D01*
X58260Y143663D01*
X58344Y143688D01*
X58427Y143717D01*
X58508Y143749D01*
X58588Y143784D01*
X58666Y143823D01*
X58743Y143866D01*
X58817Y143912D01*
X58889Y143961D01*
X58959Y144013D01*
X59027Y144069D01*
X59092Y144127D01*
X59155Y144188D01*
X59214Y144252D01*
X59271Y144319D01*
X59325Y144387D01*
X59376Y144459D01*
X59423Y144532D01*
X59468Y144607D01*
X59509Y144685D01*
X59546Y144764D01*
X59580Y144844D01*
X59610Y144926D01*
X59637Y145009D01*
X59660Y145094D01*
X59679Y145179D01*
X59694Y145265D01*
X59706Y145352D01*
X59714Y145439D01*
X59718Y145526D01*
X59718Y145614D01*
X59714Y145701D01*
X59706Y145788D01*
X59694Y145875D01*
X59679Y145961D01*
X59660Y146046D01*
X59637Y146131D01*
X59610Y146214D01*
X59580Y146296D01*
X59546Y146376D01*
X59509Y146455D01*
X59468Y146533D01*
X59423Y146608D01*
X59376Y146681D01*
X59325Y146753D01*
X59271Y146821D01*
X59214Y146888D01*
X59155Y146952D01*
X59092Y147013D01*
X59027Y147071D01*
X58959Y147127D01*
X58889Y147179D01*
X58817Y147228D01*
X58743Y147274D01*
X58666Y147317D01*
X58588Y147356D01*
X58508Y147391D01*
X58427Y147423D01*
X58344Y147452D01*
X58260Y147477D01*
X58176Y147498D01*
X58090Y147515D01*
X58004Y147529D01*
X57917Y147538D01*
X57829Y147544D01*
X57742Y147546D01*
X58137Y150706D02*
X55767Y150706D01*
X58137Y150706D02*
X58216Y150704D01*
X58294Y150698D01*
X58372Y150688D01*
X58450Y150675D01*
X58527Y150657D01*
X58603Y150636D01*
X58677Y150611D01*
X58751Y150582D01*
X58823Y150550D01*
X58893Y150514D01*
X58961Y150474D01*
X59027Y150431D01*
X59091Y150385D01*
X59153Y150336D01*
X59212Y150284D01*
X59268Y150229D01*
X59322Y150171D01*
X59372Y150111D01*
X59420Y150048D01*
X59464Y149983D01*
X59505Y149916D01*
X59543Y149847D01*
X59577Y149776D01*
X59608Y149703D01*
X59635Y149629D01*
X59658Y149554D01*
X59677Y149478D01*
X59693Y149400D01*
X59705Y149322D01*
X59713Y149244D01*
X59717Y149165D01*
X59717Y149087D01*
X59713Y149008D01*
X59705Y148930D01*
X59693Y148852D01*
X59677Y148774D01*
X59658Y148698D01*
X59635Y148623D01*
X59608Y148549D01*
X59577Y148476D01*
X59543Y148405D01*
X59505Y148336D01*
X59464Y148269D01*
X59420Y148204D01*
X59372Y148141D01*
X59322Y148081D01*
X59268Y148023D01*
X59212Y147968D01*
X59153Y147916D01*
X59091Y147867D01*
X59027Y147821D01*
X58961Y147778D01*
X58893Y147738D01*
X58823Y147702D01*
X58751Y147670D01*
X58677Y147641D01*
X58603Y147616D01*
X58527Y147595D01*
X58450Y147577D01*
X58372Y147564D01*
X58294Y147554D01*
X58216Y147548D01*
X58137Y147546D01*
X58137Y147545D02*
X56557Y147545D01*
X62229Y150706D02*
X64600Y143594D01*
X66971Y150706D01*
X69482Y143594D02*
X71458Y143594D01*
X71545Y143596D01*
X71633Y143602D01*
X71720Y143611D01*
X71806Y143625D01*
X71892Y143642D01*
X71976Y143663D01*
X72060Y143688D01*
X72143Y143717D01*
X72224Y143749D01*
X72304Y143784D01*
X72382Y143823D01*
X72459Y143866D01*
X72533Y143912D01*
X72605Y143961D01*
X72675Y144013D01*
X72743Y144069D01*
X72808Y144127D01*
X72871Y144188D01*
X72930Y144252D01*
X72987Y144319D01*
X73041Y144387D01*
X73092Y144459D01*
X73139Y144532D01*
X73184Y144607D01*
X73225Y144685D01*
X73262Y144764D01*
X73296Y144844D01*
X73326Y144926D01*
X73353Y145009D01*
X73376Y145094D01*
X73395Y145179D01*
X73410Y145265D01*
X73422Y145352D01*
X73430Y145439D01*
X73434Y145526D01*
X73434Y145614D01*
X73430Y145701D01*
X73422Y145788D01*
X73410Y145875D01*
X73395Y145961D01*
X73376Y146046D01*
X73353Y146131D01*
X73326Y146214D01*
X73296Y146296D01*
X73262Y146376D01*
X73225Y146455D01*
X73184Y146533D01*
X73139Y146608D01*
X73092Y146681D01*
X73041Y146753D01*
X72987Y146821D01*
X72930Y146888D01*
X72871Y146952D01*
X72808Y147013D01*
X72743Y147071D01*
X72675Y147127D01*
X72605Y147179D01*
X72533Y147228D01*
X72459Y147274D01*
X72382Y147317D01*
X72304Y147356D01*
X72224Y147391D01*
X72143Y147423D01*
X72060Y147452D01*
X71976Y147477D01*
X71892Y147498D01*
X71806Y147515D01*
X71720Y147529D01*
X71633Y147538D01*
X71545Y147544D01*
X71458Y147546D01*
X71853Y150706D02*
X69482Y150706D01*
X71853Y150706D02*
X71932Y150704D01*
X72010Y150698D01*
X72088Y150688D01*
X72166Y150675D01*
X72243Y150657D01*
X72319Y150636D01*
X72393Y150611D01*
X72467Y150582D01*
X72539Y150550D01*
X72609Y150514D01*
X72677Y150474D01*
X72743Y150431D01*
X72807Y150385D01*
X72869Y150336D01*
X72928Y150284D01*
X72984Y150229D01*
X73038Y150171D01*
X73088Y150111D01*
X73136Y150048D01*
X73180Y149983D01*
X73221Y149916D01*
X73259Y149847D01*
X73293Y149776D01*
X73324Y149703D01*
X73351Y149629D01*
X73374Y149554D01*
X73393Y149478D01*
X73409Y149400D01*
X73421Y149322D01*
X73429Y149244D01*
X73433Y149165D01*
X73433Y149087D01*
X73429Y149008D01*
X73421Y148930D01*
X73409Y148852D01*
X73393Y148774D01*
X73374Y148698D01*
X73351Y148623D01*
X73324Y148549D01*
X73293Y148476D01*
X73259Y148405D01*
X73221Y148336D01*
X73180Y148269D01*
X73136Y148204D01*
X73088Y148141D01*
X73038Y148081D01*
X72984Y148023D01*
X72928Y147968D01*
X72869Y147916D01*
X72807Y147867D01*
X72743Y147821D01*
X72677Y147778D01*
X72609Y147738D01*
X72539Y147702D01*
X72467Y147670D01*
X72393Y147641D01*
X72319Y147616D01*
X72243Y147595D01*
X72166Y147577D01*
X72088Y147564D01*
X72010Y147554D01*
X71932Y147548D01*
X71853Y147546D01*
X71853Y147545D02*
X70273Y147545D01*
X33860Y147545D02*
X32675Y147545D01*
X33860Y147545D02*
X33860Y143594D01*
X31490Y143594D01*
X31412Y143596D01*
X31335Y143602D01*
X31258Y143611D01*
X31182Y143624D01*
X31106Y143641D01*
X31031Y143662D01*
X30958Y143686D01*
X30885Y143714D01*
X30814Y143746D01*
X30745Y143781D01*
X30678Y143819D01*
X30612Y143860D01*
X30549Y143905D01*
X30488Y143953D01*
X30429Y144003D01*
X30373Y144057D01*
X30319Y144113D01*
X30269Y144172D01*
X30221Y144233D01*
X30176Y144296D01*
X30135Y144362D01*
X30097Y144429D01*
X30062Y144498D01*
X30030Y144569D01*
X30002Y144642D01*
X29978Y144715D01*
X29957Y144790D01*
X29940Y144866D01*
X29927Y144942D01*
X29918Y145019D01*
X29912Y145096D01*
X29910Y145174D01*
X29909Y145174D02*
X29909Y149126D01*
X29910Y149126D02*
X29912Y149204D01*
X29918Y149281D01*
X29927Y149358D01*
X29940Y149434D01*
X29957Y149510D01*
X29978Y149585D01*
X30002Y149658D01*
X30030Y149731D01*
X30062Y149802D01*
X30097Y149871D01*
X30135Y149938D01*
X30176Y150004D01*
X30221Y150067D01*
X30269Y150128D01*
X30319Y150187D01*
X30373Y150243D01*
X30429Y150297D01*
X30488Y150347D01*
X30549Y150395D01*
X30612Y150440D01*
X30678Y150481D01*
X30745Y150519D01*
X30814Y150554D01*
X30885Y150586D01*
X30958Y150614D01*
X31031Y150638D01*
X31106Y150659D01*
X31182Y150676D01*
X31258Y150689D01*
X31335Y150698D01*
X31412Y150704D01*
X31490Y150706D01*
X33860Y150706D01*
X37224Y150706D02*
X37224Y143594D01*
X41176Y143594D02*
X37224Y150706D01*
X41176Y150706D02*
X41176Y143594D01*
X44540Y143594D02*
X44540Y150706D01*
X46515Y150706D01*
X46601Y150704D01*
X46687Y150698D01*
X46773Y150689D01*
X46858Y150676D01*
X46943Y150659D01*
X47026Y150639D01*
X47109Y150615D01*
X47191Y150587D01*
X47271Y150556D01*
X47350Y150521D01*
X47427Y150483D01*
X47503Y150441D01*
X47577Y150397D01*
X47648Y150349D01*
X47718Y150298D01*
X47785Y150244D01*
X47850Y150187D01*
X47912Y150127D01*
X47972Y150065D01*
X48029Y150000D01*
X48083Y149933D01*
X48134Y149863D01*
X48182Y149792D01*
X48226Y149718D01*
X48268Y149642D01*
X48306Y149565D01*
X48341Y149486D01*
X48372Y149406D01*
X48400Y149324D01*
X48424Y149241D01*
X48444Y149158D01*
X48461Y149073D01*
X48474Y148988D01*
X48483Y148902D01*
X48489Y148816D01*
X48491Y148730D01*
X48491Y145570D01*
X48489Y145484D01*
X48483Y145398D01*
X48474Y145312D01*
X48461Y145227D01*
X48444Y145142D01*
X48424Y145059D01*
X48400Y144976D01*
X48372Y144894D01*
X48341Y144814D01*
X48306Y144735D01*
X48268Y144658D01*
X48226Y144582D01*
X48182Y144508D01*
X48134Y144437D01*
X48083Y144367D01*
X48029Y144300D01*
X47972Y144235D01*
X47912Y144173D01*
X47850Y144113D01*
X47785Y144056D01*
X47718Y144002D01*
X47648Y143951D01*
X47577Y143903D01*
X47503Y143859D01*
X47427Y143817D01*
X47350Y143779D01*
X47271Y143744D01*
X47191Y143713D01*
X47109Y143685D01*
X47026Y143661D01*
X46943Y143641D01*
X46858Y143624D01*
X46773Y143611D01*
X46687Y143602D01*
X46601Y143596D01*
X46515Y143594D01*
X44540Y143594D01*
X10569Y143594D02*
X8198Y143594D01*
X10569Y143594D02*
X10647Y143596D01*
X10724Y143602D01*
X10801Y143611D01*
X10877Y143624D01*
X10953Y143641D01*
X11028Y143662D01*
X11101Y143686D01*
X11174Y143714D01*
X11245Y143746D01*
X11314Y143781D01*
X11381Y143819D01*
X11447Y143860D01*
X11510Y143905D01*
X11571Y143953D01*
X11630Y144003D01*
X11686Y144057D01*
X11740Y144113D01*
X11790Y144172D01*
X11838Y144233D01*
X11883Y144296D01*
X11924Y144362D01*
X11962Y144429D01*
X11997Y144498D01*
X12029Y144569D01*
X12057Y144642D01*
X12081Y144715D01*
X12102Y144790D01*
X12119Y144866D01*
X12132Y144942D01*
X12141Y145019D01*
X12147Y145096D01*
X12149Y145174D01*
X12149Y145965D01*
X12147Y146043D01*
X12141Y146120D01*
X12132Y146197D01*
X12119Y146273D01*
X12102Y146349D01*
X12081Y146424D01*
X12057Y146497D01*
X12029Y146570D01*
X11997Y146641D01*
X11962Y146710D01*
X11924Y146777D01*
X11883Y146843D01*
X11838Y146906D01*
X11790Y146967D01*
X11740Y147026D01*
X11686Y147082D01*
X11630Y147136D01*
X11571Y147186D01*
X11510Y147234D01*
X11447Y147279D01*
X11381Y147320D01*
X11314Y147358D01*
X11245Y147393D01*
X11174Y147425D01*
X11101Y147453D01*
X11028Y147477D01*
X10953Y147498D01*
X10877Y147515D01*
X10801Y147528D01*
X10724Y147537D01*
X10647Y147543D01*
X10569Y147545D01*
X8198Y147545D01*
X8198Y150706D01*
X12149Y150706D01*
X14661Y150706D02*
X17031Y143594D01*
X19402Y150706D01*
D14*
X39200Y45550D02*
X-5250Y45550D01*
X39200Y45550D02*
X39200Y134450D01*
X-5250Y134450D01*
D15*
X1608Y75240D02*
X10046Y75240D01*
X10046Y75239D02*
X10159Y75241D01*
X10272Y75247D01*
X10385Y75257D01*
X10498Y75271D01*
X10610Y75288D01*
X10721Y75310D01*
X10831Y75335D01*
X10941Y75365D01*
X11049Y75398D01*
X11156Y75435D01*
X11262Y75475D01*
X11366Y75520D01*
X11469Y75568D01*
X11570Y75619D01*
X11669Y75674D01*
X11766Y75732D01*
X11861Y75794D01*
X11954Y75859D01*
X12044Y75927D01*
X12132Y75998D01*
X12218Y76073D01*
X12301Y76150D01*
X12381Y76230D01*
X12458Y76313D01*
X12533Y76399D01*
X12604Y76487D01*
X12672Y76577D01*
X12737Y76670D01*
X12799Y76765D01*
X12857Y76862D01*
X12912Y76961D01*
X12963Y77062D01*
X13011Y77165D01*
X13056Y77269D01*
X13096Y77375D01*
X13133Y77482D01*
X13166Y77590D01*
X13196Y77700D01*
X13221Y77810D01*
X13243Y77921D01*
X13260Y78033D01*
X13274Y78146D01*
X13284Y78259D01*
X13290Y78372D01*
X13292Y78485D01*
X13290Y78598D01*
X13284Y78711D01*
X13274Y78824D01*
X13260Y78937D01*
X13243Y79049D01*
X13221Y79160D01*
X13196Y79270D01*
X13166Y79380D01*
X13133Y79488D01*
X13096Y79595D01*
X13056Y79701D01*
X13011Y79805D01*
X12963Y79908D01*
X12912Y80009D01*
X12857Y80108D01*
X12799Y80205D01*
X12737Y80300D01*
X12672Y80393D01*
X12604Y80483D01*
X12533Y80571D01*
X12458Y80657D01*
X12381Y80740D01*
X12301Y80820D01*
X12218Y80897D01*
X12132Y80972D01*
X12044Y81043D01*
X11954Y81111D01*
X11861Y81176D01*
X11766Y81238D01*
X11669Y81296D01*
X11570Y81351D01*
X11469Y81402D01*
X11366Y81450D01*
X11262Y81495D01*
X11156Y81535D01*
X11049Y81572D01*
X10941Y81605D01*
X10831Y81635D01*
X10721Y81660D01*
X10610Y81682D01*
X10498Y81699D01*
X10385Y81713D01*
X10272Y81723D01*
X10159Y81729D01*
X10046Y81731D01*
X1608Y81731D01*
X10696Y93160D02*
X10795Y93158D01*
X10895Y93152D01*
X10994Y93143D01*
X11092Y93130D01*
X11190Y93113D01*
X11288Y93092D01*
X11384Y93067D01*
X11479Y93039D01*
X11573Y93007D01*
X11666Y92972D01*
X11758Y92933D01*
X11848Y92890D01*
X11936Y92845D01*
X12023Y92795D01*
X12107Y92743D01*
X12190Y92687D01*
X12270Y92629D01*
X12348Y92567D01*
X12423Y92502D01*
X12496Y92434D01*
X12566Y92364D01*
X12634Y92291D01*
X12699Y92216D01*
X12761Y92138D01*
X12819Y92058D01*
X12875Y91975D01*
X12927Y91891D01*
X12977Y91804D01*
X13022Y91716D01*
X13065Y91626D01*
X13104Y91534D01*
X13139Y91441D01*
X13171Y91347D01*
X13199Y91252D01*
X13224Y91156D01*
X13245Y91058D01*
X13262Y90960D01*
X13275Y90862D01*
X13284Y90763D01*
X13290Y90663D01*
X13292Y90564D01*
X13290Y90420D01*
X13284Y90275D01*
X13275Y90131D01*
X13262Y89988D01*
X13245Y89844D01*
X13224Y89701D01*
X13199Y89559D01*
X13171Y89418D01*
X13139Y89277D01*
X13103Y89137D01*
X13064Y88998D01*
X13021Y88860D01*
X12974Y88724D01*
X12924Y88588D01*
X12870Y88454D01*
X12813Y88322D01*
X12752Y88191D01*
X12688Y88062D01*
X12620Y87934D01*
X12550Y87808D01*
X12475Y87684D01*
X12398Y87563D01*
X12317Y87443D01*
X12234Y87325D01*
X12147Y87210D01*
X12057Y87097D01*
X11964Y86986D01*
X11869Y86878D01*
X11770Y86772D01*
X11669Y86669D01*
X4204Y86995D02*
X4105Y86997D01*
X4005Y87003D01*
X3906Y87012D01*
X3808Y87025D01*
X3710Y87042D01*
X3612Y87063D01*
X3516Y87088D01*
X3421Y87116D01*
X3327Y87148D01*
X3234Y87183D01*
X3142Y87222D01*
X3052Y87265D01*
X2964Y87310D01*
X2877Y87360D01*
X2793Y87412D01*
X2710Y87468D01*
X2630Y87526D01*
X2552Y87588D01*
X2477Y87653D01*
X2404Y87721D01*
X2334Y87791D01*
X2266Y87864D01*
X2201Y87939D01*
X2139Y88017D01*
X2081Y88097D01*
X2025Y88180D01*
X1973Y88264D01*
X1923Y88351D01*
X1878Y88439D01*
X1835Y88529D01*
X1796Y88621D01*
X1761Y88714D01*
X1729Y88808D01*
X1701Y88903D01*
X1676Y88999D01*
X1655Y89097D01*
X1638Y89195D01*
X1625Y89293D01*
X1616Y89392D01*
X1610Y89492D01*
X1608Y89591D01*
X1610Y89727D01*
X1616Y89863D01*
X1625Y89999D01*
X1638Y90135D01*
X1656Y90270D01*
X1676Y90404D01*
X1701Y90538D01*
X1729Y90672D01*
X1762Y90804D01*
X1797Y90935D01*
X1837Y91066D01*
X1880Y91195D01*
X1926Y91323D01*
X1977Y91449D01*
X2030Y91575D01*
X2088Y91698D01*
X2148Y91820D01*
X2212Y91940D01*
X2280Y92059D01*
X2350Y92175D01*
X2424Y92289D01*
X2501Y92402D01*
X2582Y92512D01*
X6476Y88292D02*
X6423Y88206D01*
X6366Y88122D01*
X6307Y88040D01*
X6244Y87960D01*
X6178Y87883D01*
X6110Y87808D01*
X6038Y87736D01*
X5964Y87667D01*
X5887Y87601D01*
X5808Y87538D01*
X5726Y87478D01*
X5642Y87421D01*
X5556Y87367D01*
X5468Y87317D01*
X5378Y87270D01*
X5287Y87226D01*
X5193Y87187D01*
X5099Y87150D01*
X5003Y87118D01*
X4905Y87089D01*
X4807Y87064D01*
X4708Y87043D01*
X4608Y87025D01*
X4508Y87012D01*
X4407Y87002D01*
X4305Y86996D01*
X4204Y86994D01*
X8424Y91863D02*
X8477Y91949D01*
X8534Y92033D01*
X8593Y92115D01*
X8656Y92195D01*
X8722Y92272D01*
X8790Y92347D01*
X8862Y92419D01*
X8936Y92488D01*
X9013Y92554D01*
X9092Y92617D01*
X9174Y92677D01*
X9258Y92734D01*
X9344Y92788D01*
X9432Y92838D01*
X9522Y92885D01*
X9613Y92929D01*
X9707Y92968D01*
X9801Y93005D01*
X9897Y93037D01*
X9995Y93066D01*
X10093Y93091D01*
X10192Y93112D01*
X10292Y93130D01*
X10392Y93143D01*
X10493Y93153D01*
X10595Y93159D01*
X10696Y93161D01*
X8424Y91863D02*
X6476Y88293D01*
X6801Y98269D02*
X6801Y101515D01*
X6800Y101515D02*
X6802Y101628D01*
X6808Y101741D01*
X6818Y101854D01*
X6832Y101967D01*
X6849Y102079D01*
X6871Y102190D01*
X6896Y102300D01*
X6926Y102410D01*
X6959Y102518D01*
X6996Y102625D01*
X7036Y102731D01*
X7081Y102835D01*
X7129Y102938D01*
X7180Y103039D01*
X7235Y103138D01*
X7293Y103235D01*
X7355Y103330D01*
X7420Y103423D01*
X7488Y103513D01*
X7559Y103601D01*
X7634Y103687D01*
X7711Y103770D01*
X7791Y103850D01*
X7874Y103927D01*
X7960Y104002D01*
X8048Y104073D01*
X8138Y104141D01*
X8231Y104206D01*
X8326Y104268D01*
X8423Y104326D01*
X8522Y104381D01*
X8623Y104432D01*
X8726Y104480D01*
X8830Y104525D01*
X8936Y104565D01*
X9043Y104602D01*
X9151Y104635D01*
X9261Y104665D01*
X9371Y104690D01*
X9482Y104712D01*
X9594Y104729D01*
X9707Y104743D01*
X9820Y104753D01*
X9933Y104759D01*
X10046Y104761D01*
X10159Y104759D01*
X10272Y104753D01*
X10385Y104743D01*
X10498Y104729D01*
X10610Y104712D01*
X10721Y104690D01*
X10831Y104665D01*
X10941Y104635D01*
X11049Y104602D01*
X11156Y104565D01*
X11262Y104525D01*
X11366Y104480D01*
X11469Y104432D01*
X11570Y104381D01*
X11669Y104326D01*
X11766Y104268D01*
X11861Y104206D01*
X11954Y104141D01*
X12044Y104073D01*
X12132Y104002D01*
X12218Y103927D01*
X12301Y103850D01*
X12381Y103770D01*
X12458Y103687D01*
X12533Y103601D01*
X12604Y103513D01*
X12672Y103423D01*
X12737Y103330D01*
X12799Y103235D01*
X12857Y103138D01*
X12912Y103039D01*
X12963Y102938D01*
X13011Y102835D01*
X13056Y102731D01*
X13096Y102625D01*
X13133Y102518D01*
X13166Y102410D01*
X13196Y102300D01*
X13221Y102190D01*
X13243Y102079D01*
X13260Y101967D01*
X13274Y101854D01*
X13284Y101741D01*
X13290Y101628D01*
X13292Y101515D01*
X13292Y98269D01*
X1608Y98269D01*
X1608Y101515D01*
X1610Y101616D01*
X1616Y101716D01*
X1626Y101816D01*
X1639Y101916D01*
X1657Y102015D01*
X1678Y102114D01*
X1703Y102211D01*
X1732Y102308D01*
X1765Y102403D01*
X1801Y102497D01*
X1841Y102589D01*
X1884Y102680D01*
X1931Y102769D01*
X1981Y102856D01*
X2035Y102942D01*
X2092Y103025D01*
X2152Y103105D01*
X2215Y103184D01*
X2282Y103260D01*
X2351Y103333D01*
X2423Y103403D01*
X2497Y103471D01*
X2574Y103536D01*
X2654Y103597D01*
X2736Y103656D01*
X2820Y103711D01*
X2906Y103763D01*
X2994Y103812D01*
X3084Y103857D01*
X3176Y103899D01*
X3269Y103937D01*
X3364Y103971D01*
X3459Y104002D01*
X3556Y104029D01*
X3654Y104052D01*
X3753Y104072D01*
X3853Y104087D01*
X3953Y104099D01*
X4053Y104107D01*
X4154Y104111D01*
X4254Y104111D01*
X4355Y104107D01*
X4455Y104099D01*
X4555Y104087D01*
X4655Y104072D01*
X4754Y104052D01*
X4852Y104029D01*
X4949Y104002D01*
X5044Y103971D01*
X5139Y103937D01*
X5232Y103899D01*
X5324Y103857D01*
X5414Y103812D01*
X5502Y103763D01*
X5588Y103711D01*
X5672Y103656D01*
X5754Y103597D01*
X5834Y103536D01*
X5911Y103471D01*
X5985Y103403D01*
X6057Y103333D01*
X6126Y103260D01*
X6193Y103184D01*
X6256Y103105D01*
X6316Y103025D01*
X6373Y102942D01*
X6427Y102856D01*
X6477Y102769D01*
X6524Y102680D01*
X6567Y102589D01*
X6607Y102497D01*
X6643Y102403D01*
X6676Y102308D01*
X6705Y102211D01*
X6730Y102114D01*
X6751Y102015D01*
X6769Y101916D01*
X6782Y101816D01*
X6792Y101716D01*
X6798Y101616D01*
X6800Y101515D01*
M02*
