G04 EAGLE Gerber RS-274X export*
G75*
%MOMM*%
%FSLAX34Y34*%
%LPD*%
%INBottom layer*%
%IPPOS*%
%AMOC8*
5,1,8,0,0,1.08239X$1,22.5*%
G01*
%ADD10C,0.000000*%
%ADD11R,1.500000X1.300000*%
%ADD12R,2.000000X4.200000*%
%ADD13R,1.676400X1.676400*%
%ADD14P,1.814519X8X292.500000*%
%ADD15C,1.800000*%
%ADD16C,0.654800*%
%ADD17C,0.508000*%

G36*
X53308Y5092D02*
X53308Y5092D01*
X53438Y5094D01*
X53532Y5112D01*
X53627Y5121D01*
X53753Y5155D01*
X53880Y5180D01*
X53970Y5214D01*
X54062Y5239D01*
X54179Y5295D01*
X54300Y5342D01*
X54382Y5392D01*
X54468Y5433D01*
X54574Y5508D01*
X54685Y5576D01*
X54757Y5639D01*
X54834Y5695D01*
X54925Y5788D01*
X55022Y5874D01*
X55082Y5949D01*
X55148Y6017D01*
X55221Y6125D01*
X55302Y6227D01*
X55347Y6311D01*
X55400Y6390D01*
X55453Y6509D01*
X55515Y6624D01*
X55544Y6715D01*
X55583Y6802D01*
X55614Y6929D01*
X55654Y7052D01*
X55667Y7147D01*
X55689Y7240D01*
X55697Y7369D01*
X55715Y7498D01*
X55711Y7594D01*
X55717Y7689D01*
X55702Y7818D01*
X55697Y7948D01*
X55676Y8041D01*
X55665Y8136D01*
X55627Y8261D01*
X55599Y8388D01*
X55562Y8476D01*
X55535Y8567D01*
X55476Y8683D01*
X55426Y8803D01*
X55374Y8883D01*
X55330Y8969D01*
X55252Y9072D01*
X55181Y9181D01*
X55095Y9279D01*
X55058Y9327D01*
X55025Y9358D01*
X54974Y9416D01*
X54693Y9697D01*
X54693Y17903D01*
X60497Y23707D01*
X68703Y23707D01*
X74507Y17903D01*
X74507Y9697D01*
X74226Y9416D01*
X74142Y9316D01*
X74052Y9223D01*
X73998Y9143D01*
X73937Y9070D01*
X73872Y8957D01*
X73800Y8850D01*
X73761Y8762D01*
X73713Y8679D01*
X73670Y8557D01*
X73617Y8438D01*
X73595Y8345D01*
X73563Y8255D01*
X73541Y8127D01*
X73511Y8000D01*
X73505Y7905D01*
X73489Y7811D01*
X73491Y7681D01*
X73483Y7551D01*
X73494Y7456D01*
X73495Y7361D01*
X73520Y7233D01*
X73535Y7104D01*
X73563Y7012D01*
X73581Y6918D01*
X73628Y6797D01*
X73665Y6673D01*
X73709Y6587D01*
X73743Y6498D01*
X73811Y6387D01*
X73870Y6271D01*
X73927Y6195D01*
X73977Y6114D01*
X74063Y6016D01*
X74142Y5913D01*
X74212Y5848D01*
X74275Y5776D01*
X74377Y5696D01*
X74473Y5607D01*
X74553Y5556D01*
X74628Y5497D01*
X74743Y5435D01*
X74853Y5366D01*
X74941Y5329D01*
X75025Y5284D01*
X75149Y5244D01*
X75269Y5195D01*
X75363Y5175D01*
X75453Y5145D01*
X75582Y5127D01*
X75709Y5100D01*
X75839Y5092D01*
X75899Y5084D01*
X75944Y5085D01*
X76021Y5081D01*
X78579Y5081D01*
X78708Y5092D01*
X78838Y5094D01*
X78932Y5112D01*
X79027Y5121D01*
X79153Y5155D01*
X79280Y5180D01*
X79370Y5214D01*
X79462Y5239D01*
X79579Y5295D01*
X79700Y5342D01*
X79782Y5392D01*
X79868Y5433D01*
X79974Y5508D01*
X80085Y5576D01*
X80157Y5639D01*
X80234Y5695D01*
X80325Y5788D01*
X80422Y5874D01*
X80482Y5949D01*
X80548Y6017D01*
X80621Y6125D01*
X80702Y6227D01*
X80747Y6311D01*
X80800Y6390D01*
X80853Y6509D01*
X80915Y6624D01*
X80944Y6715D01*
X80983Y6802D01*
X81014Y6929D01*
X81054Y7052D01*
X81067Y7147D01*
X81089Y7240D01*
X81097Y7369D01*
X81115Y7498D01*
X81111Y7594D01*
X81117Y7689D01*
X81102Y7818D01*
X81097Y7948D01*
X81076Y8041D01*
X81065Y8136D01*
X81027Y8261D01*
X80999Y8388D01*
X80962Y8476D01*
X80935Y8567D01*
X80876Y8683D01*
X80826Y8803D01*
X80774Y8883D01*
X80730Y8969D01*
X80652Y9072D01*
X80581Y9181D01*
X80495Y9279D01*
X80458Y9327D01*
X80425Y9358D01*
X80374Y9416D01*
X80093Y9697D01*
X80093Y17903D01*
X85897Y23707D01*
X94103Y23707D01*
X99907Y17903D01*
X99907Y9697D01*
X99626Y9416D01*
X99542Y9316D01*
X99452Y9223D01*
X99398Y9143D01*
X99337Y9070D01*
X99272Y8957D01*
X99200Y8850D01*
X99161Y8762D01*
X99113Y8679D01*
X99070Y8557D01*
X99017Y8438D01*
X98995Y8345D01*
X98963Y8255D01*
X98941Y8127D01*
X98911Y8000D01*
X98905Y7905D01*
X98889Y7811D01*
X98891Y7681D01*
X98883Y7551D01*
X98894Y7456D01*
X98895Y7361D01*
X98920Y7233D01*
X98935Y7104D01*
X98963Y7012D01*
X98981Y6918D01*
X99028Y6797D01*
X99065Y6673D01*
X99109Y6587D01*
X99143Y6498D01*
X99211Y6387D01*
X99270Y6271D01*
X99327Y6195D01*
X99377Y6114D01*
X99463Y6016D01*
X99542Y5913D01*
X99612Y5848D01*
X99675Y5776D01*
X99777Y5696D01*
X99873Y5607D01*
X99953Y5556D01*
X100028Y5497D01*
X100143Y5435D01*
X100253Y5366D01*
X100341Y5329D01*
X100425Y5284D01*
X100549Y5244D01*
X100669Y5195D01*
X100763Y5175D01*
X100853Y5145D01*
X100982Y5127D01*
X101109Y5100D01*
X101239Y5092D01*
X101299Y5084D01*
X101344Y5085D01*
X101421Y5081D01*
X103979Y5081D01*
X104108Y5092D01*
X104238Y5094D01*
X104332Y5112D01*
X104427Y5121D01*
X104553Y5155D01*
X104680Y5180D01*
X104770Y5214D01*
X104862Y5239D01*
X104979Y5295D01*
X105100Y5342D01*
X105182Y5392D01*
X105268Y5433D01*
X105374Y5508D01*
X105485Y5576D01*
X105557Y5639D01*
X105634Y5695D01*
X105725Y5788D01*
X105822Y5874D01*
X105882Y5949D01*
X105948Y6017D01*
X106021Y6125D01*
X106102Y6227D01*
X106147Y6311D01*
X106200Y6390D01*
X106253Y6509D01*
X106315Y6624D01*
X106344Y6715D01*
X106383Y6802D01*
X106414Y6929D01*
X106454Y7052D01*
X106467Y7147D01*
X106489Y7240D01*
X106497Y7369D01*
X106515Y7498D01*
X106511Y7594D01*
X106517Y7689D01*
X106502Y7818D01*
X106497Y7948D01*
X106476Y8041D01*
X106465Y8136D01*
X106427Y8261D01*
X106399Y8388D01*
X106362Y8476D01*
X106335Y8567D01*
X106276Y8683D01*
X106226Y8803D01*
X106174Y8883D01*
X106130Y8969D01*
X106052Y9072D01*
X105981Y9181D01*
X105895Y9279D01*
X105858Y9327D01*
X105825Y9358D01*
X105774Y9416D01*
X105493Y9697D01*
X105493Y17903D01*
X111297Y23707D01*
X119503Y23707D01*
X125307Y17903D01*
X125307Y9697D01*
X125026Y9416D01*
X124942Y9316D01*
X124852Y9223D01*
X124798Y9143D01*
X124737Y9070D01*
X124672Y8957D01*
X124600Y8850D01*
X124561Y8762D01*
X124513Y8679D01*
X124470Y8557D01*
X124417Y8438D01*
X124395Y8345D01*
X124363Y8255D01*
X124341Y8127D01*
X124311Y8000D01*
X124305Y7905D01*
X124289Y7811D01*
X124291Y7681D01*
X124283Y7551D01*
X124294Y7456D01*
X124295Y7361D01*
X124320Y7233D01*
X124335Y7104D01*
X124363Y7012D01*
X124381Y6918D01*
X124428Y6797D01*
X124465Y6673D01*
X124509Y6587D01*
X124543Y6498D01*
X124611Y6387D01*
X124670Y6271D01*
X124727Y6195D01*
X124777Y6114D01*
X124863Y6016D01*
X124942Y5913D01*
X125012Y5848D01*
X125075Y5776D01*
X125177Y5696D01*
X125273Y5607D01*
X125353Y5556D01*
X125428Y5497D01*
X125543Y5435D01*
X125653Y5366D01*
X125741Y5329D01*
X125825Y5284D01*
X125949Y5244D01*
X126069Y5195D01*
X126163Y5175D01*
X126253Y5145D01*
X126382Y5127D01*
X126509Y5100D01*
X126639Y5092D01*
X126699Y5084D01*
X126744Y5085D01*
X126821Y5081D01*
X129379Y5081D01*
X129508Y5092D01*
X129638Y5094D01*
X129732Y5112D01*
X129827Y5121D01*
X129953Y5155D01*
X130080Y5180D01*
X130170Y5214D01*
X130262Y5239D01*
X130379Y5295D01*
X130500Y5342D01*
X130582Y5392D01*
X130668Y5433D01*
X130774Y5508D01*
X130885Y5576D01*
X130957Y5639D01*
X131034Y5695D01*
X131125Y5788D01*
X131222Y5874D01*
X131282Y5949D01*
X131348Y6017D01*
X131421Y6125D01*
X131502Y6227D01*
X131547Y6311D01*
X131600Y6390D01*
X131653Y6509D01*
X131715Y6624D01*
X131744Y6715D01*
X131783Y6802D01*
X131814Y6929D01*
X131854Y7052D01*
X131867Y7147D01*
X131889Y7240D01*
X131897Y7369D01*
X131915Y7498D01*
X131911Y7594D01*
X131917Y7689D01*
X131902Y7818D01*
X131897Y7948D01*
X131876Y8041D01*
X131865Y8136D01*
X131827Y8261D01*
X131799Y8388D01*
X131762Y8476D01*
X131735Y8567D01*
X131676Y8683D01*
X131626Y8803D01*
X131574Y8883D01*
X131530Y8969D01*
X131452Y9072D01*
X131381Y9181D01*
X131295Y9279D01*
X131258Y9327D01*
X131225Y9358D01*
X131174Y9416D01*
X130893Y9697D01*
X130893Y17903D01*
X136697Y23707D01*
X144903Y23707D01*
X150707Y17903D01*
X150707Y9697D01*
X150426Y9416D01*
X150342Y9316D01*
X150252Y9223D01*
X150198Y9143D01*
X150137Y9070D01*
X150072Y8957D01*
X150000Y8850D01*
X149961Y8762D01*
X149913Y8679D01*
X149870Y8557D01*
X149817Y8438D01*
X149795Y8345D01*
X149763Y8255D01*
X149741Y8127D01*
X149711Y8000D01*
X149705Y7905D01*
X149689Y7811D01*
X149691Y7681D01*
X149683Y7551D01*
X149694Y7456D01*
X149695Y7361D01*
X149720Y7233D01*
X149735Y7104D01*
X149763Y7012D01*
X149781Y6918D01*
X149828Y6797D01*
X149865Y6673D01*
X149909Y6587D01*
X149943Y6498D01*
X150011Y6387D01*
X150070Y6271D01*
X150127Y6195D01*
X150177Y6114D01*
X150263Y6016D01*
X150342Y5913D01*
X150412Y5848D01*
X150475Y5776D01*
X150577Y5696D01*
X150673Y5607D01*
X150753Y5556D01*
X150828Y5497D01*
X150943Y5435D01*
X151053Y5366D01*
X151141Y5329D01*
X151225Y5284D01*
X151349Y5244D01*
X151469Y5195D01*
X151563Y5175D01*
X151653Y5145D01*
X151782Y5127D01*
X151909Y5100D01*
X152039Y5092D01*
X152099Y5084D01*
X152144Y5085D01*
X152221Y5081D01*
X153754Y5081D01*
X153789Y5084D01*
X153823Y5082D01*
X154012Y5104D01*
X154203Y5121D01*
X154236Y5130D01*
X154270Y5134D01*
X154453Y5189D01*
X154637Y5239D01*
X154668Y5254D01*
X154701Y5264D01*
X154872Y5351D01*
X155044Y5433D01*
X155072Y5453D01*
X155103Y5468D01*
X155255Y5584D01*
X155410Y5695D01*
X155434Y5720D01*
X155461Y5740D01*
X155590Y5880D01*
X155724Y6017D01*
X155743Y6046D01*
X155767Y6072D01*
X155869Y6233D01*
X155976Y6390D01*
X155990Y6422D01*
X156008Y6451D01*
X156081Y6628D01*
X156158Y6802D01*
X156166Y6836D01*
X156179Y6868D01*
X156219Y7055D01*
X156265Y7240D01*
X156267Y7274D01*
X156274Y7308D01*
X156293Y7620D01*
X156293Y22814D01*
X157186Y23707D01*
X175214Y23707D01*
X176107Y22814D01*
X176107Y9422D01*
X176118Y9293D01*
X176120Y9163D01*
X176138Y9069D01*
X176147Y8974D01*
X176181Y8848D01*
X176206Y8721D01*
X176240Y8631D01*
X176265Y8539D01*
X176321Y8422D01*
X176368Y8301D01*
X176418Y8219D01*
X176459Y8133D01*
X176534Y8027D01*
X176602Y7916D01*
X176665Y7844D01*
X176721Y7767D01*
X176814Y7676D01*
X176900Y7579D01*
X176975Y7519D01*
X177043Y7453D01*
X177151Y7380D01*
X177253Y7299D01*
X177337Y7254D01*
X177416Y7201D01*
X177535Y7148D01*
X177650Y7087D01*
X177741Y7057D01*
X177828Y7018D01*
X177955Y6987D01*
X178078Y6947D01*
X178173Y6934D01*
X178266Y6912D01*
X178395Y6904D01*
X178524Y6886D01*
X178620Y6890D01*
X178715Y6884D01*
X178844Y6899D01*
X178974Y6904D01*
X179067Y6925D01*
X179162Y6936D01*
X179287Y6974D01*
X179414Y7002D01*
X179502Y7039D01*
X179593Y7066D01*
X179709Y7125D01*
X179829Y7175D01*
X179910Y7227D01*
X179995Y7271D01*
X180098Y7349D01*
X180207Y7420D01*
X180305Y7506D01*
X180353Y7543D01*
X180384Y7576D01*
X180442Y7627D01*
X217122Y44307D01*
X218989Y45081D01*
X250231Y45081D01*
X250314Y45088D01*
X250396Y45086D01*
X250537Y45108D01*
X250680Y45121D01*
X250760Y45142D01*
X250841Y45155D01*
X250976Y45201D01*
X251114Y45239D01*
X251189Y45275D01*
X251267Y45301D01*
X251392Y45371D01*
X251521Y45433D01*
X251588Y45480D01*
X251660Y45521D01*
X251771Y45611D01*
X251887Y45695D01*
X251945Y45754D01*
X252008Y45806D01*
X252101Y45915D01*
X252201Y46017D01*
X252247Y46086D01*
X252301Y46148D01*
X252373Y46272D01*
X252453Y46390D01*
X252486Y46466D01*
X252528Y46537D01*
X252577Y46671D01*
X252635Y46802D01*
X252655Y46882D01*
X252683Y46960D01*
X252708Y47101D01*
X252742Y47240D01*
X252747Y47322D01*
X252761Y47403D01*
X252761Y47546D01*
X252770Y47689D01*
X252760Y47771D01*
X252760Y47853D01*
X252734Y47994D01*
X252718Y48136D01*
X252694Y48215D01*
X252679Y48296D01*
X252599Y48529D01*
X252587Y48567D01*
X252582Y48577D01*
X252577Y48592D01*
X252188Y49531D01*
X259080Y49531D01*
X265972Y49531D01*
X265583Y48592D01*
X265558Y48513D01*
X265525Y48438D01*
X265491Y48299D01*
X265448Y48162D01*
X265437Y48080D01*
X265418Y48000D01*
X265409Y47858D01*
X265391Y47715D01*
X265395Y47633D01*
X265390Y47551D01*
X265407Y47409D01*
X265414Y47266D01*
X265433Y47186D01*
X265442Y47104D01*
X265484Y46967D01*
X265516Y46827D01*
X265549Y46752D01*
X265573Y46673D01*
X265638Y46545D01*
X265694Y46414D01*
X265740Y46345D01*
X265777Y46271D01*
X265863Y46157D01*
X265942Y46038D01*
X265999Y45978D01*
X266049Y45913D01*
X266154Y45816D01*
X266253Y45712D01*
X266319Y45663D01*
X266380Y45607D01*
X266501Y45530D01*
X266616Y45446D01*
X266690Y45410D01*
X266760Y45366D01*
X266893Y45311D01*
X267021Y45248D01*
X267100Y45226D01*
X267176Y45195D01*
X267316Y45165D01*
X267454Y45125D01*
X267536Y45117D01*
X267617Y45100D01*
X267863Y45085D01*
X267902Y45081D01*
X267913Y45082D01*
X267929Y45081D01*
X661551Y45081D01*
X661759Y45099D01*
X661965Y45115D01*
X661982Y45119D01*
X662000Y45121D01*
X662200Y45175D01*
X662401Y45227D01*
X662417Y45235D01*
X662434Y45239D01*
X662621Y45328D01*
X662811Y45415D01*
X662825Y45425D01*
X662841Y45433D01*
X663010Y45553D01*
X663180Y45672D01*
X663192Y45684D01*
X663207Y45695D01*
X663352Y45844D01*
X663499Y45990D01*
X663509Y46005D01*
X663521Y46017D01*
X663638Y46190D01*
X663756Y46360D01*
X663763Y46376D01*
X663773Y46390D01*
X663857Y46581D01*
X663944Y46769D01*
X663948Y46786D01*
X663955Y46802D01*
X664004Y47004D01*
X664056Y47205D01*
X664058Y47223D01*
X664062Y47240D01*
X664074Y47446D01*
X664090Y47654D01*
X664088Y47672D01*
X664089Y47689D01*
X664065Y47895D01*
X664044Y48102D01*
X664039Y48122D01*
X664037Y48136D01*
X664024Y48181D01*
X663966Y48405D01*
X663857Y48741D01*
X663775Y49261D01*
X676600Y49261D01*
X689425Y49261D01*
X689343Y48741D01*
X689234Y48405D01*
X689187Y48201D01*
X689138Y48000D01*
X689137Y47983D01*
X689133Y47966D01*
X689123Y47758D01*
X689111Y47551D01*
X689113Y47534D01*
X689112Y47516D01*
X689138Y47311D01*
X689163Y47104D01*
X689168Y47087D01*
X689170Y47070D01*
X689232Y46873D01*
X689293Y46673D01*
X689301Y46657D01*
X689306Y46640D01*
X689403Y46456D01*
X689497Y46271D01*
X689508Y46258D01*
X689516Y46242D01*
X689644Y46078D01*
X689769Y45913D01*
X689782Y45901D01*
X689793Y45887D01*
X689947Y45748D01*
X690100Y45607D01*
X690115Y45598D01*
X690128Y45586D01*
X690305Y45477D01*
X690480Y45366D01*
X690496Y45359D01*
X690511Y45350D01*
X690705Y45273D01*
X690897Y45195D01*
X690914Y45191D01*
X690930Y45185D01*
X691133Y45144D01*
X691337Y45100D01*
X691358Y45099D01*
X691372Y45096D01*
X691418Y45095D01*
X691649Y45081D01*
X760000Y45081D01*
X760056Y45086D01*
X760166Y45086D01*
X764393Y45363D01*
X764484Y45378D01*
X764577Y45382D01*
X764783Y45424D01*
X764837Y45432D01*
X764856Y45439D01*
X764884Y45444D01*
X773048Y47632D01*
X773214Y47692D01*
X773381Y47746D01*
X773436Y47774D01*
X773471Y47787D01*
X773526Y47818D01*
X773661Y47886D01*
X780981Y52112D01*
X781125Y52213D01*
X781273Y52309D01*
X781319Y52349D01*
X781350Y52371D01*
X781394Y52416D01*
X781507Y52516D01*
X787484Y58493D01*
X787597Y58628D01*
X787715Y58758D01*
X787749Y58809D01*
X787773Y58838D01*
X787805Y58893D01*
X787888Y59019D01*
X792114Y66339D01*
X792188Y66498D01*
X792269Y66655D01*
X792288Y66714D01*
X792304Y66747D01*
X792320Y66808D01*
X792368Y66951D01*
X794556Y75116D01*
X794572Y75208D01*
X794597Y75297D01*
X794624Y75507D01*
X794633Y75560D01*
X794633Y75579D01*
X794637Y75607D01*
X794914Y79834D01*
X794913Y79890D01*
X794919Y80000D01*
X794919Y100000D01*
X794914Y100056D01*
X794914Y100166D01*
X794637Y104393D01*
X794622Y104484D01*
X794618Y104577D01*
X794576Y104783D01*
X794568Y104837D01*
X794561Y104856D01*
X794556Y104884D01*
X792368Y113048D01*
X792308Y113214D01*
X792254Y113381D01*
X792226Y113436D01*
X792213Y113471D01*
X792182Y113526D01*
X792114Y113661D01*
X787888Y120981D01*
X787787Y121125D01*
X787691Y121273D01*
X787651Y121319D01*
X787629Y121350D01*
X787584Y121394D01*
X787484Y121507D01*
X781507Y127484D01*
X781372Y127597D01*
X781242Y127715D01*
X781191Y127749D01*
X781162Y127773D01*
X781107Y127805D01*
X780981Y127888D01*
X773661Y132114D01*
X773502Y132188D01*
X773345Y132269D01*
X773286Y132288D01*
X773253Y132304D01*
X773192Y132320D01*
X773048Y132368D01*
X764884Y134556D01*
X764792Y134572D01*
X764702Y134597D01*
X764493Y134624D01*
X764440Y134633D01*
X764421Y134633D01*
X764393Y134637D01*
X760166Y134914D01*
X760110Y134913D01*
X760000Y134919D01*
X688926Y134919D01*
X688844Y134912D01*
X688762Y134914D01*
X688621Y134892D01*
X688478Y134879D01*
X688398Y134858D01*
X688317Y134845D01*
X688181Y134799D01*
X688043Y134761D01*
X687969Y134726D01*
X687891Y134699D01*
X687766Y134629D01*
X687637Y134567D01*
X687570Y134520D01*
X687498Y134479D01*
X687387Y134389D01*
X687270Y134305D01*
X687213Y134246D01*
X687149Y134194D01*
X687056Y134085D01*
X686956Y133983D01*
X686910Y133914D01*
X686857Y133852D01*
X686785Y133728D01*
X686704Y133610D01*
X686671Y133534D01*
X686629Y133463D01*
X686580Y133329D01*
X686522Y133198D01*
X686503Y133118D01*
X686474Y133040D01*
X686449Y132899D01*
X686415Y132760D01*
X686410Y132678D01*
X686396Y132597D01*
X686397Y132454D01*
X686388Y132311D01*
X686397Y132229D01*
X686398Y132147D01*
X686423Y132006D01*
X686440Y131864D01*
X686464Y131785D01*
X686479Y131704D01*
X686559Y131471D01*
X686570Y131433D01*
X686575Y131423D01*
X686580Y131408D01*
X687125Y130094D01*
X687125Y125906D01*
X685522Y122038D01*
X682562Y119078D01*
X679106Y117646D01*
X678990Y117586D01*
X678871Y117534D01*
X678791Y117482D01*
X678707Y117437D01*
X678604Y117358D01*
X678495Y117286D01*
X678426Y117220D01*
X678351Y117162D01*
X678263Y117065D01*
X678169Y116976D01*
X678113Y116898D01*
X678049Y116827D01*
X677980Y116717D01*
X677903Y116612D01*
X677861Y116526D01*
X677811Y116445D01*
X677763Y116324D01*
X677706Y116208D01*
X677680Y116116D01*
X677644Y116027D01*
X677618Y115899D01*
X677583Y115774D01*
X677573Y115679D01*
X677554Y115586D01*
X677551Y115456D01*
X677538Y115326D01*
X677546Y115231D01*
X677543Y115136D01*
X677563Y115007D01*
X677573Y114877D01*
X677598Y114785D01*
X677612Y114691D01*
X677655Y114567D01*
X677687Y114442D01*
X677728Y114355D01*
X677759Y114265D01*
X677822Y114151D01*
X677877Y114033D01*
X677931Y113955D01*
X677978Y113872D01*
X678060Y113771D01*
X678135Y113664D01*
X678203Y113597D01*
X678263Y113523D01*
X678362Y113439D01*
X678454Y113347D01*
X678533Y113293D01*
X678606Y113231D01*
X678718Y113165D01*
X678825Y113091D01*
X678942Y113034D01*
X678994Y113003D01*
X679036Y112988D01*
X679106Y112954D01*
X682562Y111522D01*
X685522Y108562D01*
X687125Y104694D01*
X687125Y100506D01*
X685522Y96638D01*
X682562Y93678D01*
X679106Y92246D01*
X678990Y92186D01*
X678871Y92134D01*
X678791Y92082D01*
X678706Y92037D01*
X678604Y91958D01*
X678495Y91886D01*
X678426Y91820D01*
X678351Y91762D01*
X678263Y91665D01*
X678169Y91575D01*
X678113Y91498D01*
X678049Y91427D01*
X677980Y91317D01*
X677903Y91212D01*
X677861Y91126D01*
X677811Y91045D01*
X677763Y90924D01*
X677706Y90808D01*
X677680Y90716D01*
X677644Y90627D01*
X677618Y90499D01*
X677583Y90374D01*
X677573Y90279D01*
X677554Y90186D01*
X677551Y90056D01*
X677538Y89926D01*
X677546Y89831D01*
X677543Y89736D01*
X677563Y89607D01*
X677573Y89477D01*
X677598Y89385D01*
X677612Y89291D01*
X677655Y89168D01*
X677687Y89042D01*
X677728Y88955D01*
X677759Y88865D01*
X677822Y88751D01*
X677877Y88633D01*
X677931Y88555D01*
X677978Y88472D01*
X678060Y88371D01*
X678135Y88264D01*
X678203Y88197D01*
X678263Y88123D01*
X678362Y88039D01*
X678454Y87947D01*
X678533Y87893D01*
X678606Y87831D01*
X678718Y87765D01*
X678825Y87691D01*
X678942Y87634D01*
X678994Y87603D01*
X679036Y87588D01*
X679106Y87554D01*
X682562Y86122D01*
X685522Y83162D01*
X687125Y79294D01*
X687125Y75106D01*
X685522Y71238D01*
X682562Y68278D01*
X682398Y68210D01*
X682371Y68196D01*
X682342Y68186D01*
X682172Y68092D01*
X681999Y68001D01*
X681974Y67982D01*
X681948Y67968D01*
X681797Y67845D01*
X681643Y67725D01*
X681622Y67703D01*
X681599Y67684D01*
X681471Y67536D01*
X681341Y67391D01*
X681325Y67365D01*
X681305Y67342D01*
X681206Y67174D01*
X681103Y67009D01*
X681092Y66981D01*
X681076Y66954D01*
X681008Y66771D01*
X680936Y66591D01*
X680930Y66561D01*
X680920Y66532D01*
X680885Y66341D01*
X680846Y66149D01*
X680845Y66119D01*
X680840Y66089D01*
X680840Y65895D01*
X680835Y65699D01*
X680840Y65669D01*
X680840Y65639D01*
X680874Y65447D01*
X680904Y65254D01*
X680914Y65226D01*
X680920Y65196D01*
X680987Y65013D01*
X681051Y64828D01*
X681065Y64802D01*
X681076Y64773D01*
X681175Y64605D01*
X681270Y64435D01*
X681289Y64412D01*
X681305Y64386D01*
X681432Y64237D01*
X681555Y64087D01*
X681578Y64067D01*
X681598Y64044D01*
X681750Y63921D01*
X681898Y63794D01*
X681924Y63779D01*
X681947Y63760D01*
X682217Y63601D01*
X683448Y62974D01*
X685111Y61765D01*
X686565Y60311D01*
X687774Y58648D01*
X688708Y56815D01*
X689343Y54859D01*
X689425Y54339D01*
X676600Y54339D01*
X663775Y54339D01*
X663857Y54859D01*
X664492Y56815D01*
X665426Y58648D01*
X666635Y60311D01*
X668089Y61765D01*
X669752Y62974D01*
X670983Y63601D01*
X671009Y63617D01*
X671037Y63629D01*
X671199Y63737D01*
X671365Y63840D01*
X671387Y63861D01*
X671413Y63878D01*
X671554Y64012D01*
X671698Y64143D01*
X671717Y64167D01*
X671739Y64188D01*
X671854Y64346D01*
X671973Y64500D01*
X671987Y64527D01*
X672005Y64552D01*
X672090Y64727D01*
X672180Y64900D01*
X672189Y64929D01*
X672202Y64956D01*
X672256Y65144D01*
X672313Y65330D01*
X672317Y65360D01*
X672325Y65389D01*
X672345Y65584D01*
X672368Y65777D01*
X672367Y65807D01*
X672370Y65837D01*
X672354Y66032D01*
X672344Y66226D01*
X672337Y66256D01*
X672335Y66286D01*
X672285Y66475D01*
X672240Y66664D01*
X672228Y66692D01*
X672221Y66722D01*
X672139Y66899D01*
X672061Y67078D01*
X672044Y67103D01*
X672031Y67130D01*
X671920Y67290D01*
X671812Y67452D01*
X671790Y67474D01*
X671773Y67499D01*
X671635Y67636D01*
X671500Y67777D01*
X671475Y67795D01*
X671454Y67817D01*
X671293Y67927D01*
X671136Y68042D01*
X671108Y68055D01*
X671083Y68072D01*
X670802Y68210D01*
X670638Y68278D01*
X667678Y71238D01*
X666075Y75106D01*
X666075Y79294D01*
X667678Y83162D01*
X670638Y86122D01*
X674094Y87554D01*
X674210Y87614D01*
X674329Y87666D01*
X674409Y87718D01*
X674493Y87763D01*
X674596Y87842D01*
X674705Y87914D01*
X674774Y87980D01*
X674849Y88038D01*
X674937Y88135D01*
X675031Y88224D01*
X675087Y88302D01*
X675151Y88373D01*
X675220Y88483D01*
X675297Y88588D01*
X675339Y88674D01*
X675389Y88755D01*
X675437Y88876D01*
X675494Y88992D01*
X675520Y89084D01*
X675556Y89173D01*
X675582Y89301D01*
X675617Y89426D01*
X675627Y89521D01*
X675646Y89614D01*
X675649Y89744D01*
X675662Y89874D01*
X675654Y89969D01*
X675657Y90064D01*
X675637Y90193D01*
X675627Y90323D01*
X675602Y90415D01*
X675588Y90509D01*
X675545Y90633D01*
X675513Y90758D01*
X675472Y90845D01*
X675441Y90935D01*
X675378Y91049D01*
X675323Y91167D01*
X675269Y91245D01*
X675222Y91328D01*
X675140Y91429D01*
X675065Y91536D01*
X674997Y91603D01*
X674937Y91677D01*
X674838Y91761D01*
X674746Y91853D01*
X674667Y91907D01*
X674594Y91969D01*
X674482Y92035D01*
X674375Y92109D01*
X674258Y92166D01*
X674206Y92197D01*
X674164Y92212D01*
X674094Y92246D01*
X670638Y93678D01*
X667678Y96638D01*
X666075Y100506D01*
X666075Y104694D01*
X667678Y108562D01*
X670638Y111522D01*
X674094Y112954D01*
X674210Y113014D01*
X674329Y113066D01*
X674409Y113118D01*
X674494Y113163D01*
X674596Y113242D01*
X674705Y113314D01*
X674774Y113380D01*
X674849Y113438D01*
X674937Y113535D01*
X675031Y113625D01*
X675087Y113702D01*
X675151Y113773D01*
X675220Y113883D01*
X675297Y113988D01*
X675339Y114074D01*
X675389Y114155D01*
X675437Y114276D01*
X675494Y114392D01*
X675520Y114484D01*
X675556Y114573D01*
X675582Y114701D01*
X675617Y114826D01*
X675627Y114921D01*
X675646Y115014D01*
X675649Y115144D01*
X675662Y115274D01*
X675654Y115369D01*
X675657Y115464D01*
X675637Y115593D01*
X675627Y115723D01*
X675602Y115815D01*
X675588Y115909D01*
X675545Y116032D01*
X675513Y116158D01*
X675472Y116245D01*
X675441Y116335D01*
X675378Y116449D01*
X675323Y116567D01*
X675269Y116645D01*
X675222Y116728D01*
X675140Y116829D01*
X675065Y116936D01*
X674997Y117003D01*
X674937Y117077D01*
X674838Y117161D01*
X674746Y117253D01*
X674667Y117307D01*
X674594Y117369D01*
X674482Y117435D01*
X674375Y117509D01*
X674258Y117566D01*
X674206Y117597D01*
X674164Y117612D01*
X674094Y117646D01*
X670638Y119078D01*
X667678Y122038D01*
X666075Y125906D01*
X666075Y130094D01*
X666620Y131408D01*
X666644Y131487D01*
X666678Y131562D01*
X666712Y131701D01*
X666755Y131838D01*
X666765Y131920D01*
X666785Y132000D01*
X666793Y132142D01*
X666811Y132285D01*
X666807Y132367D01*
X666812Y132449D01*
X666796Y132591D01*
X666788Y132734D01*
X666770Y132814D01*
X666760Y132896D01*
X666719Y133034D01*
X666686Y133173D01*
X666654Y133248D01*
X666630Y133327D01*
X666565Y133455D01*
X666508Y133586D01*
X666463Y133655D01*
X666425Y133729D01*
X666339Y133842D01*
X666260Y133962D01*
X666203Y134022D01*
X666153Y134087D01*
X666048Y134184D01*
X665949Y134288D01*
X665883Y134337D01*
X665822Y134393D01*
X665702Y134469D01*
X665586Y134554D01*
X665512Y134590D01*
X665443Y134634D01*
X665310Y134689D01*
X665182Y134752D01*
X665102Y134774D01*
X665026Y134805D01*
X664886Y134835D01*
X664748Y134875D01*
X664666Y134883D01*
X664586Y134900D01*
X664340Y134915D01*
X664300Y134919D01*
X664290Y134918D01*
X664274Y134919D01*
X218989Y134919D01*
X217122Y135693D01*
X180442Y172373D01*
X180342Y172457D01*
X180249Y172547D01*
X180169Y172601D01*
X180096Y172662D01*
X179983Y172727D01*
X179876Y172799D01*
X179788Y172838D01*
X179705Y172886D01*
X179583Y172929D01*
X179464Y172982D01*
X179371Y173004D01*
X179281Y173036D01*
X179152Y173058D01*
X179026Y173088D01*
X178931Y173094D01*
X178837Y173110D01*
X178706Y173108D01*
X178577Y173116D01*
X178482Y173105D01*
X178386Y173104D01*
X178259Y173079D01*
X178130Y173064D01*
X178038Y173036D01*
X177944Y173018D01*
X177823Y172971D01*
X177699Y172934D01*
X177614Y172890D01*
X177524Y172856D01*
X177413Y172788D01*
X177297Y172729D01*
X177221Y172672D01*
X177140Y172622D01*
X177042Y172536D01*
X176939Y172457D01*
X176874Y172387D01*
X176802Y172324D01*
X176722Y172222D01*
X176633Y172126D01*
X176582Y172046D01*
X176523Y171971D01*
X176462Y171856D01*
X176392Y171746D01*
X176355Y171658D01*
X176310Y171574D01*
X176270Y171450D01*
X176221Y171330D01*
X176201Y171236D01*
X176171Y171146D01*
X176153Y171017D01*
X176126Y170890D01*
X176118Y170760D01*
X176110Y170699D01*
X176111Y170655D01*
X176107Y170578D01*
X176107Y157186D01*
X175214Y156293D01*
X157186Y156293D01*
X156293Y157186D01*
X156293Y172380D01*
X156290Y172415D01*
X156292Y172449D01*
X156270Y172638D01*
X156253Y172829D01*
X156244Y172862D01*
X156240Y172896D01*
X156185Y173079D01*
X156135Y173263D01*
X156120Y173294D01*
X156110Y173327D01*
X156023Y173498D01*
X155941Y173670D01*
X155921Y173698D01*
X155906Y173729D01*
X155790Y173881D01*
X155679Y174036D01*
X155654Y174060D01*
X155634Y174087D01*
X155494Y174216D01*
X155357Y174350D01*
X155328Y174369D01*
X155302Y174393D01*
X155141Y174495D01*
X154984Y174602D01*
X154952Y174616D01*
X154923Y174634D01*
X154746Y174707D01*
X154572Y174784D01*
X154538Y174792D01*
X154506Y174805D01*
X154319Y174845D01*
X154134Y174891D01*
X154100Y174893D01*
X154066Y174900D01*
X153754Y174919D01*
X152221Y174919D01*
X152092Y174908D01*
X151962Y174906D01*
X151868Y174888D01*
X151773Y174879D01*
X151647Y174845D01*
X151520Y174820D01*
X151430Y174786D01*
X151338Y174761D01*
X151221Y174705D01*
X151100Y174658D01*
X151018Y174608D01*
X150932Y174567D01*
X150826Y174492D01*
X150715Y174424D01*
X150643Y174361D01*
X150566Y174305D01*
X150475Y174212D01*
X150378Y174126D01*
X150318Y174051D01*
X150252Y173983D01*
X150179Y173875D01*
X150098Y173773D01*
X150053Y173689D01*
X150000Y173610D01*
X149947Y173491D01*
X149885Y173376D01*
X149856Y173285D01*
X149817Y173198D01*
X149786Y173071D01*
X149746Y172948D01*
X149733Y172853D01*
X149711Y172760D01*
X149703Y172631D01*
X149685Y172502D01*
X149689Y172406D01*
X149683Y172311D01*
X149698Y172182D01*
X149703Y172052D01*
X149724Y171959D01*
X149735Y171864D01*
X149773Y171739D01*
X149801Y171612D01*
X149838Y171524D01*
X149865Y171433D01*
X149924Y171317D01*
X149974Y171197D01*
X150026Y171117D01*
X150070Y171031D01*
X150148Y170928D01*
X150219Y170819D01*
X150305Y170721D01*
X150342Y170673D01*
X150375Y170642D01*
X150426Y170584D01*
X150707Y170303D01*
X150707Y162097D01*
X144903Y156293D01*
X136697Y156293D01*
X130893Y162097D01*
X130893Y170303D01*
X131174Y170584D01*
X131258Y170684D01*
X131348Y170777D01*
X131402Y170857D01*
X131463Y170930D01*
X131528Y171043D01*
X131600Y171150D01*
X131639Y171238D01*
X131687Y171321D01*
X131730Y171443D01*
X131783Y171562D01*
X131805Y171655D01*
X131837Y171745D01*
X131859Y171873D01*
X131889Y172000D01*
X131895Y172095D01*
X131911Y172189D01*
X131909Y172319D01*
X131917Y172449D01*
X131906Y172544D01*
X131905Y172639D01*
X131880Y172767D01*
X131865Y172896D01*
X131837Y172988D01*
X131819Y173082D01*
X131772Y173203D01*
X131735Y173327D01*
X131691Y173413D01*
X131657Y173502D01*
X131589Y173613D01*
X131530Y173729D01*
X131473Y173805D01*
X131423Y173886D01*
X131337Y173984D01*
X131258Y174087D01*
X131188Y174152D01*
X131125Y174224D01*
X131023Y174304D01*
X130927Y174393D01*
X130847Y174444D01*
X130772Y174503D01*
X130657Y174565D01*
X130547Y174634D01*
X130459Y174671D01*
X130375Y174716D01*
X130251Y174756D01*
X130131Y174805D01*
X130037Y174825D01*
X129947Y174855D01*
X129818Y174873D01*
X129691Y174900D01*
X129561Y174908D01*
X129501Y174916D01*
X129456Y174915D01*
X129379Y174919D01*
X126821Y174919D01*
X126692Y174908D01*
X126562Y174906D01*
X126468Y174888D01*
X126373Y174879D01*
X126247Y174845D01*
X126120Y174820D01*
X126030Y174786D01*
X125938Y174761D01*
X125821Y174705D01*
X125700Y174658D01*
X125618Y174608D01*
X125532Y174567D01*
X125426Y174492D01*
X125315Y174424D01*
X125243Y174361D01*
X125166Y174305D01*
X125075Y174212D01*
X124978Y174126D01*
X124918Y174051D01*
X124852Y173983D01*
X124779Y173875D01*
X124698Y173773D01*
X124653Y173689D01*
X124600Y173610D01*
X124547Y173491D01*
X124485Y173376D01*
X124456Y173285D01*
X124417Y173198D01*
X124386Y173071D01*
X124346Y172948D01*
X124333Y172853D01*
X124311Y172760D01*
X124303Y172631D01*
X124285Y172502D01*
X124289Y172406D01*
X124283Y172311D01*
X124298Y172182D01*
X124303Y172052D01*
X124324Y171959D01*
X124335Y171864D01*
X124373Y171739D01*
X124401Y171612D01*
X124438Y171524D01*
X124465Y171433D01*
X124524Y171317D01*
X124574Y171197D01*
X124626Y171117D01*
X124670Y171031D01*
X124748Y170928D01*
X124819Y170819D01*
X124905Y170721D01*
X124942Y170673D01*
X124975Y170642D01*
X125026Y170584D01*
X125307Y170303D01*
X125307Y162097D01*
X119503Y156293D01*
X111297Y156293D01*
X105493Y162097D01*
X105493Y170303D01*
X105774Y170584D01*
X105858Y170684D01*
X105948Y170777D01*
X106002Y170857D01*
X106063Y170930D01*
X106128Y171043D01*
X106200Y171150D01*
X106239Y171238D01*
X106287Y171321D01*
X106330Y171443D01*
X106383Y171562D01*
X106405Y171655D01*
X106437Y171745D01*
X106459Y171873D01*
X106489Y172000D01*
X106495Y172095D01*
X106511Y172189D01*
X106509Y172319D01*
X106517Y172449D01*
X106506Y172544D01*
X106505Y172639D01*
X106480Y172767D01*
X106465Y172896D01*
X106437Y172988D01*
X106419Y173082D01*
X106372Y173203D01*
X106335Y173327D01*
X106291Y173413D01*
X106257Y173502D01*
X106189Y173613D01*
X106130Y173729D01*
X106073Y173805D01*
X106023Y173886D01*
X105937Y173984D01*
X105858Y174087D01*
X105788Y174152D01*
X105725Y174224D01*
X105623Y174304D01*
X105527Y174393D01*
X105447Y174444D01*
X105372Y174503D01*
X105257Y174565D01*
X105147Y174634D01*
X105059Y174671D01*
X104975Y174716D01*
X104851Y174756D01*
X104731Y174805D01*
X104637Y174825D01*
X104547Y174855D01*
X104418Y174873D01*
X104291Y174900D01*
X104161Y174908D01*
X104101Y174916D01*
X104056Y174915D01*
X103979Y174919D01*
X101421Y174919D01*
X101292Y174908D01*
X101162Y174906D01*
X101068Y174888D01*
X100973Y174879D01*
X100847Y174845D01*
X100720Y174820D01*
X100630Y174786D01*
X100538Y174761D01*
X100421Y174705D01*
X100300Y174658D01*
X100218Y174608D01*
X100132Y174567D01*
X100026Y174492D01*
X99915Y174424D01*
X99843Y174361D01*
X99766Y174305D01*
X99675Y174212D01*
X99578Y174126D01*
X99518Y174051D01*
X99452Y173983D01*
X99379Y173875D01*
X99298Y173773D01*
X99253Y173689D01*
X99200Y173610D01*
X99147Y173491D01*
X99085Y173376D01*
X99056Y173285D01*
X99017Y173198D01*
X98986Y173071D01*
X98946Y172948D01*
X98933Y172853D01*
X98911Y172760D01*
X98903Y172631D01*
X98885Y172502D01*
X98889Y172406D01*
X98883Y172311D01*
X98898Y172182D01*
X98903Y172052D01*
X98924Y171959D01*
X98935Y171864D01*
X98973Y171739D01*
X99001Y171612D01*
X99038Y171524D01*
X99065Y171433D01*
X99124Y171317D01*
X99174Y171197D01*
X99226Y171117D01*
X99270Y171031D01*
X99348Y170928D01*
X99419Y170819D01*
X99505Y170721D01*
X99542Y170673D01*
X99575Y170642D01*
X99626Y170584D01*
X99907Y170303D01*
X99907Y162097D01*
X94103Y156293D01*
X85897Y156293D01*
X80093Y162097D01*
X80093Y170303D01*
X80374Y170584D01*
X80458Y170684D01*
X80548Y170777D01*
X80602Y170857D01*
X80663Y170930D01*
X80728Y171043D01*
X80800Y171150D01*
X80839Y171238D01*
X80887Y171321D01*
X80930Y171443D01*
X80983Y171562D01*
X81005Y171655D01*
X81037Y171745D01*
X81059Y171873D01*
X81089Y172000D01*
X81095Y172095D01*
X81111Y172189D01*
X81109Y172319D01*
X81117Y172449D01*
X81106Y172544D01*
X81105Y172639D01*
X81080Y172767D01*
X81065Y172896D01*
X81037Y172988D01*
X81019Y173082D01*
X80972Y173203D01*
X80935Y173327D01*
X80891Y173413D01*
X80857Y173502D01*
X80789Y173613D01*
X80730Y173729D01*
X80673Y173805D01*
X80623Y173886D01*
X80537Y173984D01*
X80458Y174087D01*
X80388Y174152D01*
X80325Y174224D01*
X80223Y174304D01*
X80127Y174393D01*
X80047Y174444D01*
X79972Y174503D01*
X79857Y174565D01*
X79747Y174634D01*
X79659Y174671D01*
X79575Y174716D01*
X79451Y174756D01*
X79331Y174805D01*
X79237Y174825D01*
X79147Y174855D01*
X79018Y174873D01*
X78891Y174900D01*
X78761Y174908D01*
X78701Y174916D01*
X78656Y174915D01*
X78579Y174919D01*
X76021Y174919D01*
X75892Y174908D01*
X75762Y174906D01*
X75668Y174888D01*
X75573Y174879D01*
X75447Y174845D01*
X75320Y174820D01*
X75230Y174786D01*
X75138Y174761D01*
X75021Y174705D01*
X74900Y174658D01*
X74818Y174608D01*
X74732Y174567D01*
X74626Y174492D01*
X74515Y174424D01*
X74443Y174361D01*
X74366Y174305D01*
X74275Y174212D01*
X74178Y174126D01*
X74118Y174051D01*
X74052Y173983D01*
X73979Y173875D01*
X73898Y173773D01*
X73853Y173689D01*
X73800Y173610D01*
X73747Y173491D01*
X73685Y173376D01*
X73656Y173285D01*
X73617Y173198D01*
X73586Y173071D01*
X73546Y172948D01*
X73533Y172853D01*
X73511Y172760D01*
X73503Y172631D01*
X73485Y172502D01*
X73489Y172406D01*
X73483Y172311D01*
X73498Y172182D01*
X73503Y172052D01*
X73524Y171959D01*
X73535Y171864D01*
X73573Y171739D01*
X73601Y171612D01*
X73638Y171524D01*
X73665Y171433D01*
X73724Y171317D01*
X73774Y171197D01*
X73826Y171117D01*
X73870Y171031D01*
X73948Y170928D01*
X74019Y170819D01*
X74105Y170721D01*
X74142Y170673D01*
X74175Y170642D01*
X74226Y170584D01*
X74507Y170303D01*
X74507Y162097D01*
X69408Y156998D01*
X69303Y156872D01*
X69191Y156751D01*
X69159Y156700D01*
X69120Y156653D01*
X69038Y156510D01*
X68950Y156371D01*
X68926Y156315D01*
X68896Y156262D01*
X68841Y156107D01*
X68779Y155955D01*
X68766Y155895D01*
X68745Y155838D01*
X68719Y155675D01*
X68684Y155515D01*
X68679Y155438D01*
X68672Y155393D01*
X68673Y155332D01*
X68665Y155203D01*
X68665Y150624D01*
X68668Y150589D01*
X68666Y150555D01*
X68688Y150366D01*
X68705Y150175D01*
X68714Y150142D01*
X68718Y150108D01*
X68773Y149925D01*
X68823Y149741D01*
X68838Y149710D01*
X68848Y149677D01*
X68935Y149506D01*
X69017Y149334D01*
X69037Y149306D01*
X69052Y149275D01*
X69168Y149123D01*
X69279Y148968D01*
X69304Y148944D01*
X69324Y148917D01*
X69464Y148788D01*
X69601Y148654D01*
X69630Y148635D01*
X69656Y148611D01*
X69817Y148509D01*
X69974Y148402D01*
X70006Y148388D01*
X70035Y148370D01*
X70212Y148297D01*
X70386Y148220D01*
X70420Y148212D01*
X70452Y148199D01*
X70639Y148159D01*
X70824Y148113D01*
X70858Y148111D01*
X70892Y148104D01*
X71204Y148085D01*
X74192Y148085D01*
X75085Y147192D01*
X75085Y146664D01*
X75088Y146629D01*
X75086Y146595D01*
X75108Y146406D01*
X75125Y146215D01*
X75134Y146182D01*
X75138Y146148D01*
X75193Y145965D01*
X75243Y145781D01*
X75258Y145750D01*
X75268Y145717D01*
X75355Y145546D01*
X75437Y145374D01*
X75457Y145346D01*
X75472Y145315D01*
X75588Y145163D01*
X75699Y145008D01*
X75724Y144984D01*
X75744Y144957D01*
X75884Y144828D01*
X76021Y144694D01*
X76050Y144675D01*
X76076Y144651D01*
X76237Y144549D01*
X76394Y144442D01*
X76426Y144428D01*
X76455Y144410D01*
X76632Y144337D01*
X76806Y144260D01*
X76840Y144252D01*
X76872Y144239D01*
X77059Y144199D01*
X77244Y144153D01*
X77278Y144151D01*
X77312Y144144D01*
X77624Y144125D01*
X193489Y144125D01*
X194982Y143506D01*
X201229Y137259D01*
X201319Y137184D01*
X201402Y137102D01*
X201491Y137040D01*
X201574Y136970D01*
X201676Y136912D01*
X201772Y136846D01*
X201910Y136778D01*
X201965Y136747D01*
X202000Y136735D01*
X202053Y136709D01*
X203358Y136168D01*
X204708Y134818D01*
X205439Y133055D01*
X205439Y131145D01*
X204708Y129382D01*
X203358Y128032D01*
X201595Y127301D01*
X199685Y127301D01*
X197922Y128032D01*
X196572Y129382D01*
X196031Y130687D01*
X195977Y130791D01*
X195932Y130899D01*
X195873Y130990D01*
X195823Y131086D01*
X195751Y131179D01*
X195688Y131277D01*
X195586Y131392D01*
X195547Y131442D01*
X195520Y131467D01*
X195481Y131511D01*
X191740Y135252D01*
X191614Y135357D01*
X191493Y135469D01*
X191442Y135501D01*
X191395Y135540D01*
X191252Y135622D01*
X191113Y135710D01*
X191057Y135734D01*
X191004Y135764D01*
X190849Y135819D01*
X190697Y135881D01*
X190637Y135894D01*
X190579Y135915D01*
X190417Y135941D01*
X190256Y135976D01*
X190179Y135981D01*
X190135Y135988D01*
X190074Y135987D01*
X189945Y135995D01*
X77624Y135995D01*
X77589Y135992D01*
X77555Y135994D01*
X77366Y135972D01*
X77175Y135955D01*
X77142Y135946D01*
X77108Y135942D01*
X76925Y135887D01*
X76741Y135837D01*
X76710Y135822D01*
X76677Y135812D01*
X76506Y135725D01*
X76334Y135643D01*
X76306Y135623D01*
X76275Y135608D01*
X76123Y135492D01*
X75968Y135381D01*
X75944Y135356D01*
X75917Y135336D01*
X75788Y135196D01*
X75654Y135059D01*
X75635Y135030D01*
X75611Y135004D01*
X75509Y134843D01*
X75402Y134686D01*
X75388Y134654D01*
X75370Y134625D01*
X75297Y134448D01*
X75220Y134274D01*
X75212Y134240D01*
X75199Y134208D01*
X75159Y134021D01*
X75113Y133836D01*
X75111Y133802D01*
X75104Y133768D01*
X75085Y133456D01*
X75085Y132928D01*
X74512Y132356D01*
X74490Y132329D01*
X74464Y132306D01*
X74346Y132157D01*
X74223Y132010D01*
X74206Y131980D01*
X74184Y131953D01*
X74094Y131785D01*
X74000Y131619D01*
X73988Y131587D01*
X73972Y131556D01*
X73913Y131375D01*
X73849Y131195D01*
X73843Y131161D01*
X73832Y131128D01*
X73806Y130939D01*
X73775Y130751D01*
X73776Y130716D01*
X73771Y130682D01*
X73779Y130491D01*
X73781Y130301D01*
X73788Y130266D01*
X73789Y130232D01*
X73831Y130046D01*
X73867Y129858D01*
X73879Y129826D01*
X73887Y129792D01*
X73961Y129616D01*
X74029Y129438D01*
X74047Y129409D01*
X74061Y129377D01*
X74164Y129216D01*
X74263Y129054D01*
X74286Y129028D01*
X74305Y128999D01*
X74512Y128764D01*
X75085Y128192D01*
X75085Y118770D01*
X75088Y118735D01*
X75086Y118701D01*
X75108Y118512D01*
X75125Y118321D01*
X75134Y118288D01*
X75138Y118254D01*
X75193Y118071D01*
X75243Y117887D01*
X75258Y117856D01*
X75268Y117823D01*
X75355Y117652D01*
X75437Y117480D01*
X75457Y117452D01*
X75472Y117421D01*
X75588Y117269D01*
X75699Y117114D01*
X75724Y117090D01*
X75744Y117063D01*
X75884Y116934D01*
X76021Y116800D01*
X76050Y116781D01*
X76076Y116757D01*
X76237Y116655D01*
X76394Y116548D01*
X76426Y116534D01*
X76455Y116516D01*
X76632Y116443D01*
X76806Y116366D01*
X76840Y116358D01*
X76872Y116345D01*
X77059Y116305D01*
X77244Y116259D01*
X77278Y116257D01*
X77312Y116250D01*
X77624Y116231D01*
X140999Y116231D01*
X141081Y116238D01*
X141163Y116236D01*
X141305Y116258D01*
X141447Y116271D01*
X141527Y116292D01*
X141608Y116305D01*
X141744Y116351D01*
X141882Y116389D01*
X141956Y116424D01*
X142034Y116451D01*
X142160Y116521D01*
X142288Y116583D01*
X142355Y116630D01*
X142427Y116671D01*
X142538Y116761D01*
X142655Y116845D01*
X142712Y116904D01*
X142776Y116956D01*
X142869Y117065D01*
X142969Y117167D01*
X143015Y117236D01*
X143068Y117298D01*
X143140Y117422D01*
X143221Y117540D01*
X143254Y117616D01*
X143296Y117687D01*
X143345Y117821D01*
X143403Y117952D01*
X143422Y118032D01*
X143451Y118110D01*
X143476Y118251D01*
X143510Y118390D01*
X143515Y118472D01*
X143529Y118553D01*
X143528Y118696D01*
X143537Y118839D01*
X143528Y118921D01*
X143527Y119003D01*
X143502Y119144D01*
X143485Y119286D01*
X143461Y119365D01*
X143447Y119446D01*
X143367Y119679D01*
X143355Y119717D01*
X143350Y119727D01*
X143345Y119742D01*
X142968Y120651D01*
X149860Y120651D01*
X156752Y120651D01*
X156363Y119714D01*
X156101Y119321D01*
X156073Y119269D01*
X156038Y119222D01*
X155965Y119072D01*
X155885Y118926D01*
X155866Y118870D01*
X155841Y118817D01*
X155795Y118657D01*
X155742Y118499D01*
X155734Y118441D01*
X155718Y118384D01*
X155701Y118218D01*
X155677Y118053D01*
X155679Y117995D01*
X155673Y117936D01*
X155686Y117770D01*
X155691Y117603D01*
X155704Y117546D01*
X155708Y117487D01*
X155750Y117326D01*
X155785Y117163D01*
X155807Y117108D01*
X155822Y117052D01*
X155892Y116900D01*
X155955Y116746D01*
X155987Y116696D01*
X156011Y116643D01*
X156107Y116506D01*
X156197Y116365D01*
X156236Y116322D01*
X156270Y116274D01*
X156388Y116157D01*
X156501Y116034D01*
X156548Y115998D01*
X156589Y115957D01*
X156726Y115862D01*
X156859Y115761D01*
X156911Y115734D01*
X156960Y115701D01*
X157240Y115564D01*
X157617Y115408D01*
X157728Y115373D01*
X157836Y115329D01*
X157943Y115306D01*
X158046Y115273D01*
X158162Y115259D01*
X158277Y115234D01*
X158431Y115224D01*
X158493Y115217D01*
X158529Y115218D01*
X158589Y115215D01*
X159621Y115215D01*
X159621Y112859D01*
X159631Y112742D01*
X159631Y112626D01*
X159651Y112519D01*
X159661Y112410D01*
X159691Y112298D01*
X159701Y112247D01*
X159701Y92610D01*
X159704Y92576D01*
X159702Y92541D01*
X159724Y92352D01*
X159741Y92162D01*
X159750Y92128D01*
X159754Y92094D01*
X159809Y91911D01*
X159859Y91727D01*
X159874Y91696D01*
X159884Y91663D01*
X159971Y91492D01*
X160053Y91321D01*
X160073Y91293D01*
X160088Y91262D01*
X160204Y91110D01*
X160315Y90955D01*
X160340Y90930D01*
X160360Y90903D01*
X160500Y90774D01*
X160637Y90641D01*
X160666Y90621D01*
X160692Y90598D01*
X160853Y90495D01*
X161010Y90388D01*
X161042Y90374D01*
X161071Y90356D01*
X161248Y90283D01*
X161422Y90206D01*
X161456Y90198D01*
X161488Y90185D01*
X161643Y90152D01*
X161541Y90121D01*
X161357Y90071D01*
X161326Y90056D01*
X161293Y90046D01*
X161122Y89959D01*
X160950Y89877D01*
X160922Y89857D01*
X160891Y89841D01*
X160739Y89726D01*
X160584Y89615D01*
X160560Y89590D01*
X160533Y89569D01*
X160404Y89429D01*
X160270Y89292D01*
X160251Y89264D01*
X160227Y89238D01*
X160125Y89077D01*
X160018Y88919D01*
X160004Y88888D01*
X159986Y88858D01*
X159913Y88682D01*
X159836Y88508D01*
X159828Y88474D01*
X159815Y88442D01*
X159775Y88255D01*
X159729Y88070D01*
X159727Y88036D01*
X159720Y88002D01*
X159701Y87690D01*
X159701Y68052D01*
X159679Y67983D01*
X159665Y67867D01*
X159640Y67753D01*
X159630Y67599D01*
X159622Y67536D01*
X159624Y67500D01*
X159621Y67441D01*
X159621Y65085D01*
X158589Y65085D01*
X158472Y65075D01*
X158355Y65075D01*
X158249Y65055D01*
X158140Y65045D01*
X158027Y65015D01*
X157912Y64994D01*
X157766Y64943D01*
X157706Y64927D01*
X157673Y64911D01*
X157617Y64892D01*
X155631Y64069D01*
X76609Y64069D01*
X74742Y64843D01*
X73266Y66319D01*
X73207Y66435D01*
X73199Y66445D01*
X73193Y66457D01*
X73063Y66624D01*
X72935Y66793D01*
X72925Y66802D01*
X72917Y66813D01*
X72760Y66955D01*
X72604Y67099D01*
X72593Y67106D01*
X72583Y67114D01*
X72403Y67226D01*
X72224Y67340D01*
X72212Y67345D01*
X72201Y67352D01*
X72004Y67431D01*
X71808Y67511D01*
X71795Y67514D01*
X71783Y67519D01*
X71576Y67561D01*
X71367Y67606D01*
X71352Y67607D01*
X71341Y67609D01*
X71303Y67610D01*
X71056Y67625D01*
X56645Y67625D01*
X56482Y67611D01*
X56317Y67604D01*
X56258Y67591D01*
X56197Y67585D01*
X56038Y67542D01*
X55878Y67506D01*
X55821Y67483D01*
X55763Y67467D01*
X55614Y67396D01*
X55462Y67333D01*
X55411Y67300D01*
X55356Y67273D01*
X55222Y67178D01*
X55084Y67088D01*
X55026Y67037D01*
X54990Y67011D01*
X54947Y66968D01*
X54850Y66882D01*
X44008Y56040D01*
X43903Y55914D01*
X43791Y55793D01*
X43759Y55742D01*
X43720Y55695D01*
X43638Y55552D01*
X43550Y55413D01*
X43526Y55357D01*
X43496Y55304D01*
X43441Y55149D01*
X43379Y54997D01*
X43366Y54937D01*
X43345Y54879D01*
X43319Y54717D01*
X43284Y54556D01*
X43279Y54480D01*
X43272Y54435D01*
X43273Y54374D01*
X43265Y54245D01*
X43265Y24797D01*
X43279Y24634D01*
X43286Y24469D01*
X43299Y24410D01*
X43305Y24349D01*
X43348Y24190D01*
X43384Y24030D01*
X43407Y23973D01*
X43423Y23914D01*
X43494Y23766D01*
X43557Y23614D01*
X43590Y23563D01*
X43617Y23508D01*
X43712Y23374D01*
X43802Y23236D01*
X43853Y23178D01*
X43879Y23142D01*
X43922Y23099D01*
X44008Y23002D01*
X49107Y17903D01*
X49107Y9697D01*
X48826Y9416D01*
X48742Y9316D01*
X48652Y9223D01*
X48598Y9143D01*
X48537Y9070D01*
X48472Y8957D01*
X48400Y8850D01*
X48361Y8762D01*
X48313Y8679D01*
X48270Y8557D01*
X48217Y8438D01*
X48195Y8345D01*
X48163Y8255D01*
X48141Y8127D01*
X48111Y8000D01*
X48105Y7905D01*
X48089Y7811D01*
X48091Y7681D01*
X48083Y7551D01*
X48094Y7456D01*
X48095Y7361D01*
X48120Y7233D01*
X48135Y7104D01*
X48163Y7012D01*
X48181Y6918D01*
X48228Y6797D01*
X48265Y6673D01*
X48309Y6587D01*
X48343Y6498D01*
X48411Y6387D01*
X48470Y6271D01*
X48527Y6195D01*
X48577Y6114D01*
X48663Y6016D01*
X48742Y5913D01*
X48812Y5848D01*
X48875Y5776D01*
X48977Y5696D01*
X49073Y5607D01*
X49153Y5556D01*
X49228Y5497D01*
X49343Y5435D01*
X49453Y5366D01*
X49541Y5329D01*
X49625Y5284D01*
X49749Y5244D01*
X49869Y5195D01*
X49963Y5175D01*
X50053Y5145D01*
X50182Y5127D01*
X50309Y5100D01*
X50439Y5092D01*
X50499Y5084D01*
X50544Y5085D01*
X50621Y5081D01*
X53179Y5081D01*
X53308Y5092D01*
G37*
G36*
X27908Y5092D02*
X27908Y5092D01*
X28038Y5094D01*
X28132Y5112D01*
X28227Y5121D01*
X28353Y5155D01*
X28480Y5180D01*
X28570Y5214D01*
X28662Y5239D01*
X28779Y5295D01*
X28900Y5342D01*
X28982Y5392D01*
X29068Y5433D01*
X29174Y5508D01*
X29285Y5576D01*
X29357Y5639D01*
X29434Y5695D01*
X29525Y5788D01*
X29622Y5874D01*
X29682Y5949D01*
X29748Y6017D01*
X29821Y6125D01*
X29902Y6227D01*
X29947Y6311D01*
X30000Y6390D01*
X30053Y6509D01*
X30115Y6624D01*
X30144Y6715D01*
X30183Y6802D01*
X30214Y6929D01*
X30254Y7052D01*
X30267Y7147D01*
X30289Y7240D01*
X30297Y7369D01*
X30315Y7498D01*
X30311Y7594D01*
X30317Y7689D01*
X30302Y7818D01*
X30297Y7948D01*
X30276Y8041D01*
X30265Y8136D01*
X30227Y8261D01*
X30199Y8388D01*
X30162Y8476D01*
X30135Y8567D01*
X30076Y8683D01*
X30026Y8803D01*
X29974Y8883D01*
X29930Y8969D01*
X29852Y9072D01*
X29781Y9181D01*
X29695Y9279D01*
X29658Y9327D01*
X29625Y9358D01*
X29574Y9416D01*
X29293Y9697D01*
X29293Y17903D01*
X34392Y23002D01*
X34497Y23128D01*
X34609Y23249D01*
X34641Y23300D01*
X34680Y23347D01*
X34762Y23490D01*
X34850Y23629D01*
X34874Y23685D01*
X34904Y23738D01*
X34959Y23893D01*
X35021Y24045D01*
X35034Y24105D01*
X35055Y24162D01*
X35081Y24325D01*
X35116Y24485D01*
X35121Y24562D01*
X35128Y24607D01*
X35127Y24668D01*
X35135Y24797D01*
X35135Y57789D01*
X35754Y59282D01*
X55352Y78880D01*
X55457Y79006D01*
X55569Y79127D01*
X55601Y79178D01*
X55640Y79225D01*
X55722Y79368D01*
X55810Y79507D01*
X55834Y79563D01*
X55864Y79616D01*
X55919Y79771D01*
X55981Y79923D01*
X55994Y79983D01*
X56015Y80040D01*
X56041Y80203D01*
X56076Y80364D01*
X56081Y80440D01*
X56088Y80485D01*
X56087Y80546D01*
X56095Y80675D01*
X56095Y111782D01*
X56292Y111978D01*
X56397Y112104D01*
X56509Y112225D01*
X56541Y112276D01*
X56580Y112323D01*
X56662Y112466D01*
X56750Y112605D01*
X56774Y112661D01*
X56804Y112714D01*
X56859Y112869D01*
X56921Y113021D01*
X56934Y113081D01*
X56955Y113138D01*
X56981Y113301D01*
X57016Y113461D01*
X57021Y113538D01*
X57028Y113583D01*
X57027Y113644D01*
X57035Y113773D01*
X57035Y128192D01*
X57608Y128764D01*
X57630Y128791D01*
X57656Y128814D01*
X57775Y128963D01*
X57897Y129110D01*
X57914Y129140D01*
X57936Y129167D01*
X58026Y129335D01*
X58120Y129501D01*
X58132Y129533D01*
X58148Y129564D01*
X58207Y129745D01*
X58271Y129925D01*
X58277Y129959D01*
X58288Y129992D01*
X58314Y130181D01*
X58345Y130369D01*
X58344Y130404D01*
X58349Y130438D01*
X58341Y130629D01*
X58339Y130820D01*
X58332Y130854D01*
X58331Y130888D01*
X58289Y131074D01*
X58253Y131262D01*
X58241Y131294D01*
X58233Y131328D01*
X58160Y131503D01*
X58091Y131682D01*
X58073Y131711D01*
X58059Y131743D01*
X57956Y131903D01*
X57857Y132066D01*
X57834Y132092D01*
X57815Y132121D01*
X57608Y132356D01*
X57035Y132928D01*
X57035Y147192D01*
X57928Y148085D01*
X57996Y148085D01*
X58031Y148088D01*
X58065Y148086D01*
X58254Y148108D01*
X58445Y148125D01*
X58478Y148134D01*
X58512Y148138D01*
X58695Y148193D01*
X58879Y148243D01*
X58910Y148258D01*
X58943Y148268D01*
X59114Y148355D01*
X59286Y148437D01*
X59314Y148457D01*
X59345Y148472D01*
X59497Y148588D01*
X59652Y148699D01*
X59676Y148724D01*
X59703Y148744D01*
X59832Y148884D01*
X59966Y149021D01*
X59985Y149050D01*
X60009Y149076D01*
X60111Y149237D01*
X60218Y149394D01*
X60232Y149426D01*
X60250Y149455D01*
X60323Y149632D01*
X60400Y149806D01*
X60408Y149840D01*
X60421Y149872D01*
X60461Y150059D01*
X60507Y150244D01*
X60509Y150278D01*
X60516Y150312D01*
X60535Y150624D01*
X60535Y155203D01*
X60521Y155366D01*
X60514Y155531D01*
X60501Y155590D01*
X60495Y155651D01*
X60452Y155810D01*
X60416Y155970D01*
X60393Y156027D01*
X60377Y156086D01*
X60306Y156234D01*
X60243Y156386D01*
X60210Y156437D01*
X60183Y156492D01*
X60088Y156626D01*
X59998Y156764D01*
X59947Y156822D01*
X59921Y156858D01*
X59878Y156901D01*
X59792Y156998D01*
X55492Y161298D01*
X55465Y161320D01*
X55442Y161346D01*
X55293Y161465D01*
X55146Y161587D01*
X55116Y161604D01*
X55089Y161626D01*
X54921Y161716D01*
X54755Y161810D01*
X54723Y161822D01*
X54692Y161838D01*
X54511Y161897D01*
X54331Y161961D01*
X54297Y161967D01*
X54264Y161978D01*
X54075Y162004D01*
X53887Y162035D01*
X53852Y162034D01*
X53818Y162039D01*
X53627Y162031D01*
X53437Y162029D01*
X53403Y162022D01*
X53368Y162021D01*
X53182Y161979D01*
X52994Y161943D01*
X52962Y161931D01*
X52928Y161923D01*
X52753Y161850D01*
X52574Y161781D01*
X52545Y161763D01*
X52513Y161749D01*
X52353Y161646D01*
X52190Y161547D01*
X52164Y161524D01*
X52135Y161505D01*
X51901Y161298D01*
X44356Y153753D01*
X41739Y153753D01*
X41739Y166200D01*
X41736Y166234D01*
X41738Y166269D01*
X41716Y166458D01*
X41699Y166648D01*
X41690Y166682D01*
X41686Y166716D01*
X41631Y166899D01*
X41581Y167083D01*
X41566Y167114D01*
X41556Y167147D01*
X41469Y167318D01*
X41388Y167489D01*
X41367Y167517D01*
X41352Y167548D01*
X41236Y167700D01*
X41125Y167855D01*
X41101Y167879D01*
X41080Y167907D01*
X40940Y168036D01*
X40803Y168169D01*
X40774Y168189D01*
X40749Y168212D01*
X40588Y168315D01*
X40430Y168421D01*
X40398Y168435D01*
X40369Y168454D01*
X40192Y168526D01*
X40018Y168604D01*
X39984Y168612D01*
X39952Y168625D01*
X39766Y168665D01*
X39580Y168710D01*
X39546Y168712D01*
X39512Y168720D01*
X39200Y168739D01*
X39165Y168736D01*
X39131Y168738D01*
X38941Y168716D01*
X38751Y168699D01*
X38718Y168690D01*
X38684Y168686D01*
X38501Y168631D01*
X38317Y168580D01*
X38286Y168566D01*
X38253Y168556D01*
X38082Y168469D01*
X37910Y168387D01*
X37882Y168367D01*
X37851Y168351D01*
X37699Y168236D01*
X37544Y168125D01*
X37520Y168100D01*
X37492Y168079D01*
X37363Y167939D01*
X37230Y167802D01*
X37211Y167774D01*
X37187Y167748D01*
X37085Y167587D01*
X36978Y167429D01*
X36964Y167398D01*
X36945Y167368D01*
X36873Y167192D01*
X36796Y167017D01*
X36788Y166984D01*
X36775Y166952D01*
X36734Y166765D01*
X36689Y166580D01*
X36687Y166546D01*
X36680Y166512D01*
X36661Y166200D01*
X36661Y153753D01*
X34044Y153753D01*
X26499Y161298D01*
X26473Y161321D01*
X26450Y161346D01*
X26301Y161464D01*
X26154Y161587D01*
X26124Y161604D01*
X26097Y161626D01*
X25929Y161716D01*
X25763Y161810D01*
X25731Y161822D01*
X25700Y161838D01*
X25519Y161897D01*
X25339Y161961D01*
X25305Y161967D01*
X25272Y161978D01*
X25083Y162004D01*
X24895Y162035D01*
X24860Y162034D01*
X24826Y162039D01*
X24635Y162031D01*
X24444Y162029D01*
X24410Y162022D01*
X24376Y162021D01*
X24190Y161979D01*
X24002Y161943D01*
X23970Y161931D01*
X23936Y161923D01*
X23761Y161850D01*
X23582Y161781D01*
X23553Y161763D01*
X23521Y161749D01*
X23361Y161646D01*
X23198Y161547D01*
X23172Y161524D01*
X23143Y161505D01*
X22908Y161298D01*
X17903Y156293D01*
X9697Y156293D01*
X9416Y156574D01*
X9316Y156658D01*
X9223Y156748D01*
X9143Y156802D01*
X9070Y156863D01*
X8957Y156928D01*
X8850Y157000D01*
X8762Y157039D01*
X8679Y157087D01*
X8557Y157130D01*
X8438Y157183D01*
X8345Y157205D01*
X8255Y157237D01*
X8127Y157259D01*
X8000Y157289D01*
X7905Y157295D01*
X7811Y157311D01*
X7681Y157309D01*
X7551Y157317D01*
X7456Y157306D01*
X7361Y157305D01*
X7233Y157280D01*
X7104Y157265D01*
X7012Y157237D01*
X6918Y157219D01*
X6797Y157172D01*
X6673Y157135D01*
X6587Y157091D01*
X6498Y157057D01*
X6387Y156989D01*
X6271Y156930D01*
X6195Y156873D01*
X6114Y156823D01*
X6016Y156737D01*
X5913Y156658D01*
X5848Y156588D01*
X5776Y156525D01*
X5696Y156423D01*
X5607Y156327D01*
X5556Y156247D01*
X5497Y156172D01*
X5435Y156057D01*
X5366Y155947D01*
X5329Y155859D01*
X5284Y155775D01*
X5244Y155651D01*
X5195Y155531D01*
X5175Y155437D01*
X5145Y155347D01*
X5127Y155218D01*
X5100Y155091D01*
X5092Y154961D01*
X5084Y154901D01*
X5085Y154856D01*
X5081Y154779D01*
X5081Y25221D01*
X5092Y25092D01*
X5094Y24962D01*
X5112Y24868D01*
X5121Y24773D01*
X5155Y24647D01*
X5180Y24520D01*
X5214Y24430D01*
X5239Y24338D01*
X5295Y24221D01*
X5342Y24100D01*
X5392Y24018D01*
X5433Y23932D01*
X5508Y23826D01*
X5576Y23715D01*
X5639Y23643D01*
X5695Y23566D01*
X5788Y23475D01*
X5874Y23378D01*
X5949Y23318D01*
X6017Y23252D01*
X6125Y23179D01*
X6227Y23098D01*
X6311Y23053D01*
X6390Y23000D01*
X6509Y22947D01*
X6624Y22885D01*
X6715Y22856D01*
X6802Y22817D01*
X6929Y22786D01*
X7052Y22746D01*
X7147Y22733D01*
X7240Y22711D01*
X7369Y22703D01*
X7498Y22685D01*
X7594Y22689D01*
X7689Y22683D01*
X7818Y22698D01*
X7948Y22703D01*
X8041Y22724D01*
X8136Y22735D01*
X8261Y22773D01*
X8388Y22801D01*
X8476Y22838D01*
X8567Y22865D01*
X8683Y22924D01*
X8803Y22974D01*
X8883Y23026D01*
X8969Y23070D01*
X9072Y23148D01*
X9181Y23219D01*
X9279Y23305D01*
X9327Y23342D01*
X9358Y23375D01*
X9416Y23426D01*
X9697Y23707D01*
X17903Y23707D01*
X23707Y17903D01*
X23707Y9697D01*
X23426Y9416D01*
X23342Y9316D01*
X23252Y9223D01*
X23198Y9143D01*
X23137Y9070D01*
X23072Y8957D01*
X23000Y8850D01*
X22961Y8762D01*
X22913Y8679D01*
X22870Y8557D01*
X22817Y8438D01*
X22795Y8345D01*
X22763Y8255D01*
X22741Y8127D01*
X22711Y8000D01*
X22705Y7905D01*
X22689Y7811D01*
X22691Y7681D01*
X22683Y7551D01*
X22694Y7456D01*
X22695Y7361D01*
X22720Y7233D01*
X22735Y7104D01*
X22763Y7012D01*
X22781Y6918D01*
X22828Y6797D01*
X22865Y6673D01*
X22909Y6587D01*
X22943Y6498D01*
X23011Y6387D01*
X23070Y6271D01*
X23127Y6195D01*
X23177Y6114D01*
X23263Y6016D01*
X23342Y5913D01*
X23412Y5848D01*
X23475Y5776D01*
X23577Y5696D01*
X23673Y5607D01*
X23753Y5556D01*
X23828Y5497D01*
X23943Y5435D01*
X24053Y5366D01*
X24141Y5329D01*
X24225Y5284D01*
X24349Y5244D01*
X24469Y5195D01*
X24563Y5175D01*
X24653Y5145D01*
X24782Y5127D01*
X24909Y5100D01*
X25039Y5092D01*
X25099Y5084D01*
X25144Y5085D01*
X25221Y5081D01*
X27779Y5081D01*
X27908Y5092D01*
G37*
%LPC*%
G36*
X169619Y95149D02*
X169619Y95149D01*
X169619Y115215D01*
X175020Y115215D01*
X175806Y115059D01*
X176545Y114752D01*
X177211Y114307D01*
X177777Y113741D01*
X178222Y113075D01*
X178529Y112336D01*
X178685Y111550D01*
X178685Y95149D01*
X169619Y95149D01*
G37*
%LPD*%
%LPC*%
G36*
X169619Y65085D02*
X169619Y65085D01*
X169619Y85151D01*
X178685Y85151D01*
X178685Y68750D01*
X178529Y67964D01*
X178222Y67225D01*
X177777Y66559D01*
X177211Y65993D01*
X176545Y65548D01*
X175806Y65241D01*
X175020Y65085D01*
X169619Y65085D01*
G37*
%LPD*%
%LPC*%
G36*
X152399Y125729D02*
X152399Y125729D01*
X152399Y130082D01*
X153336Y129693D01*
X154538Y128890D01*
X155560Y127868D01*
X156363Y126666D01*
X156752Y125729D01*
X152399Y125729D01*
G37*
%LPD*%
%LPC*%
G36*
X261619Y54609D02*
X261619Y54609D01*
X261619Y58962D01*
X262556Y58573D01*
X263758Y57770D01*
X264780Y56748D01*
X265583Y55546D01*
X265972Y54609D01*
X261619Y54609D01*
G37*
%LPD*%
%LPC*%
G36*
X142968Y125729D02*
X142968Y125729D01*
X143357Y126666D01*
X144160Y127868D01*
X145182Y128890D01*
X146384Y129693D01*
X147321Y130082D01*
X147321Y125729D01*
X142968Y125729D01*
G37*
%LPD*%
%LPC*%
G36*
X252188Y54609D02*
X252188Y54609D01*
X252577Y55546D01*
X253380Y56748D01*
X254402Y57770D01*
X255604Y58573D01*
X256541Y58962D01*
X256541Y54609D01*
X252188Y54609D01*
G37*
%LPD*%
D10*
X0Y0D02*
X180000Y0D01*
X220000Y40000D02*
X760000Y40000D01*
X760967Y40012D01*
X761933Y40047D01*
X762897Y40105D01*
X763861Y40187D01*
X764821Y40292D01*
X765780Y40420D01*
X766734Y40571D01*
X767685Y40745D01*
X768631Y40942D01*
X769573Y41162D01*
X770508Y41405D01*
X771438Y41670D01*
X772361Y41958D01*
X773276Y42268D01*
X774184Y42599D01*
X775084Y42953D01*
X775975Y43328D01*
X776856Y43725D01*
X777728Y44143D01*
X778589Y44582D01*
X779439Y45041D01*
X780278Y45521D01*
X781106Y46021D01*
X781921Y46541D01*
X782723Y47081D01*
X783511Y47639D01*
X784287Y48217D01*
X785047Y48813D01*
X785794Y49427D01*
X786525Y50060D01*
X787241Y50709D01*
X787940Y51376D01*
X788624Y52060D01*
X789291Y52759D01*
X789940Y53475D01*
X790573Y54206D01*
X791187Y54953D01*
X791783Y55713D01*
X792361Y56489D01*
X792919Y57277D01*
X793459Y58079D01*
X793979Y58894D01*
X794479Y59722D01*
X794959Y60561D01*
X795418Y61411D01*
X795857Y62272D01*
X796275Y63144D01*
X796672Y64025D01*
X797047Y64916D01*
X797401Y65816D01*
X797732Y66724D01*
X798042Y67639D01*
X798330Y68562D01*
X798595Y69492D01*
X798838Y70427D01*
X799058Y71369D01*
X799255Y72315D01*
X799429Y73266D01*
X799580Y74220D01*
X799708Y75179D01*
X799813Y76139D01*
X799895Y77103D01*
X799953Y78067D01*
X799988Y79033D01*
X800000Y80000D01*
X800000Y100000D01*
X799988Y100967D01*
X799953Y101933D01*
X799895Y102897D01*
X799813Y103861D01*
X799708Y104821D01*
X799580Y105780D01*
X799429Y106734D01*
X799255Y107685D01*
X799058Y108631D01*
X798838Y109573D01*
X798595Y110508D01*
X798330Y111438D01*
X798042Y112361D01*
X797732Y113276D01*
X797401Y114184D01*
X797047Y115084D01*
X796672Y115975D01*
X796275Y116856D01*
X795857Y117728D01*
X795418Y118589D01*
X794959Y119439D01*
X794479Y120278D01*
X793979Y121106D01*
X793459Y121921D01*
X792919Y122723D01*
X792361Y123511D01*
X791783Y124287D01*
X791187Y125047D01*
X790573Y125794D01*
X789940Y126525D01*
X789291Y127241D01*
X788624Y127940D01*
X787940Y128624D01*
X787241Y129291D01*
X786525Y129940D01*
X785794Y130573D01*
X785047Y131187D01*
X784287Y131783D01*
X783511Y132361D01*
X782723Y132919D01*
X781921Y133459D01*
X781106Y133979D01*
X780278Y134479D01*
X779439Y134959D01*
X778589Y135418D01*
X777728Y135857D01*
X776856Y136275D01*
X775975Y136672D01*
X775084Y137047D01*
X774184Y137401D01*
X773276Y137732D01*
X772361Y138042D01*
X771438Y138330D01*
X770508Y138595D01*
X769573Y138838D01*
X768631Y139058D01*
X767685Y139255D01*
X766734Y139429D01*
X765780Y139580D01*
X764821Y139708D01*
X763861Y139813D01*
X762897Y139895D01*
X761933Y139953D01*
X760967Y139988D01*
X760000Y140000D01*
X220000Y140000D01*
X180000Y180000D02*
X0Y180000D01*
X0Y0D01*
X180000Y180000D02*
X220000Y140000D01*
X220000Y40000D02*
X180000Y0D01*
D11*
X66060Y140060D03*
X66060Y121060D03*
D10*
X77620Y69150D02*
X154620Y69150D01*
X154620Y111150D01*
X77620Y111150D01*
X77620Y69150D01*
D12*
X67620Y90150D03*
X164620Y90150D03*
D13*
X166200Y166200D03*
D14*
X140800Y166200D03*
X115400Y166200D03*
X90000Y166200D03*
X64600Y166200D03*
X39200Y166200D03*
X13800Y166200D03*
D13*
X166200Y13800D03*
D14*
X140800Y13800D03*
X115400Y13800D03*
X90000Y13800D03*
X64600Y13800D03*
X39200Y13800D03*
X13800Y13800D03*
D15*
X676600Y128000D03*
X676600Y102600D03*
X676600Y51800D03*
D16*
X149860Y123190D03*
D17*
X164620Y108430D01*
X164620Y90150D01*
X167180Y92710D01*
X217170Y92710D01*
X257810Y52070D01*
X259080Y52070D01*
D16*
X259080Y52070D03*
X200640Y132100D03*
D17*
X66060Y140060D02*
X64600Y141520D01*
X64600Y166200D01*
X66060Y140060D02*
X192680Y140060D01*
X200640Y132100D01*
X66060Y121060D02*
X66060Y91710D01*
X67620Y90150D01*
X67620Y85400D01*
X39200Y56980D02*
X39200Y13800D01*
X39200Y56980D02*
X67620Y85400D01*
D15*
X676600Y77200D03*
M02*
